<svg viewBox="0 0 82 108" fill="none" xmlns="http://www.w3.org/2000/svg">
    <path d="M43.9446 86.3447C64.6706 93.9909 81.4723 82.2808 81.4723 60.1894C81.4723 38.098 64.6706 13.9909 43.9446 6.34468C23.2187 -1.30152 6.41699 10.4086 6.41699 32.5C6.41699 54.5914 23.2187 78.6985 43.9446 86.3447Z" fill="#DAF727"/>
    <path d="M74.2841 67.3432C74.2841 88.8824 57.9025 100.3 37.6946 92.8447C17.4868 85.3896 1.10518 61.8852 1.10518 40.3461C1.10518 18.807 17.4868 7.38963 37.6946 14.8447C57.9025 22.2997 74.2841 45.8041 74.2841 67.3432Z" fill="#5235E8" stroke="white" stroke-width="2"/>
    <path fill-rule="evenodd" clip-rule="evenodd" d="M32.4642 28.1651L42.925 32.0243C43.2875 32.1578 43.6435 32.3919 43.9564 32.7024C44.2693 33.0129 44.5278 33.3887 44.7053 33.791L60.9031 70.5642C61.0737 70.9518 61.1632 71.3506 61.1632 71.7227C61.1632 72.0947 61.0737 72.4275 60.9031 72.6892L55.7196 80.6319C55.5426 80.9036 55.2847 81.0891 54.9722 81.1693C54.6597 81.2496 54.3041 81.2217 53.9418 81.0885L21.4475 69.1008C21.0848 68.9669 20.7286 68.7324 20.4157 68.4214C20.1028 68.1104 19.8445 67.7342 19.6673 67.3315L14.4861 55.5651C14.3156 55.1775 14.2261 54.7787 14.2261 54.4066C14.2261 54.0346 14.3156 53.7018 14.4861 53.4401L30.684 28.6183C30.8615 28.3469 31.12 28.1618 31.4329 28.0822C31.7457 28.0025 32.1017 28.0311 32.4642 28.1651ZM37.6946 42.3472L26.7811 59.0384L48.6081 67.0909L37.6946 42.3472Z" fill="white"/>
</svg>
