<svg viewBox="0 0 83 108" fill="none" xmlns="http://www.w3.org/2000/svg">
    <path d="M81.2938 69.4513C76.2811 89.0308 55.9164 94.559 35.8075 81.7968C15.707 69.039 3.4705 42.8195 8.48535 23.2426C13.4958 3.65989 33.8605 -1.86929 53.9632 10.8893C74.0707 23.6496 86.3064 49.8712 81.2932 69.4515L81.2936 69.4513L81.2938 69.4513Z"
          fill="#DAF727"/>
    <path d="M75.0438 76.9545C70.0311 96.534 49.6664 102.062 29.5575 89.3C9.45696 76.5422 -2.7795 50.3227 2.23535 30.7457C7.24581 11.1631 27.6105 5.63388 47.7132 18.3925C67.8207 31.1528 80.0564 57.3744 75.0432 76.9547L75.0436 76.9544L75.0438 76.9545Z"
          fill="#5235E8" stroke="white" stroke-width="2"/>
    <path fill-rule="evenodd" clip-rule="evenodd"
          d="M55.1913 54.2521C55.9382 49.2046 52.136 44.9405 46.9368 41.1136L48.6235 34.5252L44.5054 31.9122L42.8636 38.3273C41.7809 37.6401 40.6692 36.9588 39.5642 36.2823L41.218 29.8253L37.1025 27.2133L35.4149 33.799C34.5191 33.2511 33.6391 32.7116 32.7854 32.1702L32.7902 32.1493L27.1113 28.5427L26.0159 32.8267C26.0159 32.8267 29.0711 34.7003 29.0067 34.7225C30.6743 35.7813 30.9759 37.0692 30.9258 37.9833L29.0045 45.4892C29.1194 45.5626 29.2683 45.6625 29.4327 45.7935L29.3133 45.7177L29.3131 45.7176C29.2115 45.653 29.1058 45.5859 28.9974 45.5182L26.3044 56.0322C26.1006 56.497 25.5834 57.1166 24.4175 56.3788C24.4587 56.4577 21.4244 54.4784 21.4244 54.4784L19.3799 58.7485L24.7388 62.1495C25.3257 62.5229 25.9056 62.898 26.4797 63.2692L26.48 63.2695C26.8811 63.5288 27.2792 63.7864 27.6749 64.0401L25.9708 70.7048L30.084 73.316L31.7716 66.7227C32.8953 67.4624 33.9858 68.1646 35.0534 68.8412L33.3715 75.4026L37.4897 78.0156L39.1936 71.3645C46.2158 75.3716 51.4958 76.7485 53.7183 70.7984C55.5092 66.0085 53.6292 62.171 49.9348 58.7579C52.6256 59.0892 54.6523 57.9505 55.1927 54.2533L55.1914 54.2518L55.1913 54.2521ZM45.7825 64.8438C44.6149 69.4138 37.2711 64.6371 33.9111 62.4516C33.6089 62.255 33.3389 62.0794 33.1085 61.9334L35.3698 53.1052C35.6506 53.2835 35.9937 53.4922 36.3824 53.7286C39.8579 55.8421 46.9788 60.1725 45.7827 64.8438L45.7825 64.8438ZM37.0795 49.5012C39.8808 51.3315 45.9918 55.3243 47.0561 51.1719L47.0564 51.172C48.1432 46.9245 42.2043 43.3321 39.3038 41.5775C38.9775 41.3802 38.6897 41.206 38.4546 41.0569L36.4044 49.0637C36.5979 49.1866 36.8251 49.335 37.0795 49.5012Z"
          fill="white"/>
</svg>
