<svg viewBox="0 0 264 164" fill="none" xmlns="http://www.w3.org/2000/svg">
    <g clip-path="url(#clip0_1088_3558)">
        <rect y="-0.00012207" width="264" height="164" fill="#0E0637"/>
        <circle cx="236" cy="17.9994" r="60.1613" fill="url(#paint0_linear_1088_3558)" stroke="url(#paint1_linear_1088_3558)" stroke-width="20"/>
        <g clip-path="url(#clip1_1088_3558)">
            <path d="M228.449 -43.8321C231.618 -49.9607 240.382 -49.9607 243.551 -43.8321L263.73 -4.80529C264.538 -3.24139 265.812 -1.96714 267.377 -1.15849L306.403 19.0203C312.532 22.1891 312.532 30.9537 306.403 34.1224L267.377 54.3012C265.812 55.1097 264.538 56.3839 263.73 57.9484L243.551 96.9747C240.382 103.104 231.618 103.104 228.449 96.9747L208.27 57.9484C207.461 56.3839 206.187 55.1097 204.623 54.3012L165.596 34.1224C159.468 30.9537 159.468 22.1891 165.596 19.0203L204.623 -1.15849C206.187 -1.96714 207.461 -3.24139 208.27 -4.80529L228.449 -43.8321Z" fill="#0E0637"/>
            <path d="M232.224 -17.2018C233.809 -20.2661 238.191 -20.2661 239.776 -17.2018L249.865 2.31165C250.269 3.0936 250.906 3.73073 251.688 4.13505L271.202 14.2244C274.266 15.8088 274.266 20.1911 271.202 21.7755L251.688 31.8649C250.906 32.2691 250.269 32.9062 249.865 33.6885L239.776 53.2016C238.191 56.2661 233.809 56.2661 232.224 53.2016L222.135 33.6885C221.731 32.9062 221.094 32.2691 220.312 31.8649L200.798 21.7755C197.734 20.1911 197.734 15.8088 200.798 14.2244L220.312 4.13505C221.094 3.73073 221.731 3.0936 222.135 2.31165L232.224 -17.2018Z" fill="#0E0637"/>
        </g>
    </g>
    <defs>
        <linearGradient id="paint0_linear_1088_3558" x1="236" y1="-52.1619" x2="236" y2="88.1607" gradientUnits="userSpaceOnUse">
            <stop stop-color="#5B66FA"/>
            <stop offset="1" stop-color="#EFD3EF"/>
        </linearGradient>
        <linearGradient id="paint1_linear_1088_3558" x1="236" y1="-52.1619" x2="236" y2="88.1607" gradientUnits="userSpaceOnUse">
            <stop stop-color="#5B66FA"/>
            <stop offset="1" stop-color="#EFD3EF"/>
        </linearGradient>
        <clipPath id="clip0_1088_3558">
            <rect width="264" height="164" fill="white"/>
        </clipPath>
        <clipPath id="clip1_1088_3558">
            <rect width="150" height="150" fill="white" transform="translate(161 -57)"/>
        </clipPath>
    </defs>
</svg>
