<svg viewBox="0 0 83 108" fill="none" xmlns="http://www.w3.org/2000/svg">
<path d="M44.7777 86.3447C65.5036 93.9909 82.3053 82.2808 82.3053 60.1894C82.3053 38.098 65.5036 13.9909 44.7777 6.34468C24.0517 -1.30152 7.25 10.4086 7.25 32.5C7.25 54.5914 24.0517 78.6985 44.7777 86.3447Z" fill="#DAF727"/>
<path opacity="0.2" d="M38.5277 93.8447C59.2536 101.491 76.0553 89.7808 76.0553 67.6894C76.0553 45.598 59.2536 21.4909 38.5277 13.8447C17.8017 6.19848 1 17.9086 1 40C1 62.0914 17.8017 86.1985 38.5277 93.8447Z" fill="#E2BD23"/>
<path d="M38.5277 93.8447C59.2536 101.491 76.0553 89.7808 76.0553 67.6894C76.0553 45.598 59.2536 21.4909 38.5277 13.8447C17.8017 6.19848 1 17.9086 1 40C1 62.0914 17.8017 86.1985 38.5277 93.8447Z" fill="#5235E8" stroke="white" stroke-width="2"/>
<mask id="mask0_128_6327" style="mask-type:luminance" maskUnits="userSpaceOnUse" x="1" y="11" width="76" height="86">
<path d="M38.5277 93.8447C59.2536 101.491 76.0553 89.7808 76.0553 67.6894C76.0553 45.598 59.2536 21.4909 38.5277 13.8447C17.8017 6.19848 1 17.9086 1 40C1 62.0914 17.8017 86.1985 38.5277 93.8447Z" fill="white"/>
</mask>
<g mask="url(#mask0_128_6327)">
<path fill-rule="evenodd" clip-rule="evenodd" d="M39.1485 38.0298L28.902 34.2496V48.7551L22.6506 46.4489V51.284L28.902 53.5903V68.0958L39.1485 71.8759C44.557 73.8712 45.7224 73.6974 48.0531 73.3498C48.2341 73.3228 48.422 73.2948 48.6196 73.2667C51.3614 72.876 53.4922 71.6877 55.0119 69.7019C56.5317 67.716 57.2915 65.0308 57.2915 61.6461C57.2915 58.2615 56.5317 55.0156 55.0119 51.9084C53.4922 48.8012 51.3614 46.0408 48.6196 43.6271C45.8777 41.2134 42.7208 39.3476 39.1485 38.0298ZM36.5164 56.3994V64.4741L38.7725 65.3064C42.0627 66.5202 44.687 66.5455 46.6454 65.3823C48.6039 64.2191 49.5831 62.0258 49.5831 58.8023C49.5831 55.5789 48.6039 52.6631 46.6454 50.0549C44.687 47.4466 42.0627 45.5356 38.7725 44.3218L36.5164 43.4895V51.5642L43.8018 54.2519V59.0871L36.5164 56.3994Z" fill="white"/>
</g>
</svg>
