<svg viewBox="0 0 82 108" fill="none" xmlns="http://www.w3.org/2000/svg">
    <circle cx="40" cy="40" r="40" transform="matrix(0.938191 0.346117 0 1 6.47266 -7.5)" fill="#DAF727"/>
    <circle cx="40" cy="40" r="39" transform="matrix(0.938191 0.346117 0 1 0.222656 0)" fill="#5235E8" stroke="white" stroke-width="2"/>
    <path d="M38.5825 24.2368V24.2652C38.6091 24.417 38.6091 24.5874 38.6091 24.7578V45.2338C38.5825 45.3376 38.5026 45.3365 38.4226 45.3638C37.8631 45.4414 37.3302 45.5004 36.7707 45.5496C35.998 45.6337 35.1987 45.7364 34.426 45.8206L31.6284 46.1516C30.8557 46.2358 30.083 46.3199 29.337 46.4139C28.4311 46.5341 27.4985 46.616 26.5926 46.7362C25.82 46.8203 25.0473 46.9329 24.248 47.0072C23.6085 47.0837 22.969 47.1317 22.3562 47.2181C22.3029 47.2268 22.2496 47.2355 22.1964 47.2159C22.1697 47.2061 22.1697 47.2061 22.1431 47.1678L22.8625 46.1552C24.248 44.224 25.6068 42.3114 26.9923 40.3802C28.4577 38.308 29.9498 36.2457 31.4152 34.1736C32.7741 32.261 34.1596 30.3582 35.5184 28.4455C36.5042 27.0484 37.5167 25.6612 38.5026 24.2641C38.5292 24.2172 38.5558 24.1986 38.5558 24.1418L38.5825 24.1516C38.5558 24.1702 38.5825 24.2084 38.5825 24.2368Z" fill="white"/>
    <path d="M54.9394 59.2671L54.966 59.3054L51.0493 60.3312L38.7398 63.543C38.6865 63.5517 38.6332 63.5605 38.6065 63.579C38.5266 63.5495 38.5266 63.4643 38.5266 63.4359V63.1804V45.6295C38.5266 45.5443 38.5266 45.4307 38.5533 45.3553C38.5799 45.2516 38.6598 45.3095 38.7398 45.3673C39.0861 45.6655 39.4592 45.9735 39.8055 46.2717C40.8446 47.1663 41.8838 48.0608 42.9229 48.9269C43.8288 49.6871 44.708 50.4659 45.6139 51.2261C46.5198 51.9863 47.4257 52.7749 48.3316 53.5351C49.1043 54.1893 49.9036 54.8818 50.6763 55.5361C51.449 56.1903 52.2483 56.8828 53.021 57.537C53.6338 58.0471 54.2466 58.5856 54.8595 59.0957C54.8595 59.1809 54.8861 59.2191 54.9394 59.2671Z" fill="white"/>
    <path d="M38.58 81.2053C38.58 81.2337 38.5534 81.2523 38.5534 81.2807L38.5268 81.2708C38.5268 81.214 38.4735 81.166 38.4468 81.0994C36.7949 78.0192 35.143 74.9106 33.491 71.8304C31.8124 68.6836 30.1072 65.4986 28.4286 62.3517C26.8033 59.3098 25.1514 56.2296 23.5261 53.1876C23.0998 52.3772 22.6735 51.5951 22.2472 50.7847C22.2206 50.718 22.1939 50.6798 22.1406 50.575C22.2206 50.6044 22.2738 50.6809 22.3005 50.7191C24.6185 53.0227 26.9099 55.3164 29.228 57.6199C31.8924 60.2784 34.5301 62.9271 37.1946 65.5857L38.5534 66.9389C38.6067 67.0154 38.6067 67.0722 38.6067 67.129V80.8175C38.6067 80.9595 38.6067 81.1015 38.58 81.2053Z" fill="white"/>
    <path d="M22.114 47.214V47.1856C22.9666 47.1025 23.7926 46.9812 24.6452 46.8982C25.7376 46.7616 26.83 46.6534 27.9224 46.5169C28.7484 46.424 29.601 46.3125 30.427 46.2197C31.6526 46.0754 32.8516 45.9498 34.0772 45.8055C34.9032 45.7127 35.7292 45.6198 36.5818 45.5083C37.1679 45.4406 37.7808 45.3827 38.3669 45.3149C38.4202 45.3062 38.5001 45.3073 38.5268 45.2603C38.5534 45.2701 38.5534 45.2985 38.5268 45.3171V63.3508C38.5268 63.436 38.5001 63.5113 38.5534 63.5878C38.5001 63.6533 38.4469 63.5485 38.4202 63.5102C38.1804 63.2798 37.9406 63.0493 37.7008 62.7904C32.5585 57.6558 27.3895 52.4829 22.2472 47.3483C22.2206 47.3101 22.1673 47.262 22.114 47.214Z" fill="white"/>
    <path d="M54.8863 62.6554L54.913 62.6652C54.913 62.722 54.8597 62.7592 54.833 62.8061C49.9305 68.3529 45.028 73.9282 40.1255 79.475C39.6192 80.055 39.0863 80.6252 38.5801 81.2052C38.5535 81.167 38.5535 81.1386 38.5535 81.1102V80.9398V67.1661V66.9105C39.6725 66.6133 40.7649 66.3348 41.884 66.0376C46.2003 64.9037 50.5167 63.7981 54.8064 62.6543C54.833 62.6925 54.8597 62.674 54.8863 62.6554Z" fill="white"/>
    <path d="M38.5535 45.3269V45.2701V45.0997V24.4817C38.5535 24.3965 38.5269 24.3299 38.5802 24.2644C43.9889 35.8304 49.3977 47.368 54.7798 58.9242C54.8331 59.029 54.913 59.1721 54.9397 59.2955C54.5666 59.0159 54.2203 58.6893 53.8739 58.3912C53.4476 58.0351 52.9946 57.6408 52.5683 57.2847C52.3019 57.0444 52.0088 56.8227 51.7424 56.5824C51.2894 56.1881 50.8365 55.8222 50.3835 55.4279C50.1171 55.216 49.8506 54.9757 49.5842 54.7354L47.8257 53.2347C47.5326 52.9846 47.2395 52.7345 46.9198 52.4745L45.6409 51.4063C45.3744 51.1944 45.108 50.9541 44.8415 50.7138L43.083 49.2131C42.7899 48.963 42.4969 48.7128 42.1771 48.4529L40.8982 47.3847C40.6051 47.1346 40.3387 46.8943 40.0456 46.6442C39.5394 46.2018 39.0331 45.7594 38.5002 45.3357C38.5802 45.3367 38.5535 45.3269 38.5535 45.3269Z" fill="white"/>
</svg>
