<svg viewBox="0 0 83 108" fill="none" xmlns="http://www.w3.org/2000/svg">
    <circle cx="40" cy="40" r="40" transform="matrix(0.938191 0.346117 0 1 7.52832 -7.5)" fill="#DAF727"/>
    <circle cx="40" cy="40" r="40" transform="matrix(0.938191 0.346117 0 1 1.27832 0)" fill="#5235E8" stroke="white"
            stroke-width="2"/>
    <path fill-rule="evenodd" clip-rule="evenodd"
          d="M29.2269 40.098C30.2015 30.822 37.9578 26.1984 47.0898 29.5674C57.0212 33.2382 65.0702 44.788 65.0754 55.3756C65.0754 65.1067 58.0529 70.7833 49.0106 68.4887C48.0667 77.776 40.2797 82.3883 31.1477 79.0193C21.2163 75.3485 13.1673 63.7987 13.1621 53.2111C13.1621 43.48 20.1822 37.8025 29.2269 40.098ZM49.1333 64.14C55.1877 65.3912 59.9393 62.0795 60.8609 55.9662L49.1333 51.6397V64.14ZM17.3765 52.6205L17.3812 52.5895L29.1042 56.9143V44.414C23.0505 43.1653 18.302 46.4788 17.3812 52.5895L17.3765 52.5878V52.6205ZM44.9209 67.1107L44.9212 67.1083V67.1108L44.9209 67.1107ZM44.9209 67.1107C43.9128 74.0168 38.0501 77.2435 31.1477 74.6908C24.2458 72.1509 18.3836 64.5985 17.3765 56.949L44.9209 67.1107ZM45.0746 50.1423V62.8061L33.1629 58.4117V45.7479L45.0746 50.1423ZM33.3162 41.4784L60.8609 51.6402V51.6377C59.8539 43.9882 53.9917 36.4359 47.0898 33.8959C40.1866 31.3429 34.3233 34.5706 33.3162 41.4784Z"
          fill="white"/>
</svg>
