<svg viewBox="0 0 164 36" fill="none" xmlns="http://www.w3.org/2000/svg">
    <path d="M48.0387 24.0262C48.0387 24.812 47.8764 25.4159 47.5519 25.8377C47.2358 26.2597 46.7075 26.4706 45.967 26.4706C45.2681 26.4706 44.7731 26.2597 44.4819 25.8377C44.199 25.4159 44.0576 24.812 44.0576 24.0262V10.9108C44.0576 10.125 44.199 9.52112 44.4819 9.09925C44.7731 8.67737 45.2681 8.46643 45.967 8.46643C46.7075 8.46643 47.2358 8.67737 47.5519 9.09925C47.8764 9.52112 48.0387 10.125 48.0387 10.9108V24.0262Z"
          fill="#9C9CAB"/>
    <path d="M49.2471 20.217C49.2471 19.34 49.3885 18.5129 49.6714 17.7353C49.9626 16.9494 50.3952 16.2629 50.9693 15.6756C51.5517 15.0882 52.2755 14.6209 53.1408 14.2735C54.0144 13.926 55.0377 13.7523 56.2108 13.7523C57.334 13.7523 58.3282 13.9136 59.1935 14.2362C60.0587 14.5588 60.7867 15.0097 61.3773 15.5887C61.968 16.1594 62.4173 16.8419 62.7252 17.636C63.033 18.4218 63.187 19.2821 63.187 20.217C63.187 21.0855 63.0413 21.9085 62.7501 22.6861C62.459 23.4554 62.0221 24.1338 61.4397 24.7211C60.8574 25.3001 60.1294 25.7633 59.2559 26.1108C58.3822 26.4499 57.3672 26.6195 56.2108 26.6195C55.071 26.6195 54.0643 26.4582 53.1906 26.1356C52.3254 25.8047 51.5975 25.3538 51.0068 24.783C50.4244 24.2041 49.9834 23.5258 49.6839 22.7482C49.3926 21.9623 49.2471 21.1186 49.2471 20.217ZM53.4029 20.217C53.4029 20.7629 53.4527 21.284 53.5526 21.7803C53.6524 22.2683 53.8105 22.6985 54.0268 23.0708C54.2514 23.443 54.5427 23.7408 54.9004 23.9641C55.2582 24.1792 55.6949 24.2868 56.2108 24.2868C56.685 24.2868 57.0968 24.1876 57.4462 23.9889C57.804 23.7905 58.0952 23.5133 58.3199 23.1576C58.5528 22.802 58.7275 22.3759 58.8439 21.8796C58.9604 21.375 59.0187 20.8208 59.0187 20.217C59.0187 19.6709 58.9646 19.1539 58.8565 18.6659C58.7566 18.1696 58.5944 17.7353 58.3697 17.363C58.1451 16.9826 57.854 16.6847 57.4962 16.4697C57.1468 16.2464 56.7182 16.1347 56.2108 16.1347C55.7032 16.1347 55.2707 16.2421 54.9128 16.4573C54.5551 16.6723 54.264 16.966 54.0393 17.3382C53.8147 17.7105 53.6524 18.1447 53.5526 18.6411C53.4527 19.1374 53.4029 19.6627 53.4029 20.217Z"
          fill="#9C9CAB"/>
    <path d="M73.4307 24.0759C73.206 24.4894 72.9315 24.841 72.607 25.1305C72.2909 25.42 71.9373 25.66 71.5463 25.8502C71.1636 26.0321 70.7518 26.1686 70.3108 26.2597C69.8781 26.3424 69.4331 26.3838 68.9755 26.3838C68.21 26.3838 67.5112 26.2473 66.8788 25.9742C66.2466 25.7013 65.7016 25.3083 65.244 24.7955C64.7947 24.2744 64.4453 23.6374 64.1957 22.8847C63.9461 22.1319 63.8213 21.2716 63.8213 20.3038C63.8213 19.3938 63.9378 18.5418 64.1708 17.7477C64.4037 16.9536 64.7406 16.2629 65.1816 15.6756C65.6309 15.0882 66.18 14.625 66.829 14.2859C67.4779 13.9467 68.2184 13.7771 69.0503 13.7771C69.9988 13.7771 70.8391 13.9591 71.5712 14.323C72.3117 14.6871 72.9482 15.2826 73.4807 16.1098V15.7873C73.4807 15.1917 73.6429 14.745 73.9674 14.4471C74.3001 14.1411 74.7577 13.988 75.3402 13.988C75.6896 13.988 75.9849 14.0459 76.2262 14.1618C76.4674 14.2693 76.6588 14.4347 76.8002 14.6581C76.9417 14.8732 77.0415 15.142 77.0998 15.4647C77.1663 15.7789 77.1995 16.1388 77.1995 16.5441V24.8576C77.1995 25.8667 77.0707 26.7683 76.8128 27.5625C76.5631 28.3566 76.1721 29.0267 75.6396 29.5726C75.1072 30.1186 74.425 30.5321 73.5929 30.8135C72.761 31.1029 71.7709 31.2477 70.6228 31.2477C69.8158 31.2477 69.1003 31.2105 68.4762 31.136C67.8606 31.0699 67.3281 30.9665 66.8788 30.8259C66.4296 30.6686 66.0885 30.495 65.8555 30.3047C65.6309 30.1144 65.5186 29.8662 65.5186 29.5602C65.5186 29.3865 65.5435 29.2211 65.5934 29.0639C65.6434 28.9067 65.7183 28.7661 65.818 28.642C65.9262 28.5262 66.0635 28.4311 66.23 28.3566C66.4046 28.2905 66.6167 28.2574 66.8664 28.2574C67.1326 28.2574 67.3988 28.2739 67.6651 28.307C67.9396 28.3401 68.2226 28.3732 68.5137 28.4062C68.8132 28.4476 69.1252 28.4848 69.4497 28.5179C69.7825 28.551 70.1402 28.5676 70.5229 28.5676C70.9805 28.5676 71.3882 28.5221 71.746 28.4311C72.1037 28.3401 72.4073 28.1788 72.657 27.9471C72.9066 27.7156 73.0979 27.4053 73.2311 27.0165C73.3642 26.636 73.4307 26.148 73.4307 25.5524V24.0759ZM73.4307 20.217C73.4307 19.613 73.3849 19.063 73.2935 18.5667C73.2103 18.0703 73.0646 17.6485 72.8566 17.301C72.6486 16.9453 72.3699 16.6723 72.0205 16.4821C71.671 16.2835 71.2343 16.1843 70.7101 16.1843C70.1943 16.1843 69.7659 16.2877 69.4248 16.4945C69.092 16.7013 68.8257 16.9867 68.6261 17.3506C68.4264 17.7147 68.285 18.1406 68.2017 18.6287C68.1268 19.1167 68.0894 19.6379 68.0894 20.1921C68.0894 21.4577 68.314 22.4091 68.7633 23.0459C69.2125 23.6829 69.8657 24.0014 70.7226 24.0014C71.122 23.9932 71.4839 23.9186 71.8083 23.778C72.1411 23.6291 72.4282 23.4017 72.6694 23.0956C72.9107 22.7895 73.0979 22.4007 73.2311 21.9292C73.3642 21.4577 73.4307 20.887 73.4307 20.217Z"
          fill="#9C9CAB"/>
    <path d="M78.3457 20.217C78.3457 19.34 78.4871 18.5129 78.77 17.7353C79.0612 16.9494 79.4938 16.2629 80.0679 15.6756C80.6503 15.0882 81.3741 14.6209 82.2393 14.2735C83.113 13.926 84.1363 13.7523 85.3094 13.7523C86.4325 13.7523 87.4267 13.9136 88.292 14.2362C89.1572 14.5588 89.8852 15.0097 90.4759 15.5887C91.0667 16.1594 91.516 16.8419 91.8237 17.636C92.1316 18.4218 92.2855 19.2821 92.2855 20.217C92.2855 21.0855 92.1399 21.9085 91.8488 22.6861C91.5575 23.4554 91.1208 24.1338 90.5384 24.7211C89.9559 25.3001 89.228 25.7633 88.3544 26.1108C87.4808 26.4499 86.4658 26.6195 85.3094 26.6195C84.1695 26.6195 83.1628 26.4582 82.2893 26.1356C81.424 25.8047 80.696 25.3538 80.1053 24.783C79.523 24.2041 79.082 23.5258 78.7824 22.7482C78.4913 21.9623 78.3457 21.1186 78.3457 20.217ZM82.5014 20.217C82.5014 20.7629 82.5513 21.284 82.6512 21.7803C82.751 22.2683 82.9091 22.6985 83.1254 23.0708C83.35 23.443 83.6412 23.7408 83.999 23.9641C84.3567 24.1792 84.7936 24.2868 85.3094 24.2868C85.7836 24.2868 86.1954 24.1876 86.5448 23.9889C86.9026 23.7905 87.1938 23.5133 87.4184 23.1576C87.6514 22.802 87.8261 22.3759 87.9426 21.8796C88.0591 21.375 88.1173 20.8208 88.1173 20.217C88.1173 19.6709 88.0632 19.1539 87.955 18.6659C87.8553 18.1696 87.693 17.7353 87.4684 17.363C87.2438 16.9826 86.9525 16.6847 86.5948 16.4697C86.2454 16.2464 85.8169 16.1347 85.3094 16.1347C84.8019 16.1347 84.3692 16.2421 84.0115 16.4573C83.6538 16.6723 83.3625 16.966 83.1379 17.3382C82.9133 17.7105 82.751 18.1447 82.6512 18.6411C82.5513 19.1374 82.5014 19.6627 82.5014 20.217Z"
          fill="#9C9CAB"/>
    <path d="M97.6373 9.57076C97.6373 9.84375 97.5749 10.0878 97.4501 10.3028C97.3253 10.5096 97.1631 10.6833 96.9635 10.824C96.7638 10.9646 96.5308 11.0721 96.2645 11.1465C96.0067 11.2127 95.7405 11.2459 95.4658 11.2459C95.1747 11.2459 94.896 11.2086 94.6298 11.1342C94.3718 11.0597 94.1431 10.9523 93.9434 10.8115C93.7437 10.6627 93.5856 10.4848 93.4691 10.278C93.3527 10.0712 93.2944 9.83547 93.2944 9.57076C93.2944 9.33087 93.3485 9.11167 93.4566 8.91314C93.5731 8.70634 93.727 8.52849 93.9184 8.37959C94.1098 8.23069 94.3386 8.11488 94.6048 8.03216C94.8711 7.94944 95.1622 7.90808 95.4784 7.90808C95.7529 7.90808 96.0192 7.94531 96.2771 8.01976C96.5433 8.0942 96.7762 8.20174 96.9759 8.34237C97.1756 8.48299 97.3337 8.6567 97.4501 8.8635C97.5749 9.07031 97.6373 9.30606 97.6373 9.57076ZM97.4501 24.0262C97.4501 24.812 97.2879 25.4159 96.9635 25.8377C96.6473 26.2597 96.119 26.4706 95.3785 26.4706C94.6797 26.4706 94.1846 26.2597 93.8935 25.8377C93.6106 25.4159 93.4691 24.812 93.4691 24.0262V16.4324C93.4691 15.6465 93.6106 15.0427 93.8935 14.6209C94.1846 14.199 94.6797 13.988 95.3785 13.988C96.119 13.988 96.6473 14.199 96.9635 14.6209C97.2879 15.0427 97.4501 15.6465 97.4501 16.4324V24.0262Z"
          fill="#9C9CAB"/>
    <path d="M103.189 20.1921C103.189 20.7464 103.23 21.2633 103.314 21.7432C103.405 22.2229 103.555 22.6447 103.763 23.0088C103.979 23.3644 104.262 23.6457 104.611 23.8524C104.969 24.0593 105.41 24.1627 105.934 24.1627C106.417 24.1627 106.82 24.0635 107.145 23.8649C107.477 23.6581 107.744 23.3768 107.944 23.0212C108.143 22.6571 108.285 22.2312 108.368 21.7432C108.459 21.255 108.505 20.7256 108.505 20.1549C108.505 19.6999 108.472 19.2367 108.405 18.7652C108.339 18.2854 108.214 17.8511 108.031 17.4623C107.848 17.0735 107.595 16.755 107.27 16.5069C106.945 16.2588 106.521 16.1347 105.997 16.1347C105.473 16.1347 105.027 16.2174 104.661 16.3829C104.304 16.5483 104.012 16.8006 103.788 17.1397C103.571 17.4789 103.418 17.9049 103.326 18.4177C103.235 18.9223 103.189 19.5138 103.189 20.1921ZM103.176 16.4324C103.384 15.9941 103.651 15.6094 103.975 15.2785C104.299 14.9476 104.657 14.6705 105.048 14.4471C105.439 14.2238 105.847 14.0583 106.271 13.9509C106.704 13.835 107.132 13.7771 107.556 13.7771C108.322 13.7771 109.013 13.9467 109.629 14.2859C110.244 14.625 110.768 15.0882 111.2 15.6756C111.641 16.2546 111.979 16.9412 112.212 17.7353C112.444 18.5212 112.561 19.3649 112.561 20.2665C112.561 21.2013 112.436 22.0574 112.187 22.835C111.946 23.6126 111.6 24.2826 111.15 24.8451C110.71 25.3994 110.177 25.8336 109.553 26.148C108.937 26.4623 108.252 26.6195 107.494 26.6195C106.563 26.6195 105.731 26.4044 104.998 25.9742C104.266 25.5441 103.659 24.9403 103.176 24.1627V28.6296C103.176 29.4154 103.014 30.0193 102.69 30.4412C102.373 30.863 101.845 31.074 101.105 31.074C100.406 31.074 99.9107 30.863 99.6196 30.4412C99.3367 30.0193 99.1953 29.4154 99.1953 28.6296V16.4324C99.1953 15.6466 99.3367 15.0427 99.6196 14.6209C99.9107 14.199 100.406 13.988 101.105 13.988C101.845 13.988 102.373 14.199 102.69 14.6209C103.014 15.0427 103.176 15.6466 103.176 16.4324Z"
          fill="#9C9CAB"/>
    <path d="M116.952 17.3135C116.952 17.636 117.094 17.8883 117.376 18.0703C117.659 18.2441 118.05 18.3888 118.55 18.5046C119.024 18.6121 119.51 18.7156 120.01 18.8148C120.509 18.9141 120.996 19.0299 121.47 19.1623C121.944 19.2863 122.389 19.4352 122.805 19.6089C123.22 19.7826 123.587 20.0018 123.903 20.2665C124.219 20.523 124.469 20.8373 124.652 21.2095C124.835 21.5735 124.926 22.012 124.926 22.5248C124.926 23.17 124.793 23.745 124.527 24.2495C124.261 24.7459 123.883 25.1677 123.392 25.5152C122.909 25.8626 122.331 26.1314 121.657 26.3217C120.983 26.512 120.239 26.6112 119.423 26.6195C118.65 26.6195 117.904 26.5699 117.189 26.4706C116.474 26.3796 115.837 26.2348 115.279 26.0363C114.731 25.8377 114.29 25.5938 113.957 25.3042C113.624 25.0064 113.458 24.659 113.458 24.262C113.458 23.9145 113.57 23.6456 113.795 23.4554C114.019 23.2652 114.306 23.17 114.656 23.17C114.789 23.17 114.947 23.1948 115.13 23.2445C115.313 23.2941 115.512 23.3562 115.729 23.4306C115.945 23.505 116.174 23.5877 116.416 23.6788C116.665 23.7615 116.922 23.8359 117.189 23.9021C117.522 23.9932 117.863 24.0676 118.212 24.1255C118.57 24.1751 118.936 24.1999 119.311 24.1999C119.543 24.1999 119.772 24.1792 119.997 24.1379C120.222 24.0882 120.422 24.0179 120.596 23.927C120.78 23.8277 120.929 23.7036 121.046 23.5547C121.162 23.4058 121.232 23.2238 121.258 23.0088C121.282 22.9591 121.304 22.9094 121.32 22.8598C121.337 22.8102 121.345 22.7523 121.345 22.6861C121.345 22.4545 121.236 22.2477 121.02 22.0657C120.813 21.8838 120.517 21.7389 120.134 21.6314C119.493 21.4826 118.882 21.3461 118.299 21.222C117.718 21.0979 117.177 20.9656 116.677 20.8249C116.187 20.6843 115.737 20.523 115.329 20.341C114.93 20.159 114.589 19.9356 114.306 19.6709C114.032 19.4062 113.815 19.0877 113.657 18.7156C113.507 18.3433 113.433 17.8924 113.433 17.363C113.433 16.7923 113.561 16.2835 113.819 15.8368C114.085 15.3818 114.465 15.0014 114.955 14.6953C115.446 14.3892 116.041 14.1576 116.74 14.0005C117.439 13.835 118.229 13.7523 119.111 13.7523C120.691 13.7523 121.894 13.9426 122.718 14.323C123.55 14.6953 123.966 15.1833 123.966 15.7873C123.966 16.1264 123.853 16.387 123.628 16.5689C123.404 16.7426 123.133 16.8295 122.818 16.8295C122.651 16.8295 122.476 16.8006 122.293 16.7426C122.118 16.6765 121.906 16.6062 121.657 16.5317C121.407 16.449 121.108 16.3787 120.758 16.3208C120.418 16.2546 119.993 16.2215 119.486 16.2215C119.102 16.2215 118.753 16.238 118.437 16.2712C118.129 16.3042 117.863 16.3621 117.638 16.4448C117.422 16.5276 117.251 16.6392 117.127 16.7799C117.01 16.9205 116.952 17.0983 116.952 17.3135Z"
          fill="#9C9CAB"/>
    <path d="M129.991 21.8672C129.991 22.256 130.042 22.5951 130.142 22.8847C130.249 23.1742 130.395 23.4182 130.578 23.6168C130.761 23.807 130.973 23.9518 131.214 24.051C131.464 24.142 131.731 24.1876 132.013 24.1876C132.346 24.1876 132.667 24.1379 132.974 24.0386C133.282 23.9394 133.553 23.7863 133.786 23.5795C134.027 23.3727 134.218 23.1121 134.36 22.7978C134.5 22.4835 134.572 22.1154 134.572 21.6935V16.4324C134.572 15.6466 134.713 15.0427 134.996 14.6209C135.287 14.1991 135.783 13.988 136.481 13.988C137.221 13.988 137.75 14.1991 138.066 14.6209C138.391 15.0427 138.552 15.6466 138.552 16.4324V24.0262C138.552 24.8121 138.391 25.4159 138.066 25.8378C137.75 26.2597 137.221 26.4706 136.481 26.4706C135.783 26.4706 135.287 26.2597 134.996 25.8378C134.713 25.4159 134.572 24.8121 134.572 24.0262C134.397 24.4068 134.168 24.7542 133.885 25.0685C133.61 25.3829 133.286 25.6558 132.912 25.8874C132.545 26.1108 132.138 26.2845 131.689 26.4086C131.248 26.5327 130.769 26.5947 130.253 26.5947C129.696 26.5947 129.16 26.4995 128.643 26.3094C128.136 26.1108 127.687 25.8212 127.296 25.4407C126.905 25.052 126.593 24.5721 126.36 24.0014C126.127 23.4306 126.011 22.7647 126.011 22.0036V16.4324C126.011 15.6466 126.152 15.0427 126.435 14.6209C126.726 14.1991 127.221 13.988 127.92 13.988C128.66 13.988 129.189 14.1991 129.505 14.6209C129.83 15.0427 129.991 15.6466 129.991 16.4324V21.8672Z"
          fill="#9C9CAB"/>
    <path d="M140.359 16.4324C140.359 15.6466 140.501 15.0427 140.784 14.6209C141.075 14.199 141.57 13.988 142.269 13.988C143.01 13.988 143.538 14.199 143.854 14.6209C144.178 15.0427 144.341 15.6466 144.341 16.4324C144.507 16.0354 144.732 15.6756 145.015 15.3529C145.306 15.0221 145.635 14.7408 146 14.5092C146.375 14.2776 146.779 14.0997 147.211 13.9756C147.644 13.8433 148.093 13.7771 148.559 13.7771C148.992 13.7771 149.416 13.835 149.832 13.9509C150.256 14.0583 150.648 14.2362 151.006 14.4844C151.371 14.7242 151.691 15.0303 151.966 15.4026C152.241 15.7748 152.453 16.2215 152.603 16.7427C152.861 16.1885 153.164 15.7211 153.513 15.3406C153.863 14.96 154.242 14.6539 154.649 14.4223C155.057 14.1907 155.481 14.0253 155.922 13.926C156.372 13.8268 156.82 13.7771 157.269 13.7771C157.802 13.7771 158.31 13.8723 158.792 14.0625C159.283 14.2527 159.711 14.5423 160.078 14.9311C160.453 15.3115 160.748 15.7955 160.964 16.3829C161.188 16.9618 161.3 17.6402 161.3 18.4177V24.0262C161.3 24.8121 161.138 25.4159 160.814 25.8377C160.498 26.2597 159.969 26.4706 159.229 26.4706C158.53 26.4706 158.035 26.2597 157.744 25.8377C157.461 25.4159 157.32 24.8121 157.32 24.0262V18.5915C157.32 18.2192 157.269 17.8883 157.17 17.5988C157.07 17.301 156.929 17.0529 156.746 16.8544C156.571 16.6476 156.363 16.4945 156.121 16.3953C155.881 16.2877 155.622 16.2339 155.348 16.2339C155.007 16.2339 154.683 16.2877 154.375 16.3953C154.067 16.5027 153.797 16.6682 153.564 16.8915C153.339 17.1149 153.156 17.4003 153.014 17.7477C152.881 18.0951 152.815 18.5129 152.815 19.0009V24.0262C152.815 24.8121 152.652 25.4159 152.328 25.8377C152.012 26.2597 151.484 26.4706 150.742 26.4706C150.044 26.4706 149.549 26.2597 149.258 25.8377C148.975 25.4159 148.833 24.8121 148.833 24.0262V18.8272C148.833 17.9752 148.654 17.33 148.297 16.8915C147.947 16.4532 147.469 16.2339 146.862 16.2339C146.504 16.2339 146.171 16.2918 145.863 16.4076C145.555 16.5235 145.289 16.693 145.064 16.9164C144.84 17.1397 144.661 17.4168 144.528 17.7477C144.403 18.0786 144.341 18.4591 144.341 18.8892V24.0262C144.341 24.8121 144.178 25.4159 143.854 25.8377C143.538 26.2597 143.01 26.4706 142.269 26.4706C141.57 26.4706 141.075 26.2597 140.784 25.8377C140.501 25.4159 140.359 24.8121 140.359 24.0262V16.4324Z"
          fill="#9C9CAB"/>
    <path d="M18.1045 24.353C14.5756 24.353 11.7148 21.5087 11.7148 18C11.7148 14.4914 14.5756 11.6471 18.1045 11.6471C21.6333 11.6471 24.4941 14.4914 24.4941 18C24.4941 21.5087 21.6333 24.353 18.1045 24.353Z"
          fill="#9C9CAB"/>
    <path d="M5.72516 20.1702C3.8735 20.4948 2.60429 22.2732 3.31508 24.004C4.30743 26.4202 5.8906 28.573 7.94306 30.2553C10.8779 32.6606 14.5796 33.9459 18.3825 33.8799C22.1854 33.814 25.8398 32.401 28.6885 29.8952C30.6806 28.1428 32.1873 25.9363 33.0943 23.4872C33.7439 21.7328 32.4129 19.9995 30.551 19.7393C28.6892 19.4792 27.0174 20.8267 26.0978 22.4572C25.5993 23.341 24.9521 24.1429 24.1768 24.8249C22.5424 26.2627 20.4456 27.0733 18.2638 27.1112C16.0818 27.149 13.9579 26.4116 12.2741 25.0315C11.4752 24.3768 10.8004 23.5979 10.2711 22.7319C9.29482 21.1342 7.57681 19.8455 5.72516 20.1702Z"
          fill="#9C9CAB"/>
    <path d="M33.9539 19.9848C34.0355 19.3346 34.0774 18.6722 34.0774 18C34.0774 9.22845 26.9257 2.11768 18.1034 2.11768C9.28121 2.11768 2.12939 9.22845 2.12939 18C2.12939 18.8627 2.19856 19.7092 2.33169 20.5345C3.06541 19.5359 4.21055 18.8229 5.44748 18.6061C6.78577 18.3715 8.00206 18.6942 9.03046 19.2974C8.96971 18.8737 8.93827 18.4405 8.93827 18C8.93827 12.9673 13.0417 8.88748 18.1034 8.88748C23.1652 8.88748 27.2686 12.9673 27.2686 18C27.2686 18.3319 27.2507 18.6596 27.216 18.9822C28.2226 18.3434 29.4271 17.9784 30.7731 18.1666C32.0165 18.3403 33.1856 19.0127 33.9539 19.9848Z"
          fill="#9C9CAB"/>
</svg>
