<svg viewBox="0 0 32 25" fill="none" xmlns="http://www.w3.org/2000/svg">
    <path d="M16.0002 1C20.3471 1 24.2567 2.00879 27.0611 3.61273C29.8834 5.22689 31.4788 7.37063 31.4788 9.61309C31.4788 11.8555 29.8834 13.9993 27.0611 15.6135C24.2567 17.2174 20.3471 18.2262 16.0002 18.2262C11.6534 18.2262 7.74378 17.2174 4.93938 15.6135C2.11706 13.9993 0.521729 11.8555 0.521729 9.61309C0.521729 7.37063 2.11706 5.22689 4.93938 3.61273C7.74378 2.00879 11.6534 1 16.0002 1Z" fill="url(#paint0_linear_77_912)" stroke="url(#paint1_linear_77_912)"/>
    <path fill-rule="evenodd" clip-rule="evenodd" d="M0.00313573 12.6636H0V15.6541C1.73916e-06 16.8816 0.41385 18.0968 1.21793 19.2308C2.022 20.3646 3.20054 21.3948 4.68629 22.2627C6.17201 23.1305 7.93583 23.8189 9.87705 24.2887C11.8182 24.7584 13.8988 25 16 25C18.1012 25 20.1817 24.7584 22.123 24.2887C24.064 23.8189 25.8279 23.1305 27.3137 22.2627C28.7994 21.3948 29.9779 20.3646 30.7821 19.2308C31.5861 18.0968 32 16.8816 32 15.6541V12.6636H31.9969C31.8264 17.7387 24.7296 21.42 16 21.42C7.27034 21.42 0.173594 17.7387 0.00313573 12.6636Z" fill="#DAF727"/>
    <g opacity="0.8" filter="url(#filter0_f_77_912)">
        <path d="M14.8864 14.1451L15.3088 15.0554C15.3555 15.156 15.4795 15.221 15.5857 15.2007L16.3553 15.0536C16.4062 15.0439 16.4462 15.0153 16.4666 14.9742C16.4867 14.9332 16.4855 14.8829 16.4631 14.8346L16.0406 13.9243L16.4255 13.8508L16.8478 14.7611C16.8946 14.8616 17.0186 14.9267 17.1247 14.9064L17.8942 14.7593C17.9452 14.7496 17.9854 14.7211 18.0055 14.68C18.0257 14.6389 18.0245 14.5886 18.0021 14.5404L17.5798 13.6301L17.6443 13.6177C19.1772 13.3245 19.924 12.3626 19.3202 11.0611C18.8125 9.96712 17.7603 9.51734 16.8135 9.60562L16.7838 9.54152C17.4483 9.22253 17.7497 8.58447 17.3387 7.69883C16.8212 6.58302 15.6219 6.0749 14.2714 6.33315L14.2006 6.34668L13.7782 5.43628C13.7558 5.38797 13.7141 5.34553 13.6621 5.3183C13.6102 5.29104 13.5524 5.28122 13.5014 5.29097L12.7319 5.43812C12.6808 5.44789 12.6408 5.47642 12.6206 5.51747C12.6003 5.55851 12.6015 5.6087 12.624 5.65699L13.0463 6.56741L12.6054 6.65173L12.183 5.74131C12.1606 5.69302 12.1189 5.65058 12.0669 5.62334C12.015 5.59609 11.9572 5.58627 11.9062 5.59601L11.1928 5.73242C11.1418 5.74218 11.1018 5.77073 11.0815 5.81177C11.0613 5.85281 11.0625 5.903 11.0849 5.9513L11.5073 6.86171L9.97353 7.16374C9.92251 7.17348 9.88247 7.20203 9.86224 7.24307C9.842 7.28412 9.84323 7.33431 9.86563 7.3826L10.1998 8.10292C10.2461 8.20269 10.3689 8.26881 10.4751 8.2485L11.0544 8.13377C11.2073 8.10558 11.38 8.13567 11.5349 8.21748C11.6898 8.29928 11.8142 8.42615 11.8812 8.57038L13.7414 12.5798C13.8086 12.7248 13.8123 12.8753 13.7515 12.9984C13.6908 13.1215 13.5707 13.2071 13.4177 13.2364L12.8458 13.3546C12.7948 13.3643 12.7547 13.3928 12.7345 13.4339C12.7143 13.4749 12.7155 13.5251 12.7379 13.5734L13.0758 14.3017C13.1224 14.4022 13.2465 14.4673 13.3527 14.4471L14.8864 14.1451ZM13.1079 7.73475L14.4307 7.48179C15.1279 7.34849 15.7055 7.6329 15.9806 8.22577C16.2749 8.86014 15.9984 9.30237 14.9964 9.49396L14.0115 9.68231L13.1079 7.73475ZM14.4768 10.6852L15.8927 10.4145C16.7676 10.2472 17.44 10.5785 17.7589 11.266C18.081 11.9601 17.7671 12.4142 16.5883 12.6397L15.4817 12.8513L14.4771 10.686L14.4768 10.6852Z" fill="#5235E8" fill-opacity="0.64"/>
    </g>
    <path d="M11.3822 7.25275L11.3828 7.25265L11.9615 7.13802C12.0915 7.11419 12.2384 7.13985 12.3702 7.20944C12.5021 7.27911 12.6082 7.38719 12.6652 7.51005L14.5254 11.5195C14.5826 11.6429 14.5858 11.7712 14.534 11.8761C14.4823 11.981 14.38 12.0539 14.2496 12.0788L14.2484 12.0791L13.6778 12.1969C13.6775 12.197 13.6773 12.197 13.6771 12.1971C13.6037 12.2113 13.5461 12.2525 13.517 12.3115C13.4878 12.3708 13.4895 12.4433 13.5219 12.5131L13.8598 13.2414C13.9272 13.3867 14.1063 13.4806 14.2597 13.4513L14.2602 13.4511L15.7082 13.166L16.0929 13.9952C16.1602 14.1404 16.3394 14.2344 16.4927 14.2049L17.2623 14.0578C17.3359 14.0438 17.3938 14.0025 17.423 13.9431C17.4522 13.8839 17.4505 13.8114 17.4182 13.7416L17.0333 12.9123L17.247 12.8714L17.6319 13.7007C17.6992 13.8461 17.8783 13.9401 18.0317 13.9107L18.8013 13.7635C18.875 13.7494 18.9328 13.7083 18.962 13.6489C18.9912 13.5897 18.9895 13.5172 18.9571 13.4474L18.5723 12.6178C19.3422 12.4669 19.9234 12.1476 20.2356 11.6939C20.5523 11.2342 20.5881 10.6425 20.2751 9.96805C20.0125 9.40184 19.6053 8.99638 19.1359 8.74502C18.7443 8.53542 18.3147 8.43581 17.8975 8.43558C18.1477 8.27536 18.3323 8.06045 18.4241 7.79466C18.5375 7.46584 18.5069 7.06517 18.2938 6.60579C18.0248 6.02596 17.575 5.59832 17.0129 5.35147C16.4573 5.10741 15.8023 5.04457 15.1181 5.17276L14.7332 4.34324C14.7009 4.27349 14.6406 4.21219 14.5656 4.17284C14.4906 4.13347 14.407 4.11928 14.3333 4.13336L13.5638 4.28052C13.4901 4.29461 13.4323 4.33584 13.4031 4.39513C13.3738 4.45442 13.3756 4.52691 13.4079 4.59668L13.7928 5.42615L13.5229 5.47778L13.138 4.64828C13.1057 4.57853 13.0454 4.51724 12.9704 4.47787C12.8953 4.43852 12.8118 4.42432 12.7381 4.43841L12.0248 4.57482C11.9511 4.58892 11.8933 4.63014 11.864 4.68943C11.8348 4.74871 11.8366 4.82123 11.8689 4.89097L12.254 5.7209L10.8055 6.00614L10.843 6.08706L10.805 6.00622L10.8052 6.00617C10.7317 6.02031 10.6739 6.06151 10.6447 6.12074C10.6155 6.18003 10.6173 6.25252 10.6496 6.32227L10.9838 7.04259C11.0504 7.186 11.2277 7.28231 11.3822 7.25275ZM14.9289 8.50836L14.1004 6.72265L15.3377 6.48604C15.6712 6.42229 15.9652 6.46037 16.2032 6.57544C16.4401 6.68991 16.6355 6.88729 16.7646 7.16544C16.9027 7.46316 16.9028 7.70421 16.7627 7.89452C16.6194 8.08894 16.3211 8.24215 15.8284 8.33635L14.9289 8.50836ZM15.4693 9.67312L16.7997 9.41871C17.2235 9.33768 17.5862 9.3797 17.8752 9.51443C18.1623 9.64823 18.3921 9.88041 18.5429 10.2057C18.6947 10.5329 18.6923 10.7904 18.5262 10.995C18.3556 11.2051 18.0036 11.3705 17.4202 11.4821L16.3992 11.6773L15.4693 9.67312Z" fill="white" stroke="#8D79F1" stroke-width="0.25"/>
    <defs>
        <filter id="filter0_f_77_912" x="5.8479" y="1.28729" width="17.6816" height="17.9171" filterUnits="userSpaceOnUse" color-interpolation-filters="sRGB">
            <feFlood flood-opacity="0" result="BackgroundImageFix"/>
            <feBlend mode="normal" in="SourceGraphic" in2="BackgroundImageFix" result="shape"/>
            <feGaussianBlur stdDeviation="2" result="effect1_foregroundBlur_77_912"/>
        </filter>
        <linearGradient id="paint0_linear_77_912" x1="32.4659" y1="1.65136" x2="-0.359438" y2="13.2643" gradientUnits="userSpaceOnUse">
            <stop stop-color="#5235E8"/>
            <stop offset="1" stop-color="#816CEF"/>
        </linearGradient>
        <linearGradient id="paint1_linear_77_912" x1="7.15646" y1="0.461682" x2="27.5474" y2="15.0893" gradientUnits="userSpaceOnUse">
            <stop stop-color="#B0A3F5"/>
            <stop offset="1" stop-color="#917FF1"/>
        </linearGradient>
    </defs>
</svg>
