<svg viewBox="0 0 174 32" fill="none" xmlns="http://www.w3.org/2000/svg">
    <g clip-path="url(#clip0_128_7444)">
        <path d="M97.6594 23.6191H101.381V9.54817H97.6594V23.6191ZM97.6594 7.35392H101.381V4.00763H97.6594V7.35392Z"
              fill="#9C9CAB"/>
        <path d="M103.78 28.2271H107.502V22.0282H107.556C108.349 23.2351 109.636 24.0305 111.606 24.0305C115.218 24.0305 117.681 21.1505 117.681 16.5974C117.681 12.2087 115.301 9.16418 111.579 9.16418C109.663 9.16418 108.349 10.0694 107.447 11.3036H107.364V9.54818H103.78V28.2271ZM110.812 20.9311C108.596 20.9311 107.419 19.2579 107.419 16.7071C107.419 14.1836 108.349 12.1814 110.676 12.1814C112.975 12.1814 113.905 14.0465 113.905 16.7071C113.905 19.3676 112.701 20.9311 110.812 20.9311Z"
              fill="#9C9CAB"/>
        <path d="M125.105 24.0305C128.608 24.0305 131.016 22.3299 131.016 19.5047C131.016 16.2134 128.417 15.5551 126.063 15.0614C124.065 14.6499 122.205 14.5402 122.205 13.3334C122.205 12.3185 123.162 11.7699 124.613 11.7699C126.2 11.7699 127.158 12.3185 127.322 13.8271H130.688C130.415 11.0019 128.362 9.16418 124.668 9.16418C121.466 9.16418 118.948 10.6179 118.948 13.6625C118.948 16.7345 121.411 17.4202 123.929 17.9139C125.844 18.2979 127.623 18.4351 127.623 19.7791C127.623 20.7665 126.693 21.3974 125.051 21.3974C123.381 21.3974 122.232 20.6842 121.986 19.0659H118.538C118.757 22.0556 121.028 24.0305 125.105 24.0305Z"
              fill="#9C9CAB"/>
        <path d="M145.146 23.619V9.54816H141.425V17.667C141.425 19.5322 140.357 20.8487 138.606 20.8487C137.019 20.8487 136.28 19.9436 136.28 18.2979V9.54816H132.586V18.9287C132.586 22.0007 134.337 24.003 137.457 24.003C139.428 24.003 140.522 23.2625 141.48 21.9734H141.562V23.619H145.146Z"
              fill="#9C9CAB"/>
        <path d="M147.554 23.6191H151.276V15.4454C151.276 13.5802 152.288 12.3734 153.794 12.3734C155.162 12.3734 155.955 13.1962 155.955 14.7871V23.6191H159.677V15.4454C159.677 13.5802 160.635 12.3734 162.194 12.3734C163.563 12.3734 164.357 13.1962 164.357 14.7871V23.6191H168.079V14.1562C168.079 11.0842 166.409 9.16418 163.453 9.16418C161.675 9.16418 160.197 10.0967 159.239 11.6327H159.185C158.501 10.1516 157.077 9.16418 155.298 9.16418C153.356 9.16418 151.988 10.1516 151.221 11.4407H151.139V9.54818H147.554V23.6191Z"
              fill="#9C9CAB"/>
        <path d="M0.657715 23.6191H4.37944V4.00763H0.657715V23.6191Z" fill="#9C9CAB"/>
        <path d="M13.4798 24.0305C17.8309 24.0305 20.8137 20.7939 20.8137 16.5974C20.8137 12.4007 17.8309 9.16418 13.4798 9.16418C9.12859 9.16418 6.14575 12.4007 6.14575 16.5974C6.14575 20.7939 9.12859 24.0305 13.4798 24.0305ZM13.4798 21.1779C11.1811 21.1779 9.92221 19.3402 9.92221 16.5974C9.92221 13.8545 11.1811 11.9894 13.4798 11.9894C15.7511 11.9894 17.0373 13.8545 17.0373 16.5974C17.0373 19.3402 15.7511 21.1779 13.4798 21.1779Z"
              fill="#9C9CAB"/>
        <path d="M28.7284 28.4191C30.8082 28.4191 32.6143 27.9254 33.791 26.8282C34.8309 25.8682 35.4604 24.5242 35.4604 22.5494V9.54818H31.8755V11.0294H31.8207C30.9723 9.84994 29.6862 9.16418 27.9348 9.16418C24.3773 9.16418 21.8596 11.8522 21.8596 16.0487C21.8596 20.3002 24.9246 22.7687 28.0443 22.7687C29.823 22.7687 30.8903 22.0556 31.7112 21.1231H31.7933V22.6591C31.7933 24.5791 30.7808 25.5939 28.6736 25.5939C26.9496 25.5939 26.156 24.9082 25.855 24.0305H22.1606C22.5437 26.7734 24.8972 28.4191 28.7284 28.4191ZM28.6736 19.7791C26.758 19.7791 25.4993 18.3802 25.4993 15.9939C25.4993 13.6351 26.758 12.1539 28.6463 12.1539C30.8903 12.1539 31.9849 13.9094 31.9849 15.9665C31.9849 18.0511 31.0271 19.7791 28.6736 19.7791Z"
              fill="#9C9CAB"/>
        <path d="M44.5066 24.0305C48.8577 24.0305 51.8406 20.7939 51.8406 16.5974C51.8406 12.4007 48.8577 9.16418 44.5066 9.16418C40.1555 9.16418 37.1726 12.4007 37.1726 16.5974C37.1726 20.7939 40.1555 24.0305 44.5066 24.0305ZM44.5066 21.1779C42.2079 21.1779 40.9491 19.3402 40.9491 16.5974C40.9491 13.8545 42.2079 11.9894 44.5066 11.9894C46.778 11.9894 48.0642 13.8545 48.0642 16.5974C48.0642 19.3402 46.778 21.1779 44.5066 21.1779Z"
              fill="#9C9CAB"/>
        <path d="M169.43 7.23807C169.43 6.60689 169.941 6.09521 170.571 6.09521H172.851C173.481 6.09521 173.992 6.60689 173.992 7.23807C173.992 7.86925 173.481 8.38093 172.851 8.38093H170.571C169.941 8.38093 169.43 7.86925 169.43 7.23807Z"
              fill="#9C9CAB"/>
        <path fill-rule="evenodd" clip-rule="evenodd"
              d="M74.4111 0C83.227 0 90.3746 7.16345 90.3746 16C90.3746 24.8366 83.227 32 74.4111 32C65.5948 32 58.4478 24.8366 58.4478 16C58.4478 7.16345 65.5948 0 74.4111 0ZM73.8341 1.19727C72.0129 1.45415 70.2788 2.92086 68.9327 5.37392C68.5422 6.08546 68.1899 6.87157 67.8829 7.72035C69.7133 7.25934 71.724 6.98754 73.8341 6.9455V1.19727ZM66.5337 8.10464C66.9156 6.90366 67.3826 5.79872 67.9216 4.81652C68.5888 3.60047 69.3808 2.55036 70.273 1.74382C65.4211 3.15618 61.5967 6.98943 60.1875 11.8526C60.9922 10.9582 62.0399 10.1645 63.2532 9.49568C64.2332 8.95544 65.3355 8.48728 66.5337 8.10464ZM66.1504 9.45688C65.6904 11.2914 65.4192 13.3067 65.3773 15.4217H59.6422C59.8985 13.5963 61.3619 11.8582 63.8093 10.5091C64.5192 10.1178 65.3035 9.76464 66.1504 9.45688ZM66.5315 15.4217C66.5791 13.1136 66.9107 10.9467 67.4592 9.03216C69.3694 8.4824 71.5313 8.15008 73.8341 8.10232V10.6006C72.975 12.805 71.2229 14.561 69.0235 15.4217H66.5315ZM65.3773 16.5783H59.6422C59.8985 18.4037 61.3619 20.1417 63.8093 21.4909C64.5192 21.8822 65.3035 22.2354 66.1504 22.5431C65.6904 20.7086 65.4192 18.6933 65.3773 16.5783ZM67.4592 22.9678C66.9107 21.0533 66.5791 18.8864 66.5315 16.5783H69.0235C71.2229 17.439 72.975 19.195 73.8341 21.3994V23.8977C71.5313 23.8499 69.3694 23.5176 67.4592 22.9678ZM66.5337 23.8954C65.3355 23.5127 64.2332 23.0446 63.2532 22.5043C62.0399 21.8355 60.9922 21.0418 60.1875 20.1474C61.5967 25.0106 65.4211 28.8438 70.273 30.2562C69.3808 29.4496 68.5888 28.3995 67.9216 27.1834C67.3826 26.2013 66.9156 25.0963 66.5337 23.8954ZM73.8341 30.8027C72.0129 30.5458 70.2788 29.0791 68.9327 26.6261C68.5422 25.9146 68.1899 25.1284 67.8829 24.2797C69.7133 24.7406 71.724 25.0125 73.8341 25.0545V30.8027ZM78.549 30.2562C79.4413 29.4496 80.2331 28.3995 80.9004 27.1834C81.4391 26.2013 81.9069 25.0963 82.2884 23.8954C83.4864 23.5127 84.5887 23.0446 85.5688 22.5043C86.7821 21.8355 87.83 21.0418 88.6346 20.1474C87.225 25.0106 83.401 28.8438 78.549 30.2562ZM80.9395 24.2797C80.6322 25.1284 80.2794 25.9146 79.8891 26.6261C78.5432 29.0791 76.8091 30.5458 74.988 30.8027V25.0545C77.0981 25.0125 79.1087 24.7406 80.9395 24.2797ZM82.6715 22.5431C83.5184 22.2354 84.303 21.8822 85.0125 21.4909C87.4605 20.1418 88.9235 18.4037 89.1797 16.5783H83.4449C83.4026 18.6933 83.1313 20.7086 82.6715 22.5431ZM82.2908 16.5783C82.2429 18.8864 81.9116 21.0533 81.3625 22.9678C79.4527 23.5176 77.2908 23.8499 74.988 23.8977V21.4012C75.8468 19.1961 77.5993 17.4393 79.7992 16.5783H82.2908ZM83.4449 15.4217H89.1797C88.9235 13.5963 87.4605 11.8582 85.0125 10.5091C84.303 10.1178 83.5184 9.76464 82.6715 9.45688C83.1313 11.2914 83.4026 13.3067 83.4449 15.4217ZM81.3625 9.03216C81.9116 10.9467 82.2429 13.1136 82.2908 15.4217H79.7993C77.5993 14.5607 75.8468 12.8039 74.988 10.5988V8.10232C77.2908 8.15008 79.4527 8.4824 81.3625 9.03216ZM82.2884 8.10464C83.4864 8.48728 84.5887 8.95544 85.5688 9.49568C86.7821 10.1645 87.83 10.9582 88.6346 11.8526C87.225 6.98943 83.401 3.15618 78.549 1.74382C79.4413 2.55036 80.2331 3.60047 80.9004 4.81652C81.4391 5.79872 81.9069 6.90366 82.2884 8.10464ZM74.988 1.19727C76.8091 1.45415 78.5432 2.92086 79.8891 5.37392C80.2794 6.08547 80.6322 6.87157 80.9395 7.72035C79.1087 7.25934 77.0981 6.98754 74.988 6.9455V1.19727Z"
              fill="#9C9CAB"/>
    </g>
    <defs>
        <clipPath id="clip0_128_7444">
            <rect width="174" height="32" fill="white"/>
        </clipPath>
    </defs>
</svg>
