<svg viewBox="0 0 164 40" fill="none" xmlns="http://www.w3.org/2000/svg">
    <path d="M50 26.1762H60.401V23.344H53.4353V9.92816H50V26.1762Z" fill="#9C9CAB"/>
    <path d="M67.4477 26.4143C71.1448 26.4143 73.4455 23.8835 73.4455 20.1309C73.4455 16.3544 71.1448 13.8315 67.4477 13.8315C63.7507 13.8315 61.45 16.3544 61.45 20.1309C61.45 23.8835 63.7507 26.4143 67.4477 26.4143ZM67.4636 23.7962C65.7578 23.7962 64.8851 22.2332 64.8851 20.107C64.8851 17.9808 65.7578 16.41 67.4636 16.41C69.1376 16.41 70.0102 17.9808 70.0102 20.107C70.0102 22.2332 69.1376 23.7962 67.4636 23.7962Z"
          fill="#9C9CAB"/>
    <path d="M80.4628 31C83.9457 31 86.4209 29.4131 86.4209 26.2953V13.9903H83.065V16.0371H82.9381C82.4858 15.0453 81.4942 13.8315 79.4552 13.8315C76.7816 13.8315 74.5205 15.9102 74.5205 20.0595C74.5205 24.1135 76.7181 26.0017 79.4631 26.0017C81.4069 26.0017 82.4938 25.0259 82.9381 24.0183H83.0809V26.2477C83.0809 27.9217 82.0098 28.5723 80.5421 28.5723C79.0505 28.5723 78.2969 27.9217 78.0192 27.1838L74.8934 27.6044C75.298 29.5242 77.1782 31 80.4628 31ZM80.5341 23.4629C78.876 23.4629 77.9716 22.146 77.9716 20.0436C77.9716 17.9729 78.8602 16.5211 80.5341 16.5211C82.1765 16.5211 83.0967 17.9094 83.0967 20.0436C83.0967 22.1935 82.1605 23.4629 80.5341 23.4629Z"
          fill="#9C9CAB"/>
    <path d="M93.9463 26.4143C97.6434 26.4143 99.9442 23.8835 99.9442 20.1309C99.9442 16.3544 97.6434 13.8315 93.9463 13.8315C90.2493 13.8315 87.9485 16.3544 87.9485 20.1309C87.9485 23.8835 90.2493 26.4143 93.9463 26.4143ZM93.9622 23.7962C92.2565 23.7962 91.3838 22.2332 91.3838 20.107C91.3838 17.9808 92.2565 16.41 93.9622 16.41C95.6362 16.41 96.5089 17.9808 96.5089 20.107C96.5089 22.2332 95.6362 23.7962 93.9622 23.7962Z"
          fill="#9C9CAB"/>
    <path d="M101.472 26.1763H104.851V13.9903H101.472V26.1763ZM103.17 12.4194C104.177 12.4194 105.002 11.6499 105.002 10.7058C105.002 9.7696 104.177 9 103.17 9C102.17 9 101.345 9.7696 101.345 10.7058C101.345 11.6499 102.17 12.4194 103.17 12.4194Z"
          fill="#9C9CAB"/>
    <path d="M106.889 30.7461H110.268V24.2246H110.371C110.839 25.2401 111.862 26.3747 113.83 26.3747C116.608 26.3747 118.773 24.1771 118.773 20.0991C118.773 15.9102 116.512 13.8315 113.838 13.8315C111.799 13.8315 110.824 15.0453 110.371 16.0371H110.22V13.9903H106.889V30.7461ZM110.197 20.0833C110.197 17.9094 111.117 16.5211 112.759 16.5211C114.434 16.5211 115.322 17.9729 115.322 20.0833C115.322 22.2095 114.418 23.6851 112.759 23.6851C111.133 23.6851 110.197 22.2571 110.197 20.0833Z"
          fill="#9C9CAB"/>
    <path d="M130.496 17.4651C130.194 15.22 128.385 13.8315 125.307 13.8315C122.189 13.8315 120.135 15.2755 120.142 17.6238C120.135 19.4486 121.284 20.6307 123.665 21.1067L125.775 21.5272C126.838 21.7414 127.323 22.1301 127.338 22.741C127.323 23.4629 126.537 23.9787 125.355 23.9787C124.148 23.9787 123.348 23.4629 123.142 22.4713L119.817 22.6458C120.135 24.9783 122.117 26.4143 125.347 26.4143C128.504 26.4143 130.765 24.8037 130.773 22.3999C130.765 20.6387 129.614 19.5835 127.251 19.0995L125.045 18.6551C123.911 18.4092 123.49 18.0205 123.499 17.4334C123.49 16.7036 124.316 16.2275 125.362 16.2275C126.537 16.2275 127.235 16.8701 127.401 17.6555L130.496 17.4651Z"
          fill="#9C9CAB"/>
    <path d="M140.046 20.9877C140.054 22.6221 138.935 23.4789 137.721 23.4789C136.444 23.4789 135.619 22.5824 135.611 21.1463V13.9903H132.231V21.7494C132.238 24.5975 133.905 26.335 136.356 26.335C138.189 26.335 139.506 25.3909 140.054 23.9628H140.18V26.1763H143.425V13.9903H140.046V20.9877Z"
          fill="#9C9CAB"/>
    <path d="M145.458 26.1763H148.838V18.8615C148.838 17.5127 149.695 16.6163 150.821 16.6163C151.932 16.6163 152.678 17.3779 152.678 18.5759V26.1763H155.955V18.7345C155.955 17.4731 156.677 16.6163 157.906 16.6163C158.985 16.6163 159.794 17.2906 159.794 18.6473V26.1763H163.166V17.9808C163.166 15.3389 161.596 13.8315 159.326 13.8315C157.541 13.8315 156.153 14.7439 155.653 16.1402H155.527C155.138 14.728 153.891 13.8315 152.218 13.8315C150.575 13.8315 149.33 14.7043 148.822 16.1402H148.679V13.9903H145.458V26.1763Z"
          fill="#9C9CAB"/>
    <path d="M15.4605 4H23.4701L20.2551 13.5837C14.5964 14.6444 10.2683 20.4843 10.2683 27.5294C10.2683 30.7076 11.1491 33.6405 12.6354 36H2L11.7229 7.01732C12.3342 5.19496 13.8144 4 15.4605 4Z"
          fill="#9C9CAB"/>
    <path d="M23.4706 4L21.2111 10.7354L20.5303 4H23.4706Z" fill="#9C9CAB"/>
    <path d="M28.5399 4H20.5303L23.7318 13.5433C29.5031 14.4865 33.9491 20.3888 33.9491 27.5294C33.9491 30.7076 33.0683 33.6405 31.582 36H42.0004L32.2776 7.01733C31.6663 5.19496 30.186 4 28.5399 4Z"
          fill="#9C9CAB"/>
    <path d="M14.0326 35.0776C12.6639 32.9984 11.8477 30.3775 11.8477 27.5293C11.8477 20.7719 16.4419 15.2941 22.1091 15.2941C27.7763 15.2941 32.3705 20.7719 32.3705 27.5293C32.3705 30.3775 31.5543 32.9984 30.1856 35.0776C27.9386 33.2933 25.1413 32.2352 22.1091 32.2352C19.0769 32.2352 16.2796 33.2933 14.0326 35.0776Z"
          fill="#9C9CAB"/>
</svg>
