<svg viewBox="0 0 116 20" fill="none" xmlns="http://www.w3.org/2000/svg">
    <path d="M9.67824 20C11.0658 20 12.3059 19.7659 13.3986 19.2978C14.5087 18.8296 15.4453 18.2141 16.2084 17.4512C16.9716 16.671 17.5179 15.8214 17.8475 14.9025L14.6735 13.42C14.2918 14.3909 13.6674 15.1972 12.8002 15.8388C11.9503 16.4629 10.9096 16.775 9.67824 16.775C8.46407 16.775 7.39738 16.4889 6.47818 15.9168C5.55897 15.3446 4.83912 14.5558 4.31878 13.5501C3.79845 12.5271 3.53828 11.3394 3.53828 9.987C3.53828 8.63459 3.79845 7.45558 4.31878 6.44994C4.83912 5.42697 5.55897 4.63805 6.47818 4.08323C7.39738 3.51105 8.46407 3.22497 9.67824 3.22497C10.9096 3.22497 11.9503 3.54573 12.8002 4.18726C13.6674 4.81144 14.2918 5.60902 14.6735 6.57997L17.8475 5.09753C17.5179 4.17859 16.9716 3.33766 16.2084 2.57477C15.4453 1.79454 14.5087 1.17035 13.3986 0.70221C12.3059 0.23407 11.0658 0 9.67824 0C8.29073 0 7.00713 0.251414 5.82775 0.754226C4.64838 1.23971 3.62495 1.93324 2.75778 2.83485C1.8906 3.71912 1.21417 4.77677 0.728469 6.0078C0.242772 7.22151 0 8.5479 0 9.987C0 11.426 0.242772 12.7612 0.728469 13.9922C1.21417 15.2059 1.8906 16.2635 2.75778 17.1651C3.62495 18.0668 4.64838 18.769 5.82775 19.2718C7.00713 19.7573 8.29073 20 9.67824 20ZM26.4954 20C27.8655 20 29.1143 19.6879 30.2418 19.0637C31.3691 18.4221 32.2711 17.5466 32.9475 16.4369C33.624 15.31 33.9622 14.0356 33.9622 12.6138C33.9622 11.192 33.624 9.92636 32.9475 8.81664C32.2883 7.70697 31.3951 6.83139 30.2678 6.18986C29.1403 5.54833 27.8829 5.22757 26.4954 5.22757C25.0905 5.22757 23.8243 5.54833 22.6969 6.18986C21.5694 6.83139 20.6676 7.70697 19.9912 8.81664C19.332 9.92636 19.0025 11.192 19.0025 12.6138C19.0025 14.0356 19.332 15.3012 19.9912 16.4109C20.6676 17.5206 21.5694 18.3961 22.6969 19.0377C23.8416 19.6793 25.1077 20 26.4954 20ZM26.4954 16.8791C25.7321 16.8791 25.047 16.697 24.44 16.3329C23.8503 15.9688 23.382 15.466 23.0351 14.8244C22.7055 14.1656 22.5408 13.4286 22.5408 12.6138C22.5408 11.7989 22.7055 11.0707 23.0351 10.4291C23.382 9.78755 23.8503 9.28479 24.44 8.92068C25.047 8.53922 25.7321 8.34851 26.4954 8.34851C27.2585 8.34851 27.9263 8.53922 28.4986 8.92068C29.0883 9.28479 29.5479 9.78755 29.8775 10.4291C30.2244 11.0707 30.3979 11.7989 30.3979 12.6138C30.3979 13.4286 30.2244 14.1656 29.8775 14.8244C29.5479 15.466 29.0883 15.9688 28.4986 16.3329C27.9263 16.697 27.2585 16.8791 26.4954 16.8791ZM35.9417 3.95319H39.3499V0.312094H35.9417V3.95319ZM35.9417 19.6879H39.3499V5.53966H35.9417V19.6879ZM41.8917 19.6879H45.2999V11.3914C45.2999 10.4725 45.56 9.73554 46.0804 9.18075C46.618 8.62593 47.3118 8.34851 48.1617 8.34851C49.0115 8.34851 49.6967 8.62593 50.2171 9.18075C50.7546 9.7183 51.0236 10.4551 51.0236 11.3914V19.6879H54.4318V10.5852C54.4318 9.52747 54.2062 8.59992 53.7553 7.80234C53.3043 6.98744 52.6713 6.35457 51.8561 5.90377C51.0582 5.45297 50.139 5.22757 49.0983 5.22757C48.2138 5.22757 47.4159 5.40096 46.7048 5.74772C46.011 6.09449 45.4732 6.60598 45.0917 7.28219V5.53966H41.8917V19.6879ZM64.4357 20C65.8058 20 67.0286 19.6793 68.104 19.0377C69.1793 18.3789 70.0293 17.4946 70.6537 16.3849C71.2781 15.258 71.5903 14.0008 71.5903 12.6138C71.5903 11.2268 71.2781 9.97838 70.6537 8.86866C70.0293 7.74166 69.1793 6.8574 68.104 6.21586C67.0286 5.55701 65.8146 5.22757 64.4617 5.22757C62.6231 5.22757 61.1748 5.8084 60.1169 6.97009V0H56.7087V19.6879H59.9088V18.1014C60.4291 18.7082 61.0795 19.1764 61.86 19.5059C62.6578 19.8353 63.5163 20 64.4357 20ZM64.0454 16.8791C63.2996 16.8791 62.6231 16.697 62.0161 16.3329C61.4263 15.9688 60.958 15.466 60.6112 14.8244C60.2816 14.1829 60.1169 13.446 60.1169 12.6138C60.1169 11.7815 60.2816 11.0447 60.6112 10.4031C60.958 9.76155 61.4263 9.25878 62.0161 8.89467C62.6231 8.53056 63.2996 8.34851 64.0454 8.34851C64.8259 8.34851 65.511 8.53922 66.1007 8.92068C66.7077 9.28479 67.1847 9.78755 67.5317 10.4291C67.8785 11.0707 68.052 11.7989 68.052 12.6138C68.052 13.4286 67.8785 14.1656 67.5317 14.8244C67.1847 15.466 66.7077 15.9688 66.1007 16.3329C65.511 16.697 64.8259 16.8791 64.0454 16.8791ZM77.8764 20C79.7149 20 81.1891 19.3932 82.2992 18.1795V19.6879H85.5253V10.2731C85.5253 9.28479 85.2738 8.40918 84.7708 7.64629C84.2679 6.8834 83.574 6.29389 82.6895 5.87776C81.8223 5.44429 80.8076 5.22757 79.6455 5.22757C78.2232 5.22757 76.9571 5.56567 75.847 6.24187C74.7369 6.91808 73.9738 7.81101 73.5576 8.92068L76.3414 10.2731C76.6015 9.63151 77.0092 9.12012 77.5642 8.73862C78.1191 8.33984 78.7696 8.14044 79.5154 8.14044C80.2959 8.14044 80.9203 8.34851 81.3886 8.76463C81.8743 9.16337 82.1171 9.66628 82.1171 10.2731V10.7412L77.9024 11.4174C76.2373 11.6949 75.0059 12.2237 74.208 13.0039C73.4101 13.7841 73.0112 14.7638 73.0112 15.9428C73.0112 17.1912 73.4535 18.1795 74.3381 18.9077C75.2226 19.6359 76.402 20 77.8764 20ZM76.5495 15.8127C76.5495 14.8244 77.2173 14.2003 78.5528 13.9402L82.1171 13.342V13.9142C82.1171 14.8851 81.7789 15.7087 81.1024 16.3849C80.4434 17.0611 79.5761 17.3992 78.5008 17.3992C77.9284 17.3992 77.4601 17.2606 77.0958 16.9831C76.7316 16.6884 76.5495 16.2983 76.5495 15.8127ZM88.0704 19.6879H91.4786V11.3914C91.4786 10.4725 91.7388 9.73554 92.2591 9.18075C92.7967 8.62593 93.4905 8.34851 94.3404 8.34851C95.1902 8.34851 95.8754 8.62593 96.3958 9.18075C96.9333 9.7183 97.2023 10.4551 97.2023 11.3914V19.6879H100.61V10.5852C100.61 9.52747 100.385 8.59992 99.934 7.80234C99.483 6.98744 98.85 6.35457 98.0348 5.90377C97.2369 5.45297 96.3177 5.22757 95.277 5.22757C94.3925 5.22757 93.5946 5.40096 92.8835 5.74772C92.1897 6.09449 91.6519 6.60598 91.2705 7.28219V5.53966H88.0704V19.6879ZM102.887 19.6879H106.296V15.3706L108.117 13.394L112.097 19.6879H116L110.666 11.2354L115.896 5.53966H111.655L106.296 11.1573V0H102.887V19.6879Z"
          fill="#0E0637"/>
</svg>
