<svg viewBox="0 0 82 108" fill="none" xmlns="http://www.w3.org/2000/svg">
    <path d="M43.8333 6.34468C64.5593 13.9909 81.361 38.0979 81.361 60.1894C81.361 82.2808 64.5593 93.9909 43.8333 86.3447C23.1073 78.6985 6.30566 54.5914 6.30566 32.5C6.30566 10.4086 23.1073 -1.30154 43.8333 6.34468Z"
          fill="#DAF727"/>
    <path d="M37.5833 14.8447C57.7912 22.2997 74.1728 45.8041 74.1728 67.3432C74.1728 88.8824 57.7912 100.3 37.5833 92.8447C17.3755 85.3896 0.993855 61.8853 0.993855 40.3461C0.993855 18.807 17.3755 7.38962 37.5833 14.8447Z"
          fill="#5235E8" stroke="white" stroke-width="2"/>
    <path d="M51.3031 75.3771C48.0543 78.4208 43.4852 78.8563 37.5959 76.6836C31.7066 74.5109 27.1368 70.7039 23.8865 65.2625C20.6355 59.8186 19.0108 53.7327 19.0122 47.0049C19.0136 40.277 20.6377 35.3904 23.8844 32.3452C27.1332 29.2991 31.703 28.8631 37.5938 31.0371C43.4845 33.2111 48.0536 37.0186 51.301 42.4597C54.5498 47.9005 56.1746 53.9856 56.1753 60.7151C56.176 67.4445 54.552 72.3318 51.3031 75.3771Z"
          fill="white"/>
    <path d="M37.5275 67.7875C39.0779 68.3594 40.396 68.3954 41.4818 67.8954C42.5676 67.3954 43.3539 66.4642 43.8407 65.1017C44.3268 63.7381 44.6699 62.3859 44.87 61.0448C45.0702 59.7038 45.1695 58.2403 45.1681 56.6542C45.1681 54.7022 45.0573 52.9143 44.8357 51.2905L31.478 61.1991C32.7132 64.5577 34.7297 66.7538 37.5275 67.7875Z"
          fill="#5235E8"/>
    <path d="M37.6604 39.9326C36.11 39.3606 34.7919 39.3246 33.7061 39.8245C32.6203 40.3245 31.834 41.2557 31.3472 42.6182C30.8583 43.9807 30.5152 45.3329 30.3179 46.6749C30.1177 48.0159 30.0184 49.4794 30.0198 51.0654C30.0198 52.11 30.0512 53.1075 30.1141 54.0579L42.8542 44.6097C41.6169 42.3133 39.8856 40.7542 37.6604 39.9326Z"
          fill="#5235E8"/>
    <path d="M20.0504 61.5318L18.4099 59.2488L30.8498 50.0164L32.4903 52.2994L20.0504 61.5318ZM43.4891 55.7559L41.8486 53.473L54.2885 44.2406L55.929 46.5235L43.4891 55.7559Z"
          fill="#5235E8"/>
</svg>
