<svg viewBox="0 0 96 102" fill="none" xmlns="http://www.w3.org/2000/svg">
    <g filter="url(#filter0_b_444_14160)">
        <path d="M8.94944 44.5185L70.4348 0L70.4348 101.997L8.94943 57.4781C4.53837 54.2843 4.53838 47.7123 8.94944 44.5185Z"
              fill="url(#paint0_linear_444_14160)" fill-opacity="0.3"/>
        <path d="M8.94944 44.5185L70.4348 0L70.4348 101.997L8.94943 57.4781C4.53837 54.2843 4.53838 47.7123 8.94944 44.5185Z"
              stroke="white"/>
    </g>
    <g filter="url(#filter1_b_444_14160)">
        <path d="M27.7326 44.5185L89.218 0L89.218 101.997L27.7326 57.4781C23.3216 54.2843 23.3216 47.7123 27.7326 44.5185Z"
              fill="url(#paint1_linear_444_14160)" fill-opacity="0.4"/>
        <path d="M27.7326 44.5185L89.218 0L89.218 101.997L27.7326 57.4781C23.3216 54.2843 23.3216 47.7123 27.7326 44.5185Z"
              stroke="white"/>
    </g>
    <g filter="url(#filter2_b_444_14160)">
        <path d="M46.5149 44.5185L108 0L108 101.997L46.5149 57.4781C42.1038 54.2843 42.1038 47.7123 46.5149 44.5185Z"
              fill="url(#paint2_linear_444_14160)" fill-opacity="0.6"/>
        <path d="M46.5149 44.5185L108 0L108 101.997L46.5149 57.4781C42.1038 54.2843 42.1038 47.7123 46.5149 44.5185Z"
              stroke="url(#paint3_linear_444_14160)"/>
    </g>
    <defs>
        <filter id="filter0_b_444_14160" x="-94.8589" y="-100.979" width="265.794" height="303.955"
                filterUnits="userSpaceOnUse" color-interpolation-filters="sRGB">
            <feFlood flood-opacity="0" result="BackgroundImageFix"/>
            <feGaussianBlur in="BackgroundImageFix" stdDeviation="50"/>
            <feComposite in2="SourceAlpha" operator="in" result="effect1_backgroundBlur_444_14160"/>
            <feBlend mode="normal" in="SourceGraphic" in2="effect1_backgroundBlur_444_14160" result="shape"/>
        </filter>
        <filter id="filter1_b_444_14160" x="-76.0757" y="-100.979" width="265.794" height="303.955"
                filterUnits="userSpaceOnUse" color-interpolation-filters="sRGB">
            <feFlood flood-opacity="0" result="BackgroundImageFix"/>
            <feGaussianBlur in="BackgroundImageFix" stdDeviation="50"/>
            <feComposite in2="SourceAlpha" operator="in" result="effect1_backgroundBlur_444_14160"/>
            <feBlend mode="normal" in="SourceGraphic" in2="effect1_backgroundBlur_444_14160" result="shape"/>
        </filter>
        <filter id="filter2_b_444_14160" x="-57.2935" y="-100.979" width="265.794" height="303.955"
                filterUnits="userSpaceOnUse" color-interpolation-filters="sRGB">
            <feFlood flood-opacity="0" result="BackgroundImageFix"/>
            <feGaussianBlur in="BackgroundImageFix" stdDeviation="50"/>
            <feComposite in2="SourceAlpha" operator="in" result="effect1_backgroundBlur_444_14160"/>
            <feBlend mode="normal" in="SourceGraphic" in2="effect1_backgroundBlur_444_14160" result="shape"/>
        </filter>
        <linearGradient id="paint0_linear_444_14160" x1="70.4348" y1="50.9983" x2="2.82884e-05" y2="50.9983"
                        gradientUnits="userSpaceOnUse">
            <stop stop-color="white" stop-opacity="0.2"/>
            <stop offset="1" stop-color="white"/>
        </linearGradient>
        <linearGradient id="paint1_linear_444_14160" x1="89.218" y1="50.9983" x2="18.7832" y2="50.9983"
                        gradientUnits="userSpaceOnUse">
            <stop stop-color="white" stop-opacity="0.2"/>
            <stop offset="1" stop-color="white"/>
        </linearGradient>
        <linearGradient id="paint2_linear_444_14160" x1="108" y1="50.9983" x2="37.5655" y2="50.9983"
                        gradientUnits="userSpaceOnUse">
            <stop stop-color="white" stop-opacity="0.2"/>
            <stop offset="1" stop-color="white"/>
        </linearGradient>
        <linearGradient id="paint3_linear_444_14160" x1="141.105" y1="50.9983" x2="41.322" y2="50.9983"
                        gradientUnits="userSpaceOnUse">
            <stop stop-color="white" stop-opacity="0"/>
            <stop offset="1" stop-color="white"/>
        </linearGradient>
    </defs>
</svg>
