<svg viewBox="0 0 82 108" fill="none" xmlns="http://www.w3.org/2000/svg">
    <circle cx="40" cy="40" r="40" transform="matrix(0.938191 0.346117 0 1 6.58398 -7.5)" fill="#DAF727"/>
    <circle cx="40" cy="40" r="39" transform="matrix(0.938191 0.346117 0 1 0.333984 0)" fill="#5235E8" stroke="white" stroke-width="2"/>
    <path d="M53.3397 36.2214L59.6676 38.5559L46.4988 50.48C41.7297 54.795 33.9977 51.9425 29.2253 44.1075L16.0513 22.465L22.3843 24.8013L32.3892 41.2409C33.8469 43.6279 35.8115 45.3893 37.8582 46.1443C39.9049 46.8994 41.8694 46.5875 43.3271 45.2761L53.3397 36.2214Z" fill="white"/>
    <path d="M22.3029 71.4382L15.9707 69.1021L29.2251 57.106C33.9941 52.791 41.7261 55.6435 46.4986 63.4785L59.753 85.2542L53.4251 82.9197L43.3346 66.3451C41.8769 63.9581 39.9124 62.1968 37.8657 61.4417C35.819 60.6866 33.8545 60.9985 32.3968 62.3099L22.3029 71.4382Z" fill="white"/>
</svg>
