<svg viewBox="0 0 20 20" fill="none" xmlns="http://www.w3.org/2000/svg">
    <path d="M18.3333 9.08335V3.41669C18.3333 2.16669 17.8 1.66669 16.475 1.66669H13.1083C11.7833 1.66669 11.25 2.16669 11.25 3.41669V9.08335C11.25 10.3334 11.7833 10.8334 13.1083 10.8334H16.475C17.8 10.8334 18.3333 10.3334 18.3333 9.08335Z"
          stroke="#5235E8" stroke-width="1.5" stroke-linecap="round" stroke-linejoin="round"/>
    <path d="M18.3333 16.5833V15.0833C18.3333 13.8333 17.8 13.3333 16.475 13.3333H13.1083C11.7833 13.3333 11.25 13.8333 11.25 15.0833V16.5833C11.25 17.8333 11.7833 18.3333 13.1083 18.3333H16.475C17.8 18.3333 18.3333 17.8333 18.3333 16.5833Z"
          stroke="#5235E8" stroke-width="1.5" stroke-linecap="round" stroke-linejoin="round"/>
    <path d="M8.74984 10.9167V16.5834C8.74984 17.8334 8.2165 18.3334 6.8915 18.3334H3.52484C2.19984 18.3334 1.6665 17.8334 1.6665 16.5834V10.9167C1.6665 9.66669 2.19984 9.16669 3.52484 9.16669H6.8915C8.2165 9.16669 8.74984 9.66669 8.74984 10.9167Z"
          stroke="#5235E8" stroke-width="1.5" stroke-linecap="round" stroke-linejoin="round"/>
    <path d="M8.74984 3.41669V4.91669C8.74984 6.16669 8.2165 6.66669 6.8915 6.66669H3.52484C2.19984 6.66669 1.6665 6.16669 1.6665 4.91669V3.41669C1.6665 2.16669 2.19984 1.66669 3.52484 1.66669H6.8915C8.2165 1.66669 8.74984 2.16669 8.74984 3.41669Z"
          stroke="#5235E8" stroke-width="1.5" stroke-linecap="round" stroke-linejoin="round"/>
</svg>
