<svg viewBox="0 0 20 20" fill="none" xmlns="http://www.w3.org/2000/svg">
    <path d="M15.4168 10.5417V13.625C15.4168 16.225 12.9918 18.3333 10.0002 18.3333C7.0085 18.3333 4.5835 16.225 4.5835 13.625V10.5417C4.5835 13.1417 7.0085 15 10.0002 15C12.9918 15 15.4168 13.1417 15.4168 10.5417Z"
          stroke="#5235E8" stroke-width="1.5" stroke-linecap="round" stroke-linejoin="round"/>
    <path d="M15.4168 6.37499C15.4168 7.13332 15.2085 7.83332 14.8418 8.43332C13.9502 9.89999 12.1168 10.8333 10.0002 10.8333C7.8835 10.8333 6.05016 9.89999 5.1585 8.43332C4.79183 7.83332 4.5835 7.13332 4.5835 6.37499C4.5835 5.07499 5.19182 3.89999 6.16682 3.04999C7.15016 2.19166 8.50016 1.66666 10.0002 1.66666C11.5002 1.66666 12.8502 2.19166 13.8335 3.04166C14.8085 3.89999 15.4168 5.07499 15.4168 6.37499Z"
          stroke="#5235E8" stroke-width="1.5" stroke-linecap="round" stroke-linejoin="round"/>
    <path d="M15.4168 6.37499V10.5417C15.4168 13.1417 12.9918 15 10.0002 15C7.0085 15 4.5835 13.1417 4.5835 10.5417V6.37499C4.5835 3.77499 7.0085 1.66666 10.0002 1.66666C11.5002 1.66666 12.8502 2.19166 13.8335 3.04166C14.8085 3.89999 15.4168 5.07499 15.4168 6.37499Z"
          stroke="#5235E8" stroke-width="1.5" stroke-linecap="round" stroke-linejoin="round"/>
</svg>
