<svg viewBox="0 0 1024 1024" fill="none" xmlns="http://www.w3.org/2000/svg">
    <path d="M885.113 489.373L628.338 232.599C615.842 220.102 595.58 220.102 583.084 232.599C570.587 245.096 570.587 265.357 583.084 277.854L786.384 481.154H158.025C140.989 481.154 127.179 494.965 127.179 512C127.179 529.036 140.99 542.846 158.025 542.846H786.385L583.084 746.147C570.587 758.643 570.587 778.905 583.084 791.402C589.332 797.65 597.522 800.774 605.711 800.774C613.9 800.774 622.09 797.65 628.338 791.402L885.113 534.627C888.085 531.656 890.442 528.128 892.05 524.246C893.658 520.363 894.486 516.202 894.486 512C894.486 507.798 893.658 503.637 892.05 499.754C890.442 495.872 888.085 492.344 885.113 489.373Z"
          fill="#F9F9F9"/>
</svg>
