<svg viewBox="0 0 1024 1024" fill="none" xmlns="http://www.w3.org/2000/svg">
    <path d="M138.887 534.627L395.662 791.401C408.158 803.898 428.42 803.898 440.916 791.401C453.413 778.904 453.413 758.643 440.916 746.146L237.616 542.846L865.975 542.846C883.011 542.846 896.821 529.035 896.821 512C896.821 494.964 883.01 481.154 865.975 481.154L237.615 481.154L440.916 277.853C453.413 265.357 453.413 245.095 440.916 232.598C434.668 226.35 426.478 223.226 418.289 223.226C410.1 223.226 401.91 226.35 395.662 232.598L138.887 489.373C135.915 492.344 133.558 495.872 131.95 499.754C130.342 503.637 129.514 507.798 129.514 512C129.514 516.202 130.342 520.363 131.95 524.246C133.558 528.128 135.915 531.656 138.887 534.627Z"
          fill="#F9F9F9"/>
</svg>
