<svg viewBox="0 0 20 20" fill="none" xmlns="http://www.w3.org/2000/svg">
    <path d="M16.6668 16.6667V10.8333M10.0002 16.6667V8.33333M3.3335 16.6667L3.3335 13.3333M11.1724 4.18959L15.4794 5.80472M8.99914 4.50077L4.33369 7.99986M17.5507 5.36612C18.0389 5.85427 18.0389 6.64573 17.5507 7.13388C17.0626 7.62204 16.2711 7.62204 15.7829 7.13388C15.2948 6.64573 15.2948 5.85427 15.7829 5.36612C16.2711 4.87796 17.0626 4.87796 17.5507 5.36612ZM4.21738 7.86612C4.70553 8.35427 4.70553 9.14573 4.21738 9.63388C3.72922 10.122 2.93777 10.122 2.44961 9.63388C1.96146 9.14573 1.96146 8.35427 2.44961 7.86612C2.93777 7.37796 3.72922 7.37796 4.21738 7.86612ZM10.884 2.86612C11.3722 3.35427 11.3722 4.14573 10.884 4.63388C10.3959 5.12204 9.60443 5.12204 9.11628 4.63388C8.62812 4.14573 8.62812 3.35427 9.11628 2.86612C9.60443 2.37796 10.3959 2.37796 10.884 2.86612Z" stroke="#9C9CAB" stroke-width="1.5" stroke-linecap="round" stroke-linejoin="round"/>
</svg>
