<svg viewBox="0 0 59 56" fill="none" xmlns="http://www.w3.org/2000/svg">
    <path d="M35.7901 0.100006H29.6701C28.9329 0.181575 28.2521 0.53331 27.759 1.08733C27.266 1.64134 26.9956 2.35836 27.0001 3.10001V6.10001H22.7601C18.2911 6.50336 14.0131 8.10206 10.3748 10.7284C6.73661 13.3547 3.87228 16.9118 2.0824 21.0265C0.292513 25.1412 -0.356943 29.6617 0.202171 34.1139C0.761285 38.5661 2.50836 42.7857 5.26008 46.33L5.84008 47.03L6.54008 47.87C8.88088 50.4364 11.7322 52.4853 14.9111 53.8854C18.0901 55.2854 21.5265 56.0057 25.0001 56C26.0029 56.0045 27.005 55.9444 28.0001 55.82C31.7943 56.2775 35.6429 55.8612 39.2515 54.6029C42.86 53.3446 46.133 51.2776 48.8201 48.56C49.3758 47.9983 49.6875 47.2401 49.6875 46.45C49.6875 45.6599 49.3758 44.9017 48.8201 44.34L43.8701 39.34C43.3064 38.7809 42.544 38.4681 41.7501 38.47H35.7501C35.3586 38.4618 34.9694 38.5318 34.6053 38.6761C34.2413 38.8203 33.9097 39.0359 33.6301 39.31C32.0955 40.9126 30.1467 42.0584 28.0001 42.62C25.2858 41.9138 22.9046 40.2792 21.2701 38H21.2201C20.0221 36.3171 19.2788 34.3535 19.0621 32.2991C18.8455 30.2448 19.1629 28.1693 19.9835 26.2735C20.8042 24.3778 22.1003 22.726 23.7465 21.478C25.3927 20.23 27.3331 19.4282 29.3801 19.15C30.1047 19.0575 30.7707 18.7037 31.2531 18.155C31.7355 17.6064 32.0011 16.9006 32.0001 16.17V13.68C33.644 14.2601 35.1418 15.1914 36.3892 16.4091C37.6367 17.6267 38.6038 19.1016 39.2234 20.731C39.843 22.3604 40.1002 24.1053 39.977 25.8442C39.8538 27.5831 39.3532 29.2742 38.5101 30.8C38.1843 31.3721 38.0558 32.0355 38.1444 32.6879C38.2329 33.3403 38.5336 33.9454 39.0001 34.41L44.0801 39.49C44.6413 40.0467 45.3996 40.3593 46.1901 40.36H51.8201C52.3192 40.356 52.8097 40.23 53.249 39.993C53.6882 39.7559 54.0628 39.415 54.3401 39C56.7773 35.3921 58.2299 31.2102 58.5543 26.8684C58.8786 22.5265 58.0634 18.1752 56.1894 14.2452C54.3153 10.3153 51.4473 6.94285 47.8694 4.46185C44.2915 1.98085 40.1277 0.477292 35.7901 0.100006ZM6.68008 44.9C4.19589 41.6242 2.63515 37.7424 2.16033 33.6587C1.68551 29.575 2.31396 25.4386 3.98028 21.6802C5.6466 17.9218 8.28985 14.6788 11.6349 12.2886C14.98 9.89848 18.9045 8.44864 23.0001 8.09001C23.1486 8.09037 23.2948 8.1259 23.4269 8.19369C23.559 8.26148 23.6732 8.3596 23.7601 8.48001C23.8925 8.65997 23.9659 8.87659 23.9701 9.10001V16.17C23.9716 16.4172 23.8815 16.6562 23.7171 16.8409C23.5527 17.0256 23.3258 17.1428 23.0801 17.17C19.738 17.6327 16.6755 19.2868 14.4559 21.8278C12.2364 24.3689 11.0092 27.6261 11.0001 31C11.0001 31.28 11.0001 31.56 11.0001 31.83C11.0001 32.1 11.0001 32.22 11.0501 32.42C11.1001 32.62 11.0501 32.8 11.1201 33V33.18C11.148 33.4357 11.1914 33.6895 11.2501 33.94C11.3101 34.22 11.3801 34.5 11.4501 34.78C11.4501 34.9 11.5201 35.02 11.5601 35.13C11.6001 35.24 11.6301 35.34 11.6701 35.45C11.7318 35.6619 11.8087 35.8691 11.9001 36.07V36.13C11.9305 36.2383 11.9742 36.3424 12.0301 36.44C12.0301 36.44 12.0301 36.44 12.0301 36.49C12.099 36.6796 12.1825 36.8635 12.2801 37.04C12.3246 37.1654 12.3816 37.286 12.4501 37.4C12.5201 37.5551 12.6003 37.7054 12.6901 37.85C12.7601 37.99 12.8401 38.13 12.9201 38.26L12.9701 38.34L6.68008 44.9ZM28.2401 44.62H28.4001C30.914 43.9888 33.2005 42.6654 35.0001 40.8C35.1865 40.6198 35.4357 40.519 35.6951 40.519C35.9544 40.519 36.2036 40.6198 36.3901 40.8L41.3901 45.75C41.5733 45.9369 41.6759 46.1883 41.6759 46.45C41.6759 46.7118 41.5733 46.9631 41.3901 47.15C37.7593 50.8255 32.9968 53.1715 27.8701 53.81L27.1801 53.89C26.4801 53.96 25.7601 53.99 25.0201 53.99C21.816 53.9903 18.6476 53.3184 15.7194 52.018C12.7911 50.7175 10.1682 48.8173 8.02008 46.44L14.3901 40.07L14.4401 40.13C14.6501 40.37 14.8701 40.61 15.0901 40.83C15.4562 41.1864 15.8436 41.5204 16.2501 41.83C16.4601 42.01 16.6801 42.17 16.9001 42.33C18.528 43.4963 20.3871 44.2997 22.352 44.6861C24.3169 45.0726 26.3418 45.033 28.2901 44.57L28.2401 44.62ZM45.4901 38.07L40.4101 33C40.2512 32.8436 40.1492 32.6386 40.1202 32.4175C40.0912 32.1965 40.1369 31.9721 40.2501 31.78C41.294 29.8916 41.8872 27.7875 41.9836 25.6319C42.0799 23.4763 41.6766 21.3276 40.8053 19.3537C39.934 17.3797 38.6182 15.6338 36.9607 14.2524C35.3032 12.8709 33.3488 11.8913 31.2501 11.39C30.8085 11.2815 30.3611 11.1981 29.9101 11.14C29.6626 11.1151 29.4332 10.9989 29.2668 10.814C29.1004 10.6291 29.0088 10.3888 29.0101 10.14V3.10001C29.007 2.86032 29.0901 2.62749 29.2443 2.44394C29.3985 2.2604 29.6135 2.13834 29.8501 2.10001H30.0701C31.3573 2.20518 32.6325 2.42607 33.8801 2.76001C37.3087 3.66352 40.4819 5.34748 43.152 7.68034C45.8221 10.0132 47.9167 12.9318 49.2721 16.2081C50.6276 19.4844 51.2072 23.0298 50.9657 26.5672C50.7243 30.1046 49.6682 33.5383 47.8801 36.6C47.6601 37 47.3901 37.44 47.0801 37.89C47.0289 37.9611 46.972 38.028 46.9101 38.09C46.8414 38.1437 46.7678 38.1905 46.6901 38.23L46.4801 38.31H46.3901C46.2318 38.346 46.0672 38.343 45.9104 38.3012C45.7536 38.2594 45.6094 38.18 45.4901 38.07Z" fill="white"/>
</svg>
