<svg viewBox="0 0 14 14" fill="none" xmlns="http://www.w3.org/2000/svg">
    <path d="M13.2882 11.9617C13.4644 12.1378 13.5633 12.3767 13.5633 12.6258C13.5633 12.8749 13.4644 13.1137 13.2882 13.2898C13.1121 13.466 12.8733 13.5649 12.6242 13.5649C12.3751 13.5649 12.1362 13.466 11.9601 13.2898L6.99997 8.32813L2.03825 13.2883C1.86213 13.4644 1.62326 13.5633 1.37418 13.5633C1.12511 13.5633 0.886243 13.4644 0.710122 13.2883C0.534002 13.1122 0.435059 12.8733 0.435059 12.6242C0.435059 12.3751 0.534002 12.1363 0.710122 11.9602L5.67184 7L0.711685 2.03828C0.535564 1.86216 0.436621 1.62329 0.436621 1.37422C0.436621 1.12515 0.535564 0.886276 0.711685 0.710156C0.887805 0.534036 1.12668 0.435092 1.37575 0.435092C1.62482 0.435092 1.86369 0.534036 2.03981 0.710156L6.99997 5.67188L11.9617 0.709374C12.1378 0.533254 12.3767 0.434311 12.6257 0.434311C12.8748 0.434311 13.1137 0.533254 13.2898 0.709374C13.4659 0.885495 13.5649 1.12437 13.5649 1.37344C13.5649 1.62251 13.4659 1.86138 13.2898 2.0375L8.32809 7L13.2882 11.9617Z"
          fill="#525252"/>
</svg>
