<svg viewBox='0 0 24 24' xmlns='http://www.w3.org/2000/svg'>
    <rect width='24' height='24' stroke='none' fill='#000000' opacity='0'/>


    <g transform="matrix(0.42 0 0 0.42 12 12)">
        <g style="">
            <g transform="matrix(1 0 0 1 -3 -1)">
                <path style="stroke: none; stroke-width: 1; stroke-dasharray: none; stroke-linecap: butt; stroke-dashoffset: 0; stroke-linejoin: miter; stroke-miterlimit: 4; fill: rgb(69,90,100); fill-rule: nonzero; opacity: 1;"
                      transform=" translate(-21, -23)"
                      d="M 32 6 L 24 6 C 24 7.104 23 9 21 9 C 19 9 18 7.104 18 6 L 10 6 C 7.791 6 6 7.791 6 10 L 6 36 C 6 38.209 7.791 40 10 40 L 32 40 C 34.209 40 36 38.209 36 36 L 36 10 C 36 7.791 34.209 6 32 6"
                      stroke-linecap="round"/>
            </g>
            <g transform="matrix(1 0 0 1 -3 -1)">
                <path style="stroke: none; stroke-width: 1; stroke-dasharray: none; stroke-linecap: butt; stroke-dashoffset: 0; stroke-linejoin: miter; stroke-miterlimit: 4; fill: rgb(255,255,255); fill-rule: nonzero; opacity: 1;"
                      transform=" translate(-21, -23)"
                      d="M 32 37 L 10 37 C 9.448 37 9 36.552 9 36 L 9 10 C 9 9.448 9.448 9 10 9 L 32 9 C 32.552 9 33 9.448 33 10 L 33 36 C 33 36.552 32.552 37 32 37 z"
                      stroke-linecap="round"/>
            </g>
            <g transform="matrix(1 0 0 1 -3 -15)">
                <path style="stroke: none; stroke-width: 1; stroke-dasharray: none; stroke-linecap: butt; stroke-dashoffset: 0; stroke-linejoin: miter; stroke-miterlimit: 4; fill: rgb(144,164,174); fill-rule: nonzero; opacity: 1;"
                      transform=" translate(-21, -9)"
                      d="M 23 6 C 23 7.105 22.105 8 21 8 C 19.895 8 19 7.105 19 6 L 12 6 L 12 10 C 12 11.105 12.895 12 14 12 L 28 12 C 29.105 12 30 11.105 30 10 L 30 6 L 23 6 z"
                      stroke-linecap="round"/>
            </g>
            <g transform="matrix(1 0 0 1 -3 -18)">
                <path style="stroke: none; stroke-width: 1; stroke-dasharray: none; stroke-linecap: butt; stroke-dashoffset: 0; stroke-linejoin: miter; stroke-miterlimit: 4; fill: rgb(144,164,174); fill-rule: nonzero; opacity: 1;"
                      transform=" translate(-21, -6)"
                      d="M 21 2 C 18.794 2 17 3.794 17 6 C 17 8.206 18.794 10 21 10 C 23.206 10 25 8.206 25 6 C 25 3.7940000000000005 23.206 2 21 2 M 21 8 C 19.896 8 19 7.104 19 6 C 19 4.896 19.896 4 21 4 C 22.104 4 23 4.896 23 6 C 23 7.104 22.104 8 21 8"
                      stroke-linecap="round"/>
            </g>
            <g transform="matrix(1 0 0 1 4.5 8.5)">
                <path style="stroke: none; stroke-width: 1; stroke-dasharray: none; stroke-linecap: butt; stroke-dashoffset: 0; stroke-linejoin: miter; stroke-miterlimit: 4; fill: rgb(144,202,249); fill-rule: nonzero; opacity: 1;"
                      transform=" translate(-28.5, -32.5)"
                      d="M 42 25 L 39 25 L 39 22 L 36 22 L 36 19 L 42 19 z M 18 25 L 15 25 L 15 19 L 21 19 L 21 22 L 18 22 z M 42 40 L 39 40 L 39 43 L 36 43 L 36 46 L 42 46 z M 18 40 L 15 40 L 15 46 L 21 46 L 21 43 L 18 43 z M 15 28 L 18 28 L 18 31 L 15 31 z M 39 28 L 42 28 L 42 31 L 39 31 z M 15 34 L 18 34 L 18 37 L 15 37 z M 39 34 L 42 34 L 42 37 L 39 37 z M 30 19 L 33 19 L 33 22 L 30 22 z M 24 19 L 27 19 L 27 22 L 24 22 z M 24 43 L 27 43 L 27 46 L 24 46 z M 30 43 L 33 43 L 33 46 L 30 46 z"
                      stroke-linecap="round"/>
            </g>
        </g>
    </g>
</svg>
