<svg viewBox="0 0 56 56" fill="none" xmlns="http://www.w3.org/2000/svg">
    <rect x="0.5" y="0.5" width="55" height="55" rx="11.5" fill="#F7F6FE"/>
    <rect x="0.5" y="0.5" width="55" height="55" rx="11.5" stroke="url(#paint0_linear_1001_2801)"/>
    <path d="M39.6663 25.6667H16.333M26.833 30.3334H20.9997M16.333 23.5667L16.333 32.4334C16.333 33.7402 16.333 34.3936 16.5873 34.8927C16.811 35.3317 17.168 35.6887 17.607 35.9124C18.1062 36.1667 18.7596 36.1667 20.0663 36.1667L35.933 36.1667C37.2398 36.1667 37.8932 36.1667 38.3923 35.9124C38.8314 35.6887 39.1883 35.3317 39.412 34.8927C39.6663 34.3936 39.6663 33.7402 39.6663 32.4334V23.5667C39.6663 22.2599 39.6663 21.6065 39.412 21.1074C39.1883 20.6684 38.8314 20.3114 38.3923 20.0877C37.8932 19.8334 37.2398 19.8334 35.933 19.8334L20.0663 19.8334C18.7596 19.8334 18.1062 19.8334 17.607 20.0877C17.168 20.3114 16.811 20.6684 16.5873 21.1074C16.333 21.6065 16.333 22.2599 16.333 23.5667Z" stroke="#5235E8" stroke-width="2" stroke-linecap="round" stroke-linejoin="round"/>
    <defs>
        <linearGradient id="paint0_linear_1001_2801" x1="28" y1="-7" x2="28" y2="63.35" gradientUnits="userSpaceOnUse">
            <stop stop-color="#D6D1FA"/>
            <stop offset="1" stop-color="#D6D1FA"/>
        </linearGradient>
    </defs>
</svg>
