<svg viewBox="0 0 20 20" fill="none" xmlns="http://www.w3.org/2000/svg">
    <g clip-path="url(#clip0_128_8036)">
        <path d="M16.9307 3.74315C15.6557 3.16815 14.2891 2.74315 12.8599 2.50148C12.8472 2.49904 12.834 2.50061 12.8222 2.50599C12.8104 2.51136 12.8006 2.52027 12.7941 2.53148C12.6191 2.83898 12.4241 3.23982 12.2874 3.55648C10.7717 3.33001 9.23067 3.33001 7.71491 3.55648C7.56269 3.20553 7.39104 2.86334 7.20075 2.53148C7.19429 2.52013 7.18454 2.51102 7.17277 2.50537C7.16101 2.49971 7.1478 2.49777 7.13491 2.49982C5.70658 2.74148 4.33991 3.16648 3.06408 3.74232C3.0531 3.74692 3.0438 3.75477 3.03741 3.76482C0.444079 7.57731 -0.266754 11.2956 0.0824122 14.9673C0.0833839 14.9763 0.0861752 14.985 0.0906163 14.9929C0.0950575 15.0008 0.101056 15.0077 0.108246 15.0131C1.62191 16.1152 3.31019 16.9547 5.10241 17.4965C5.11491 17.5003 5.12827 17.5003 5.14076 17.4965C5.15324 17.4926 5.16428 17.485 5.17241 17.4748C5.55807 16.959 5.89983 16.4118 6.19408 15.839C6.19816 15.8311 6.20052 15.8225 6.20098 15.8137C6.20144 15.8049 6.20001 15.7961 6.19677 15.7879C6.19353 15.7796 6.18856 15.7722 6.1822 15.7661C6.17584 15.7599 6.16824 15.7553 6.15991 15.7523C5.62158 15.5496 5.09998 15.3049 4.59991 15.0206C4.59093 15.0155 4.58335 15.0082 4.57788 14.9995C4.5724 14.9907 4.56918 14.9807 4.56852 14.9704C4.56786 14.96 4.56978 14.9497 4.57409 14.9403C4.5784 14.9309 4.58499 14.9227 4.59325 14.9165C4.69825 14.839 4.80325 14.7581 4.90325 14.6773C4.91225 14.67 4.92309 14.6654 4.93457 14.6639C4.94604 14.6625 4.9577 14.6642 4.96825 14.669C8.24075 16.139 11.7849 16.139 15.0191 14.669C15.0297 14.6639 15.0414 14.662 15.0531 14.6633C15.0647 14.6646 15.0757 14.6692 15.0849 14.6765C15.1849 14.7581 15.2891 14.839 15.3949 14.9165C15.4032 14.9226 15.4099 14.9307 15.4144 14.94C15.4188 14.9493 15.4209 14.9596 15.4204 14.9699C15.4199 14.9802 15.4169 14.9903 15.4116 14.9991C15.4062 15.008 15.3988 15.0154 15.3899 15.0206C14.8916 15.3073 14.3732 15.5498 13.8291 15.7515C13.8207 15.7545 13.8131 15.7593 13.8067 15.7655C13.8004 15.7717 13.7954 15.7792 13.7922 15.7875C13.789 15.7958 13.7875 15.8047 13.788 15.8135C13.7885 15.8224 13.7908 15.8311 13.7949 15.839C14.0949 16.4115 14.4382 16.9565 14.8157 17.474C14.8236 17.4846 14.8345 17.4925 14.8471 17.4967C14.8596 17.5009 14.8731 17.5011 14.8857 17.4973C16.681 16.957 18.3721 16.1171 19.8874 15.0131C19.8948 15.008 19.901 15.0013 19.9056 14.9935C19.9102 14.9858 19.9131 14.9771 19.9141 14.9681C20.3307 10.7231 19.2157 7.03481 16.9566 3.76648C16.951 3.75586 16.9419 3.74758 16.9307 3.74315ZM6.68325 12.7315C5.69825 12.7315 4.88575 11.8406 4.88575 10.7481C4.88575 9.65481 5.68241 8.76481 6.68325 8.76481C7.69158 8.76481 8.49658 9.66231 8.48075 10.7481C8.48075 11.8415 7.68408 12.7315 6.68325 12.7315ZM13.3291 12.7315C12.3432 12.7315 11.5316 11.8406 11.5316 10.7481C11.5316 9.65481 12.3274 8.76481 13.3291 8.76481C14.3374 8.76481 15.1424 9.66231 15.1266 10.7481C15.1266 11.8415 14.3382 12.7315 13.3291 12.7315Z"
              fill="#C8C8D0"/>
    </g>
    <defs>
        <clipPath id="clip0_128_8036">
            <rect width="20" height="20" fill="white"/>
        </clipPath>
    </defs>
</svg>
