<svg viewBox="0 0 40 40" fill="none" xmlns="http://www.w3.org/2000/svg">
    <rect x="0.5" y="0.5" width="39" height="39" rx="7.5" fill="#F7F6FE" stroke="url(#paint0_linear_42_5854)"/>
    <rect x="6.5" y="6.5" width="27" height="27" rx="5.5" fill="white" stroke="url(#paint1_linear_42_5854)"/>
    <path d="M13.333 16.6666L18.7763 20.4769C19.2171 20.7854 19.4375 20.9397 19.6772 20.9994C19.8889 21.0522 20.1104 21.0522 20.3222 20.9994C20.5619 20.9397 20.7823 20.7854 21.2231 20.4769L26.6663 16.6666M16.533 25.3332H23.4663C24.5864 25.3332 25.1465 25.3332 25.5743 25.1152C25.9506 24.9235 26.2566 24.6175 26.4484 24.2412C26.6663 23.8134 26.6663 23.2533 26.6663 22.1332V17.8666C26.6663 16.7465 26.6663 16.1864 26.4484 15.7586C26.2566 15.3823 25.9506 15.0763 25.5743 14.8846C25.1465 14.6666 24.5864 14.6666 23.4663 14.6666H16.533C15.4129 14.6666 14.8529 14.6666 14.425 14.8846C14.0487 15.0763 13.7427 15.3823 13.551 15.7586C13.333 16.1864 13.333 16.7465 13.333 17.8666V22.1332C13.333 23.2533 13.333 23.8134 13.551 24.2412C13.7427 24.6175 14.0487 24.9235 14.425 25.1152C14.8529 25.3332 15.4129 25.3332 16.533 25.3332Z"
          stroke="#5235E8" stroke-width="1.5" stroke-linecap="round" stroke-linejoin="round"/>
    <defs>
        <linearGradient id="paint0_linear_42_5854" x1="20" y1="0" x2="20" y2="40" gradientUnits="userSpaceOnUse">
            <stop stop-color="#EFEDFD"/>
            <stop offset="1" stop-color="#EFEDFD"/>
            <stop offset="1" stop-color="#EFEDFD"/>
        </linearGradient>
        <linearGradient id="paint1_linear_42_5854" x1="20" y1="2.5" x2="20" y2="37.675" gradientUnits="userSpaceOnUse">
            <stop stop-color="#D6D1FA"/>
            <stop offset="1" stop-color="#D6D1FA"/>
        </linearGradient>
    </defs>
</svg>
