<svg viewBox="0 0 20 20" fill="none" xmlns="http://www.w3.org/2000/svg">
    <g clip-path="url(#clip0_128_8024)">
        <path fill-rule="evenodd" clip-rule="evenodd"
              d="M6.22075 0.888496C7.19825 0.843496 7.50992 0.833496 9.99992 0.833496C12.4899 0.833496 12.8016 0.844329 13.7783 0.888496C14.7549 0.932663 15.4216 1.0885 16.0049 1.31433C16.6158 1.54516 17.1699 1.906 17.6283 2.37266C18.0949 2.83016 18.4549 3.3835 18.6849 3.99516C18.9116 4.5785 19.0666 5.24516 19.1116 6.22016C19.1566 7.19933 19.1666 7.511 19.1666 10.0002C19.1666 12.4902 19.1558 12.8018 19.1116 13.7793C19.0674 14.7543 18.9116 15.421 18.6849 16.0043C18.4549 16.6161 18.0943 17.1703 17.6283 17.6285C17.1699 18.0952 16.6158 18.4552 16.0049 18.6852C15.4216 18.9118 14.7549 19.0668 13.7799 19.1118C12.8016 19.1568 12.4899 19.1668 9.99992 19.1668C7.50992 19.1668 7.19825 19.156 6.22075 19.1118C5.24575 19.0677 4.57909 18.9118 3.99575 18.6852C3.38402 18.4551 2.82977 18.0945 2.37159 17.6285C1.90524 17.1707 1.54435 16.6167 1.31409 16.0052C1.08825 15.4218 0.933252 14.7552 0.888252 13.7802C0.843252 12.801 0.833252 12.4893 0.833252 10.0002C0.833252 7.51016 0.844085 7.1985 0.888252 6.22183C0.932419 5.24516 1.08825 4.5785 1.31409 3.99516C1.54469 3.38356 1.90585 2.82959 2.37242 2.37183C2.82995 1.90558 3.38365 1.5447 3.99492 1.31433C4.57825 1.0885 5.24492 0.933496 6.21992 0.888496H6.22075ZM13.7041 2.5385C12.7374 2.49433 12.4474 2.48516 9.99992 2.48516C7.55242 2.48516 7.26242 2.49433 6.29575 2.5385C5.40159 2.57933 4.91659 2.7285 4.59325 2.85433C4.16575 3.021 3.85992 3.2185 3.53909 3.53933C3.23496 3.83521 3.0009 4.1954 2.85409 4.5935C2.72825 4.91683 2.57909 5.40183 2.53825 6.296C2.49409 7.26266 2.48492 7.55266 2.48492 10.0002C2.48492 12.4477 2.49409 12.7377 2.53825 13.7043C2.57909 14.5985 2.72825 15.0835 2.85409 15.4068C3.00075 15.8043 3.23492 16.1652 3.53909 16.461C3.83492 16.7652 4.19575 16.9993 4.59325 17.146C4.91659 17.2718 5.40159 17.421 6.29575 17.4618C7.26242 17.506 7.55159 17.5152 9.99992 17.5152C12.4483 17.5152 12.7374 17.506 13.7041 17.4618C14.5983 17.421 15.0833 17.2718 15.4066 17.146C15.8341 16.9793 16.1399 16.7818 16.4608 16.461C16.7649 16.1652 16.9991 15.8043 17.1458 15.4068C17.2716 15.0835 17.4208 14.5985 17.4616 13.7043C17.5058 12.7377 17.5149 12.4477 17.5149 10.0002C17.5149 7.55266 17.5058 7.26266 17.4616 6.296C17.4208 5.40183 17.2716 4.91683 17.1458 4.5935C16.9791 4.166 16.7816 3.86016 16.4608 3.53933C16.1649 3.23522 15.8047 3.00117 15.4066 2.85433C15.0833 2.7285 14.5983 2.57933 13.7041 2.5385ZM8.82909 12.826C9.48297 13.0982 10.2111 13.1349 10.889 12.9299C11.567 12.7249 12.1527 12.2909 12.5463 11.702C12.9398 11.1131 13.1166 10.4059 13.0466 9.70108C12.9766 8.99628 12.6641 8.33764 12.1624 7.83766C11.8426 7.51806 11.4559 7.27334 11.0302 7.12112C10.6045 6.9689 10.1503 6.91296 9.70033 6.95734C9.25039 7.00172 8.81588 7.14531 8.42809 7.37777C8.0403 7.61023 7.70887 7.92578 7.45767 8.30171C7.20647 8.67763 7.04174 9.10457 6.97535 9.5518C6.90895 9.99902 6.94254 10.4554 7.0737 10.8881C7.20486 11.3208 7.43032 11.719 7.73385 12.0541C8.03739 12.3892 8.41144 12.6528 8.82909 12.826ZM6.66825 6.6685C7.10577 6.23098 7.62519 5.88392 8.19683 5.64713C8.76848 5.41035 9.38117 5.28847 9.99992 5.28847C10.6187 5.28847 11.2314 5.41035 11.803 5.64713C12.3747 5.88391 12.8941 6.23098 13.3316 6.6685C13.7691 7.10602 14.1162 7.62543 14.353 8.19708C14.5897 8.76873 14.7116 9.38142 14.7116 10.0002C14.7116 10.6189 14.5897 11.2316 14.353 11.8032C14.1162 12.3749 13.7691 12.8943 13.3316 13.3318C12.448 14.2154 11.2495 14.7119 9.99992 14.7119C8.7503 14.7119 7.55187 14.2154 6.66825 13.3318C5.78464 12.4482 5.28823 11.2498 5.28823 10.0002C5.28823 8.75055 5.78464 7.55211 6.66825 6.6685ZM15.7566 5.99016C15.865 5.88789 15.9518 5.7649 16.0118 5.62847C16.0719 5.49205 16.1039 5.34497 16.1061 5.19594C16.1083 5.04691 16.0805 4.89895 16.0245 4.76084C15.9685 4.62272 15.8853 4.49726 15.7799 4.39186C15.6745 4.28647 15.549 4.20329 15.4109 4.14726C15.2728 4.09123 15.1248 4.06348 14.9758 4.06565C14.8268 4.06782 14.6797 4.09987 14.5433 4.15991C14.4069 4.21995 14.2839 4.30674 14.1816 4.41516C13.9827 4.62602 13.8738 4.9061 13.878 5.19594C13.8822 5.48578 13.9992 5.76256 14.2042 5.96753C14.4092 6.1725 14.686 6.28952 14.9758 6.29375C15.2657 6.29797 15.5457 6.18907 15.7566 5.99016Z"
              fill="#C8C8D0"/>
    </g>
    <defs>
        <clipPath id="clip0_128_8024">
            <rect width="20" height="20" fill="white"/>
        </clipPath>
    </defs>
</svg>
