<svg viewBox="0 0 20 20" fill="none" xmlns="http://www.w3.org/2000/svg">
    <path d="M4.15243 5.99774C5.15943 5.99774 5.97577 5.18141 5.97577 4.17441C5.97577 3.16741 5.15943 2.35107 4.15243 2.35107C3.14544 2.35107 2.3291 3.16741 2.3291 4.17441C2.3291 5.18141 3.14544 5.99774 4.15243 5.99774Z"
          fill="#C8C8D0"/>
    <path d="M7.69743 7.37939V17.4952H10.8383V12.4927C10.8383 11.1727 11.0866 9.89439 12.7233 9.89439C14.3374 9.89439 14.3574 11.4036 14.3574 12.5761V17.4961H17.4999V11.9486C17.4999 9.22356 16.9133 7.12939 13.7283 7.12939C12.1991 7.12939 11.1741 7.96856 10.7549 8.76273H10.7124V7.37939H7.69743ZM2.5791 7.37939H5.72493V17.4952H2.5791V7.37939Z"
          fill="#C8C8D0"/>
</svg>
