<svg viewBox="0 0 44 34" fill="none" xmlns="http://www.w3.org/2000/svg">
    <g clip-path="url(#clip0_1088_3570)">
        <path d="M43.133 33.5389V33.6263H43.215C43.2304 33.6266 43.2456 33.6227 43.259 33.6152C43.2644 33.6114 43.2687 33.6064 43.2716 33.6005C43.2745 33.5947 43.2758 33.5882 43.2755 33.5817C43.2758 33.5754 43.2744 33.569 43.2716 33.5633C43.2687 33.5576 43.2644 33.5528 43.259 33.5492C43.2458 33.5413 43.2305 33.5374 43.215 33.538H43.133V33.5389ZM43.2159 33.4771C43.2511 33.4749 43.2859 33.485 43.3145 33.5055C43.3259 33.5148 43.335 33.5266 43.341 33.5401C43.347 33.5535 43.3498 33.5682 43.349 33.5828C43.3495 33.5955 43.3473 33.6081 43.3426 33.6198C43.3378 33.6315 43.3305 33.6421 43.3213 33.6508C43.2993 33.6698 43.2716 33.6812 43.2425 33.6834L43.3525 33.8079H43.2678L43.1666 33.6842H43.1339V33.8079H43.063V33.4773H43.217L43.2159 33.4771ZM43.1939 33.922C43.2311 33.9223 43.2679 33.9149 43.3019 33.9001C43.3348 33.8861 43.3646 33.866 43.3899 33.8409C43.4153 33.8158 43.4355 33.7862 43.4496 33.7535C43.4784 33.6842 43.4784 33.6064 43.4496 33.5372C43.4353 33.5046 43.4151 33.475 43.3899 33.4498C43.3646 33.4247 43.3348 33.4046 43.3019 33.3905C43.2677 33.3766 43.2309 33.3696 43.1939 33.37C43.1563 33.3697 43.1189 33.3766 43.0839 33.3905C43.0504 33.4043 43.0198 33.4244 42.9939 33.4498C42.955 33.4894 42.9287 33.5396 42.9183 33.594C42.9078 33.6483 42.9137 33.7046 42.9352 33.7557C42.9486 33.7885 42.9686 33.8182 42.9939 33.8431C43.0198 33.8684 43.0504 33.8885 43.0839 33.9023C43.1187 33.917 43.1561 33.9245 43.1939 33.9241V33.922ZM43.1939 33.2905C43.2906 33.2904 43.3835 33.328 43.4524 33.3954C43.4857 33.4277 43.5121 33.4662 43.5303 33.5088C43.5491 33.5524 43.5588 33.5995 43.5588 33.647C43.5588 33.6945 43.5491 33.7415 43.5303 33.7852C43.5117 33.8275 43.4853 33.866 43.4524 33.8986C43.4187 33.9307 43.3794 33.9566 43.3365 33.9751C43.2914 33.9941 43.2429 34.0037 43.1939 34.0035C43.1444 34.0038 43.0953 33.9942 43.0496 33.9751C43.0062 33.9571 42.9666 33.9311 42.9328 33.8986C42.8999 33.8648 42.8738 33.825 42.856 33.7815C42.8372 33.7378 42.8275 33.6908 42.8275 33.6433C42.8275 33.5957 42.8372 33.5487 42.856 33.505C42.8742 33.4625 42.9006 33.424 42.9339 33.3916C42.9672 33.3585 43.0069 33.3325 43.0507 33.3152C43.0964 33.2961 43.1455 33.2864 43.195 33.2868L43.1939 33.2905ZM9.50752 32.0137C9.50752 31.3833 9.92332 30.8655 10.6029 30.8655C11.2523 30.8655 11.6906 31.361 11.6906 32.0137C11.6906 32.6664 11.2523 33.162 10.6029 33.162C9.92332 33.162 9.50752 32.6441 9.50752 32.0137V32.0137ZM12.4309 32.0137V30.2198H11.6457V30.6568C11.3967 30.3338 11.0189 30.1313 10.5052 30.1313C9.49322 30.1313 8.69902 30.9196 8.69902 32.0146C8.69902 33.1095 9.49278 33.8979 10.5052 33.8979C11.0187 33.8979 11.3967 33.6952 11.6457 33.3724V33.8079H12.43V32.0137H12.4309ZM38.9611 32.0137C38.9611 31.3833 39.3769 30.8655 40.0567 30.8655C40.7068 30.8655 41.1444 31.361 41.1444 32.0137C41.1444 32.6664 40.7068 33.162 40.0567 33.162C39.3771 33.162 38.9611 32.6441 38.9611 32.0137ZM41.8854 32.0137V28.7798H41.0995V30.6568C40.8505 30.3338 40.4727 30.1313 39.959 30.1313C38.947 30.1313 38.1528 30.9196 38.1528 32.0146C38.1528 33.1095 38.9466 33.8979 39.959 33.8979C40.4727 33.8979 40.8505 33.6952 41.0995 33.3724V33.8079H41.8854V32.0137ZM22.176 30.8285C22.682 30.8285 23.0069 31.1436 23.0899 31.6984L21.2164 31.6984C21.3002 31.1805 21.6168 30.8285 22.1762 30.8285H22.176ZM22.1918 30.1293C21.1336 30.1293 20.3933 30.8941 20.3933 32.0126C20.3933 33.153 21.1633 33.896 22.2444 33.896C22.7883 33.896 23.2863 33.7611 23.7246 33.3934L23.3398 32.8154C23.0371 33.0558 22.6516 33.1906 22.2893 33.1906C21.7833 33.1906 21.3226 32.9579 21.2093 32.3122H23.8905C23.8982 32.2152 23.9061 32.1173 23.9061 32.0124C23.8982 30.8943 23.2021 30.1291 22.1914 30.1291L22.1918 30.1293ZM31.6712 32.0124C31.6712 31.382 32.087 30.8641 32.7666 30.8641C33.416 30.8641 33.8543 31.3597 33.8543 32.0124C33.8543 32.6651 33.416 33.1607 32.7666 33.1607C32.087 33.1607 31.671 32.6428 31.671 32.0124H31.6712ZM34.5943 32.0124V30.2198H33.8096V30.6568C33.5597 30.3338 33.1828 30.1313 32.6691 30.1313C31.6571 30.1313 30.8629 30.9196 30.8629 32.0146C30.8629 33.1095 31.6567 33.8979 32.6691 33.8979C33.1828 33.8979 33.5597 33.6952 33.8096 33.3724V33.8079H34.5946V32.0137L34.5943 32.0124ZM27.2371 32.0124C27.2371 33.1004 27.9996 33.8957 29.1634 33.8957C29.7073 33.8957 30.0696 33.7756 30.4614 33.4681L30.0843 32.8377C29.7895 33.0481 29.48 33.1607 29.1383 33.1607C28.5116 33.153 28.0507 32.7029 28.0507 32.0124C28.0507 31.3219 28.5116 30.872 29.1383 30.8641C29.4791 30.8641 29.7887 30.9767 30.0843 31.1871L30.4614 30.5567C30.0689 30.2493 29.7066 30.1291 29.1634 30.1291C27.9996 30.1291 27.2371 30.9242 27.2371 32.0124V32.0124ZM37.3593 30.1291C36.9063 30.1291 36.6113 30.3395 36.4074 30.6546V30.2198H35.6292V33.8059H36.4153V31.7956C36.4153 31.2022 36.672 30.8724 37.1853 30.8724C37.3533 30.87 37.5202 30.9007 37.6763 30.9627L37.9183 30.2276C37.7445 30.1597 37.5179 30.1297 37.3589 30.1297L37.3593 30.1291ZM16.3128 30.5049C15.935 30.2576 15.4145 30.1297 14.8403 30.1297C13.9256 30.1297 13.3366 30.5652 13.3366 31.2778C13.3366 31.8625 13.7751 32.2233 14.5825 32.3358L14.9534 32.3882C15.3839 32.4483 15.5872 32.5609 15.5872 32.7634C15.5872 33.0407 15.3012 33.1989 14.7642 33.1989C14.2204 33.1989 13.8279 33.0263 13.5632 32.8237L13.1943 33.4318C13.6248 33.7469 14.1687 33.8973 14.7576 33.8973C15.8004 33.8973 16.4047 33.4096 16.4047 32.7267C16.4047 32.0963 15.9291 31.7666 15.1433 31.6541L14.7732 31.6007C14.4333 31.557 14.161 31.4891 14.161 31.2487C14.161 30.9865 14.4177 30.8287 14.8485 30.8287C15.3094 30.8287 15.7555 31.0014 15.9742 31.1362L16.3141 30.5058L16.3128 30.5049ZM26.444 30.1304C25.991 30.1304 25.696 30.3408 25.4929 30.6559V30.2198H24.7148V33.8059H25.5V31.7956C25.5 31.2022 25.7567 30.8724 26.27 30.8724C26.4381 30.87 26.6049 30.9007 26.761 30.9627L27.003 30.2276C26.8292 30.1597 26.6026 30.1297 26.4436 30.1297L26.444 30.1304ZM19.7437 30.2198H18.4598V29.1318H17.666V30.2198H16.9336V30.9325H17.666V32.5685C17.666 33.4006 17.9912 33.8962 18.92 33.8962C19.2608 33.8962 19.6533 33.7913 19.9023 33.6189L19.6755 32.9511C19.4412 33.0859 19.1844 33.1539 18.9803 33.1539C18.5878 33.1539 18.4598 32.9135 18.4598 32.5537V30.9332H19.7437V30.2198ZM8.0047 33.8068V31.5562C8.0047 30.7086 7.46086 30.1383 6.58416 30.1306C6.12326 30.123 5.64784 30.2654 5.31498 30.7687C5.06594 30.371 4.67346 30.1306 4.1217 30.1306C3.73604 30.1306 3.35918 30.2431 3.06416 30.6631V30.2198H2.27832L2.27832 33.8059H3.07032V31.8175C3.07032 31.195 3.41792 30.8641 3.95472 30.8641C4.47612 30.8641 4.7399 31.2017 4.7399 31.8096V33.8055H5.53366V31.8171C5.53366 31.1945 5.896 30.8637 6.41718 30.8637C6.95332 30.8637 7.20918 31.2013 7.20918 31.8092L7.20918 33.8051L8.0047 33.8068Z" fill="white" fill-opacity="0.7"/>
        <path fill-rule="evenodd" clip-rule="evenodd" d="M21.5742 20.234C24.3813 18.1833 26.197 14.9182 26.197 11.2407C26.197 7.5632 24.3813 4.29817 21.5742 2.24739C23.5058 0.836214 25.9069 0 28.5087 0C34.8916 0 40.066 5.03264 40.066 11.2407C40.066 17.4488 34.8916 22.4814 28.5087 22.4814C25.9069 22.4814 23.5058 21.6452 21.5742 20.234Z" fill="white" fill-opacity="0.4"/>
        <path fill-rule="evenodd" clip-rule="evenodd" d="M21.5738 2.2474C18.7667 4.29817 16.951 7.56321 16.951 11.2407C16.951 14.9182 18.7667 18.1833 21.5738 20.234C19.6422 21.6452 17.2412 22.4814 14.6393 22.4814C8.25642 22.4814 3.08203 17.4488 3.08203 11.2407C3.08203 5.03264 8.25642 0 14.6393 0C17.2412 0 19.6422 0.836215 21.5738 2.2474Z" fill="white" fill-opacity="0.3"/>
        <path opacity="0.7" fill-rule="evenodd" clip-rule="evenodd" d="M21.5738 20.4387C24.3808 18.3416 26.1964 15.0026 26.1964 11.2417C26.1964 7.48087 24.3808 4.14186 21.5738 2.04468C18.7668 4.14186 16.9512 7.48087 16.9512 11.2417C16.9512 15.0026 18.7668 18.3416 21.5738 20.4387Z" fill="white"/>
    </g>
    <defs>
        <clipPath id="clip0_1088_3570">
            <rect width="44" height="34" fill="white"/>
        </clipPath>
    </defs>
</svg>
