<svg viewBox="0 0 37 23" fill="none" xmlns="http://www.w3.org/2000/svg">
    <path fill-rule="evenodd" clip-rule="evenodd"
          d="M18.4922 20.234C21.2993 18.1833 23.115 14.9182 23.115 11.2407C23.115 7.5632 21.2993 4.29817 18.4922 2.24739C20.4238 0.836214 22.8248 0 25.4267 0C31.8096 0 36.984 5.03264 36.984 11.2407C36.984 17.4488 31.8096 22.4814 25.4267 22.4814C22.8248 22.4814 20.4238 21.6452 18.4922 20.234Z"
          fill="#E3E3E8"/>
    <path fill-rule="evenodd" clip-rule="evenodd"
          d="M18.4918 2.2474C15.6847 4.29817 13.869 7.56321 13.869 11.2407C13.869 14.9182 15.6847 18.1833 18.4918 20.234C16.5602 21.6452 14.1592 22.4814 11.5573 22.4814C5.17438 22.4814 0 17.4488 0 11.2407C0 5.03264 5.17438 0 11.5573 0C14.1592 0 16.5602 0.836215 18.4918 2.2474Z"
          fill="#C8C8D0"/>
    <path opacity="0.7" fill-rule="evenodd" clip-rule="evenodd"
          d="M18.4918 20.4387C21.2987 18.3416 23.1144 15.0026 23.1144 11.2417C23.1144 7.48087 21.2987 4.14186 18.4918 2.04468C15.6848 4.14186 13.8691 7.48087 13.8691 11.2417C13.8691 15.0026 15.6848 18.3416 18.4918 20.4387Z"
          fill="#C8C8D0"/>
</svg>
