<svg viewBox="0 0 18 16" fill="none" xmlns="http://www.w3.org/2000/svg">
    <path fill-rule="evenodd" clip-rule="evenodd"
          d="M0.600098 1.9998C0.600098 1.33706 1.13736 0.799805 1.8001 0.799805H16.2001C16.8628 0.799805 17.4001 1.33706 17.4001 1.9998C17.4001 2.66255 16.8628 3.1998 16.2001 3.1998H1.8001C1.13736 3.1998 0.600098 2.66255 0.600098 1.9998Z"
          fill="#8D98AF"/>
    <path fill-rule="evenodd" clip-rule="evenodd"
          d="M0.600098 7.9998C0.600098 7.33706 1.13736 6.7998 1.8001 6.7998H9.0001C9.66284 6.7998 10.2001 7.33706 10.2001 7.9998C10.2001 8.66255 9.66284 9.19981 9.0001 9.19981H1.8001C1.13736 9.19981 0.600098 8.66255 0.600098 7.9998Z"
          fill="#8D98AF"/>
    <path fill-rule="evenodd" clip-rule="evenodd"
          d="M0.600098 13.9998C0.600098 13.3371 1.13736 12.7998 1.8001 12.7998H16.2001C16.8628 12.7998 17.4001 13.3371 17.4001 13.9998C17.4001 14.6625 16.8628 15.1998 16.2001 15.1998H1.8001C1.13736 15.1998 0.600098 14.6625 0.600098 13.9998Z"
          fill="#8D98AF"/>
</svg>
