<svg viewBox="0 0 18 20" fill="none" xmlns="http://www.w3.org/2000/svg">
    <path fill-rule="evenodd" clip-rule="evenodd" d="M3.0001 8.79999V6.39999C3.0001 3.08629 5.68639 0.399994 9.0001 0.399994C12.3138 0.399994 15.0001 3.08629 15.0001 6.39999V8.79999C16.3256 8.79999 17.4001 9.87451 17.4001 11.2V17.2C17.4001 18.5255 16.3256 19.6 15.0001 19.6H3.0001C1.67461 19.6 0.600098 18.5255 0.600098 17.2V11.2C0.600098 9.87451 1.67461 8.79999 3.0001 8.79999ZM12.6001 6.39999V8.79999H5.4001V6.39999C5.4001 4.41177 7.01187 2.79999 9.0001 2.79999C10.9883 2.79999 12.6001 4.41177 12.6001 6.39999Z" fill="#B0B7C3"/>
</svg>
