<svg viewBox="0 0 160 160" fill="none" xmlns="http://www.w3.org/2000/svg">
    <rect width="160" height="160" rx="12" fill="white"/>
    <line x1="16.5" y1="2.18557e-08" x2="16.5" y2="160" stroke="url(#paint0_linear_42_5996)"/>
    <line x1="16.5" y1="2.18557e-08" x2="16.5" y2="160" stroke="url(#paint1_linear_42_5996)"/>
    <line x1="32.5" y1="2.18557e-08" x2="32.5" y2="160" stroke="url(#paint2_linear_42_5996)"/>
    <line x1="32.5" y1="2.18557e-08" x2="32.5" y2="160" stroke="url(#paint3_linear_42_5996)"/>
    <line x1="48.5" y1="2.18557e-08" x2="48.5" y2="160" stroke="url(#paint4_linear_42_5996)"/>
    <line x1="48.5" y1="2.18557e-08" x2="48.5" y2="160" stroke="url(#paint5_linear_42_5996)"/>
    <line x1="64.5" y1="2.18557e-08" x2="64.5" y2="160" stroke="url(#paint6_linear_42_5996)"/>
    <line x1="64.5" y1="2.18557e-08" x2="64.5" y2="160" stroke="url(#paint7_linear_42_5996)"/>
    <line x1="80.5" y1="2.18557e-08" x2="80.5" y2="160" stroke="url(#paint8_linear_42_5996)"/>
    <line x1="80.5" y1="2.18557e-08" x2="80.5" y2="160" stroke="url(#paint9_linear_42_5996)"/>
    <line x1="96.5" y1="2.18557e-08" x2="96.5" y2="160" stroke="url(#paint10_linear_42_5996)"/>
    <line x1="96.5" y1="2.18557e-08" x2="96.5" y2="160" stroke="url(#paint11_linear_42_5996)"/>
    <line x1="112.5" y1="2.18557e-08" x2="112.5" y2="160" stroke="url(#paint12_linear_42_5996)"/>
    <line x1="112.5" y1="2.18557e-08" x2="112.5" y2="160" stroke="url(#paint13_linear_42_5996)"/>
    <line x1="128.5" y1="2.18557e-08" x2="128.5" y2="160" stroke="url(#paint14_linear_42_5996)"/>
    <line x1="128.5" y1="2.18557e-08" x2="128.5" y2="160" stroke="url(#paint15_linear_42_5996)"/>
    <line x1="144.5" y1="2.18557e-08" x2="144.5" y2="160" stroke="url(#paint16_linear_42_5996)"/>
    <line x1="144.5" y1="2.18557e-08" x2="144.5" y2="160" stroke="url(#paint17_linear_42_5996)"/>
    <line y1="15.5" x2="160" y2="15.5" stroke="url(#paint18_linear_42_5996)"/>
    <line y1="15.5" x2="160" y2="15.5" stroke="url(#paint19_linear_42_5996)"/>
    <line y1="31.5" x2="160" y2="31.5" stroke="url(#paint20_linear_42_5996)"/>
    <line y1="31.5" x2="160" y2="31.5" stroke="url(#paint21_linear_42_5996)"/>
    <line y1="47.5" x2="160" y2="47.5" stroke="url(#paint22_linear_42_5996)"/>
    <line y1="47.5" x2="160" y2="47.5" stroke="url(#paint23_linear_42_5996)"/>
    <line y1="63.5" x2="160" y2="63.5" stroke="url(#paint24_linear_42_5996)"/>
    <line y1="63.5" x2="160" y2="63.5" stroke="url(#paint25_linear_42_5996)"/>
    <line y1="79.5" x2="160" y2="79.5" stroke="url(#paint26_linear_42_5996)"/>
    <line y1="79.5" x2="160" y2="79.5" stroke="url(#paint27_linear_42_5996)"/>
    <line y1="95.5" x2="160" y2="95.5" stroke="url(#paint28_linear_42_5996)"/>
    <line y1="95.5" x2="160" y2="95.5" stroke="url(#paint29_linear_42_5996)"/>
    <line y1="111.5" x2="160" y2="111.5" stroke="url(#paint30_linear_42_5996)"/>
    <line y1="111.5" x2="160" y2="111.5" stroke="url(#paint31_linear_42_5996)"/>
    <line y1="127.5" x2="160" y2="127.5" stroke="url(#paint32_linear_42_5996)"/>
    <line y1="127.5" x2="160" y2="127.5" stroke="url(#paint33_linear_42_5996)"/>
    <line y1="143.5" x2="160" y2="143.5" stroke="url(#paint34_linear_42_5996)"/>
    <line y1="143.5" x2="160" y2="143.5" stroke="url(#paint35_linear_42_5996)"/>
    <rect x="30.5" y="30.5" width="99" height="99" rx="11.5" fill="#F7F6FE" stroke="url(#paint36_linear_42_5996)"/>
    <rect x="40.5" y="40.5" width="79" height="79" rx="11.5" fill="white" stroke="url(#paint37_linear_42_5996)"/>
    <path d="M92.1663 95V85M87.1663 90H97.1663M97.1663 76.6667H63.833M97.1663 80V73.6667C97.1663 71.7999 97.1663 70.8664 96.803 70.1534C96.4835 69.5262 95.9735 69.0163 95.3463 68.6967C94.6333 68.3334 93.6999 68.3334 91.833 68.3334H69.1663C67.2995 68.3334 66.3661 68.3334 65.653 68.6967C65.0258 69.0163 64.5159 69.5262 64.1963 70.1534C63.833 70.8664 63.833 71.7999 63.833 73.6667V86.3334C63.833 88.2002 63.833 89.1336 64.1963 89.8467C64.5159 90.4739 65.0258 90.9838 65.653 91.3034C66.3661 91.6667 67.2995 91.6667 69.1663 91.6667H80.4997"
          stroke="#5235E8" stroke-width="2" stroke-linecap="round" stroke-linejoin="round"/>
    <defs>
        <linearGradient id="paint0_linear_42_5996" x1="15.9997" y1="69.6776" x2="-23.3832" y2="-1.53921"
                        gradientUnits="userSpaceOnUse">
            <stop stop-color="#F4F4F6"/>
            <stop offset="1" stop-color="white"/>
        </linearGradient>
        <linearGradient id="paint1_linear_42_5996" x1="-17.9998" y1="161.032" x2="16.8207" y2="80.7901"
                        gradientUnits="userSpaceOnUse">
            <stop stop-color="white"/>
            <stop offset="1" stop-color="#F4F4F6" stop-opacity="0"/>
        </linearGradient>
        <linearGradient id="paint2_linear_42_5996" x1="31.9997" y1="69.6776" x2="-7.38324" y2="-1.53921"
                        gradientUnits="userSpaceOnUse">
            <stop stop-color="#F4F4F6"/>
            <stop offset="1" stop-color="white"/>
        </linearGradient>
        <linearGradient id="paint3_linear_42_5996" x1="-1.99983" y1="161.032" x2="32.8207" y2="80.7901"
                        gradientUnits="userSpaceOnUse">
            <stop stop-color="white"/>
            <stop offset="1" stop-color="#F4F4F6" stop-opacity="0"/>
        </linearGradient>
        <linearGradient id="paint4_linear_42_5996" x1="47.9997" y1="69.6776" x2="8.61676" y2="-1.53921"
                        gradientUnits="userSpaceOnUse">
            <stop stop-color="#F4F4F6"/>
            <stop offset="1" stop-color="white"/>
        </linearGradient>
        <linearGradient id="paint5_linear_42_5996" x1="14.0002" y1="161.032" x2="48.8207" y2="80.7901"
                        gradientUnits="userSpaceOnUse">
            <stop stop-color="white"/>
            <stop offset="1" stop-color="#F4F4F6" stop-opacity="0"/>
        </linearGradient>
        <linearGradient id="paint6_linear_42_5996" x1="63.9997" y1="69.6776" x2="24.6168" y2="-1.53921"
                        gradientUnits="userSpaceOnUse">
            <stop stop-color="#F4F4F6"/>
            <stop offset="1" stop-color="white"/>
        </linearGradient>
        <linearGradient id="paint7_linear_42_5996" x1="30.0002" y1="161.032" x2="64.8207" y2="80.7901"
                        gradientUnits="userSpaceOnUse">
            <stop stop-color="white"/>
            <stop offset="1" stop-color="#F4F4F6" stop-opacity="0"/>
        </linearGradient>
        <linearGradient id="paint8_linear_42_5996" x1="79.9997" y1="69.6776" x2="40.6168" y2="-1.53921"
                        gradientUnits="userSpaceOnUse">
            <stop stop-color="#F4F4F6"/>
            <stop offset="1" stop-color="white"/>
        </linearGradient>
        <linearGradient id="paint9_linear_42_5996" x1="46.0002" y1="161.032" x2="80.8207" y2="80.7901"
                        gradientUnits="userSpaceOnUse">
            <stop stop-color="white"/>
            <stop offset="1" stop-color="#F4F4F6" stop-opacity="0"/>
        </linearGradient>
        <linearGradient id="paint10_linear_42_5996" x1="95.9997" y1="69.6776" x2="56.6168" y2="-1.53921"
                        gradientUnits="userSpaceOnUse">
            <stop stop-color="#F4F4F6"/>
            <stop offset="1" stop-color="white"/>
        </linearGradient>
        <linearGradient id="paint11_linear_42_5996" x1="62.0002" y1="161.032" x2="96.8207" y2="80.7901"
                        gradientUnits="userSpaceOnUse">
            <stop stop-color="white"/>
            <stop offset="1" stop-color="#F4F4F6" stop-opacity="0"/>
        </linearGradient>
        <linearGradient id="paint12_linear_42_5996" x1="112" y1="69.6776" x2="72.6168" y2="-1.53921"
                        gradientUnits="userSpaceOnUse">
            <stop stop-color="#F4F4F6"/>
            <stop offset="1" stop-color="white"/>
        </linearGradient>
        <linearGradient id="paint13_linear_42_5996" x1="78.0002" y1="161.032" x2="112.821" y2="80.7901"
                        gradientUnits="userSpaceOnUse">
            <stop stop-color="white"/>
            <stop offset="1" stop-color="#F4F4F6" stop-opacity="0"/>
        </linearGradient>
        <linearGradient id="paint14_linear_42_5996" x1="128" y1="69.6776" x2="88.6168" y2="-1.53921"
                        gradientUnits="userSpaceOnUse">
            <stop stop-color="#F4F4F6"/>
            <stop offset="1" stop-color="white"/>
        </linearGradient>
        <linearGradient id="paint15_linear_42_5996" x1="94.0002" y1="161.032" x2="128.821" y2="80.7901"
                        gradientUnits="userSpaceOnUse">
            <stop stop-color="white"/>
            <stop offset="1" stop-color="#F4F4F6" stop-opacity="0"/>
        </linearGradient>
        <linearGradient id="paint16_linear_42_5996" x1="144" y1="69.6776" x2="104.617" y2="-1.53921"
                        gradientUnits="userSpaceOnUse">
            <stop stop-color="#F4F4F6"/>
            <stop offset="1" stop-color="white"/>
        </linearGradient>
        <linearGradient id="paint17_linear_42_5996" x1="110" y1="161.032" x2="144.821" y2="80.7901"
                        gradientUnits="userSpaceOnUse">
            <stop stop-color="white"/>
            <stop offset="1" stop-color="#F4F4F6" stop-opacity="0"/>
        </linearGradient>
        <linearGradient id="paint18_linear_42_5996" x1="69.6776" y1="16.0003" x2="-1.53921" y2="55.3832"
                        gradientUnits="userSpaceOnUse">
            <stop stop-color="#F4F4F6"/>
            <stop offset="1" stop-color="white"/>
        </linearGradient>
        <linearGradient id="paint19_linear_42_5996" x1="161.032" y1="49.9998" x2="80.7901" y2="15.1793"
                        gradientUnits="userSpaceOnUse">
            <stop stop-color="white"/>
            <stop offset="1" stop-color="#F4F4F6" stop-opacity="0"/>
        </linearGradient>
        <linearGradient id="paint20_linear_42_5996" x1="69.6776" y1="32.0003" x2="-1.53921" y2="71.3832"
                        gradientUnits="userSpaceOnUse">
            <stop stop-color="#F4F4F6"/>
            <stop offset="1" stop-color="white"/>
        </linearGradient>
        <linearGradient id="paint21_linear_42_5996" x1="161.032" y1="65.9998" x2="80.7901" y2="31.1793"
                        gradientUnits="userSpaceOnUse">
            <stop stop-color="white"/>
            <stop offset="1" stop-color="#F4F4F6" stop-opacity="0"/>
        </linearGradient>
        <linearGradient id="paint22_linear_42_5996" x1="69.6776" y1="48.0003" x2="-1.53921" y2="87.3832"
                        gradientUnits="userSpaceOnUse">
            <stop stop-color="#F4F4F6"/>
            <stop offset="1" stop-color="white"/>
        </linearGradient>
        <linearGradient id="paint23_linear_42_5996" x1="161.032" y1="81.9998" x2="80.7901" y2="47.1793"
                        gradientUnits="userSpaceOnUse">
            <stop stop-color="white"/>
            <stop offset="1" stop-color="#F4F4F6" stop-opacity="0"/>
        </linearGradient>
        <linearGradient id="paint24_linear_42_5996" x1="69.6776" y1="64.0003" x2="-1.53921" y2="103.383"
                        gradientUnits="userSpaceOnUse">
            <stop stop-color="#F4F4F6"/>
            <stop offset="1" stop-color="white"/>
        </linearGradient>
        <linearGradient id="paint25_linear_42_5996" x1="161.032" y1="97.9998" x2="80.7901" y2="63.1793"
                        gradientUnits="userSpaceOnUse">
            <stop stop-color="white"/>
            <stop offset="1" stop-color="#F4F4F6" stop-opacity="0"/>
        </linearGradient>
        <linearGradient id="paint26_linear_42_5996" x1="69.6776" y1="80.0003" x2="-1.53921" y2="119.383"
                        gradientUnits="userSpaceOnUse">
            <stop stop-color="#F4F4F6"/>
            <stop offset="1" stop-color="white"/>
        </linearGradient>
        <linearGradient id="paint27_linear_42_5996" x1="161.032" y1="114" x2="80.7901" y2="79.1793"
                        gradientUnits="userSpaceOnUse">
            <stop stop-color="white"/>
            <stop offset="1" stop-color="#F4F4F6" stop-opacity="0"/>
        </linearGradient>
        <linearGradient id="paint28_linear_42_5996" x1="69.6776" y1="96.0003" x2="-1.53921" y2="135.383"
                        gradientUnits="userSpaceOnUse">
            <stop stop-color="#F4F4F6"/>
            <stop offset="1" stop-color="white"/>
        </linearGradient>
        <linearGradient id="paint29_linear_42_5996" x1="161.032" y1="130" x2="80.7901" y2="95.1793"
                        gradientUnits="userSpaceOnUse">
            <stop stop-color="white"/>
            <stop offset="1" stop-color="#F4F4F6" stop-opacity="0"/>
        </linearGradient>
        <linearGradient id="paint30_linear_42_5996" x1="69.6776" y1="112" x2="-1.53921" y2="151.383"
                        gradientUnits="userSpaceOnUse">
            <stop stop-color="#F4F4F6"/>
            <stop offset="1" stop-color="white"/>
        </linearGradient>
        <linearGradient id="paint31_linear_42_5996" x1="161.032" y1="146" x2="80.7901" y2="111.179"
                        gradientUnits="userSpaceOnUse">
            <stop stop-color="white"/>
            <stop offset="1" stop-color="#F4F4F6" stop-opacity="0"/>
        </linearGradient>
        <linearGradient id="paint32_linear_42_5996" x1="69.6776" y1="128" x2="-1.53921" y2="167.383"
                        gradientUnits="userSpaceOnUse">
            <stop stop-color="#F4F4F6"/>
            <stop offset="1" stop-color="white"/>
        </linearGradient>
        <linearGradient id="paint33_linear_42_5996" x1="161.032" y1="162" x2="80.7901" y2="127.179"
                        gradientUnits="userSpaceOnUse">
            <stop stop-color="white"/>
            <stop offset="1" stop-color="#F4F4F6" stop-opacity="0"/>
        </linearGradient>
        <linearGradient id="paint34_linear_42_5996" x1="69.6776" y1="144" x2="-1.53921" y2="183.383"
                        gradientUnits="userSpaceOnUse">
            <stop stop-color="#F4F4F6"/>
            <stop offset="1" stop-color="white"/>
        </linearGradient>
        <linearGradient id="paint35_linear_42_5996" x1="161.032" y1="178" x2="80.7901" y2="143.179"
                        gradientUnits="userSpaceOnUse">
            <stop stop-color="white"/>
            <stop offset="1" stop-color="#F4F4F6" stop-opacity="0"/>
        </linearGradient>
        <linearGradient id="paint36_linear_42_5996" x1="80" y1="30" x2="80" y2="130" gradientUnits="userSpaceOnUse">
            <stop stop-color="#EFEDFD"/>
            <stop offset="1" stop-color="#EFEDFD"/>
            <stop offset="1" stop-color="#EFEDFD"/>
        </linearGradient>
        <linearGradient id="paint37_linear_42_5996" x1="80" y1="30" x2="80" y2="130.5" gradientUnits="userSpaceOnUse">
            <stop stop-color="#D6D1FA"/>
            <stop offset="1" stop-color="#D6D1FA"/>
        </linearGradient>
    </defs>
</svg>
