<svg viewBox="0 0 20 20" fill="none" xmlns="http://www.w3.org/2000/svg">
    <path d="M7.99972 1.20001C6.43542 1.56265 4.99664 2.33721 3.8326 3.44335C2.66856 4.54949 1.82166 5.94692 1.37975 7.49069C0.937835 9.03446 0.917001 10.6684 1.31941 12.2229C1.72182 13.7774 2.53281 15.196 3.66827 16.3315C4.80372 17.4669 6.22229 18.2779 7.77683 18.6803C9.33137 19.0827 10.9653 19.0619 12.509 18.62C14.0528 18.1781 15.4502 17.3312 16.5564 16.1671C17.6625 15.0031 18.4371 13.5643 18.7997 12C18.7997 11.7348 18.6944 11.4804 18.5068 11.2929C18.3193 11.1054 18.0649 11 17.7997 11H10.9997C10.4693 11 9.96058 10.7893 9.58551 10.4142C9.21043 10.0392 8.99972 9.53045 8.99972 9.00001V2.00001C8.98729 1.88154 8.95147 1.76671 8.89433 1.66218C8.83719 1.55766 8.75987 1.46551 8.66685 1.3911C8.57383 1.31668 8.46696 1.26147 8.35244 1.22867C8.23792 1.19587 8.11803 1.18613 7.99972 1.20001Z"
          stroke="#5235E8" stroke-width="1.5" stroke-linecap="round" stroke-linejoin="round"/>
    <path d="M13 1.5C14.2697 1.94708 15.423 2.6733 16.3748 3.62516C17.3267 4.57702 18.0529 5.73028 18.5 7H14C13.7348 7 13.4804 6.89464 13.2929 6.70711C13.1054 6.51957 13 6.26522 13 6V1.5Z"
          stroke="#5235E8" stroke-width="1.5" stroke-linecap="round" stroke-linejoin="round"/>
</svg>
