<svg viewBox="0 0 20 20" fill="none" xmlns="http://www.w3.org/2000/svg">
    <g clip-path="url(#clip0_525_2566)">
        <path d="M5 3.33331V4.99998" stroke="#DAF727" stroke-width="1.5" stroke-linecap="round" stroke-linejoin="round"/>
        <path d="M5 9.16669V16.6667" stroke="#DAF727" stroke-width="1.5" stroke-linecap="round" stroke-linejoin="round"/>
        <path d="M5.8335 5H4.16683C3.70659 5 3.3335 5.3731 3.3335 5.83333V8.33333C3.3335 8.79357 3.70659 9.16667 4.16683 9.16667H5.8335C6.29373 9.16667 6.66683 8.79357 6.66683 8.33333V5.83333C6.66683 5.3731 6.29373 5 5.8335 5Z" fill="#5235E8" stroke="#5235E8" stroke-width="1.5" stroke-linecap="round" stroke-linejoin="round"/>
        <path d="M10 3.33331V11.6666" stroke="#D6D1FA" stroke-width="1.5" stroke-linecap="round" stroke-linejoin="round"/>
        <path d="M10 15.8333V16.6666" stroke="#D6D1FA" stroke-width="1.5" stroke-linecap="round" stroke-linejoin="round"/>
        <path d="M10.8335 11.6667H9.16683C8.70659 11.6667 8.3335 12.0398 8.3335 12.5V15C8.3335 15.4603 8.70659 15.8334 9.16683 15.8334H10.8335C11.2937 15.8334 11.6668 15.4603 11.6668 15V12.5C11.6668 12.0398 11.2937 11.6667 10.8335 11.6667Z" fill="#5235E8" stroke="#5235E8" stroke-width="1.5" stroke-linecap="round" stroke-linejoin="round"/>
        <path d="M15 3.33331V4.16665" stroke="#5235E8" stroke-width="1.5" stroke-linecap="round" stroke-linejoin="round"/>
        <path d="M15 9.16669V16.6667" stroke="#5235E8" stroke-width="1.5" stroke-linecap="round" stroke-linejoin="round"/>
        <path d="M15.8335 4.16669H14.1668C13.7066 4.16669 13.3335 4.53978 13.3335 5.00002V8.33335C13.3335 8.79359 13.7066 9.16669 14.1668 9.16669H15.8335C16.2937 9.16669 16.6668 8.79359 16.6668 8.33335V5.00002C16.6668 4.53978 16.2937 4.16669 15.8335 4.16669Z" fill="#DAF727" stroke="#DAF727" stroke-width="1.5" stroke-linecap="round" stroke-linejoin="round"/>
    </g>
    <defs>
        <clipPath id="clip0_525_2566">
            <rect width="20" height="20" fill="white"/>
        </clipPath>
    </defs>
</svg>
