<svg width="160" height="16" viewBox="0 0 160 16" fill="none" xmlns="http://www.w3.org/2000/svg">
    <path d="M11.3327 6.66667V5.33333C11.3327 3.49238 9.8403 2 7.99935 2C6.1584 2 4.66602 3.49238 4.66602 5.33333V6.66667M7.99935 9.66667V11M5.86602 14H10.1327C11.2528 14 11.8128 14 12.2407 13.782C12.617 13.5903 12.9229 13.2843 13.1147 12.908C13.3327 12.4802 13.3327 11.9201 13.3327 10.8V9.86667C13.3327 8.74656 13.3327 8.18651 13.1147 7.75869C12.9229 7.38236 12.617 7.0764 12.2407 6.88465C11.8128 6.66667 11.2528 6.66667 10.1327 6.66667H5.86602C4.74591 6.66667 4.18586 6.66667 3.75803 6.88465C3.38171 7.0764 3.07575 7.38236 2.884 7.75869C2.66602 8.18651 2.66602 8.74656 2.66602 9.86667V10.8C2.66602 11.9201 2.66602 12.4802 2.884 12.908C3.07575 13.2843 3.38171 13.5903 3.75803 13.782C4.18586 14 4.74591 14 5.86602 14Z"
          stroke="#9C9CAB" stroke-width="1.5" stroke-linecap="round" stroke-linejoin="round"/>
    <path d="M20.816 12V3.6H24.044C25.724 3.6 26.828 4.608 26.828 6.18C26.828 7.752 25.724 8.772 24.044 8.772H21.86V12H20.816ZM23.96 4.56H21.86V7.812H23.948C25.052 7.812 25.76 7.176 25.76 6.18C25.76 5.184 25.064 4.56 23.96 4.56ZM30.689 5.88H30.965V6.84H30.473C29.189 6.84 28.841 7.908 28.841 8.88V12H27.857V5.88H28.709L28.841 6.804C29.129 6.336 29.597 5.88 30.689 5.88ZM34.3464 12.072C32.5584 12.072 31.3104 10.8 31.3104 8.94C31.3104 7.08 32.5584 5.808 34.3464 5.808C36.1344 5.808 37.3824 7.08 37.3824 8.94C37.3824 10.8 36.1344 12.072 34.3464 12.072ZM34.3464 11.196C35.5584 11.196 36.3744 10.248 36.3744 8.94C36.3744 7.632 35.5584 6.684 34.3464 6.684C33.1344 6.684 32.3184 7.632 32.3184 8.94C32.3184 10.248 33.1344 11.196 34.3464 11.196ZM41.3188 12.072C39.5308 12.072 38.3548 10.86 38.3548 8.952C38.3548 7.08 39.5668 5.808 41.3428 5.808C42.8428 5.808 43.7908 6.648 44.0428 7.992H43.0108C42.8308 7.176 42.2308 6.684 41.3308 6.684C40.1548 6.684 39.3628 7.62 39.3628 8.952C39.3628 10.284 40.1548 11.196 41.3308 11.196C42.2068 11.196 42.8068 10.692 42.9988 9.912H44.0428C43.8028 11.232 42.8068 12.072 41.3188 12.072ZM48.0015 12.072C46.1655 12.072 44.9655 10.812 44.9655 8.94C44.9655 7.08 46.1415 5.808 47.8695 5.808C49.5975 5.808 50.7255 6.9 50.7735 8.712C50.7735 8.844 50.7615 8.988 50.7495 9.132H45.9975V9.216C46.0335 10.38 46.7655 11.196 47.9295 11.196C48.7935 11.196 49.4655 10.74 49.6695 9.948H50.6655C50.4255 11.172 49.4175 12.072 48.0015 12.072ZM46.0575 8.316H49.7175C49.6215 7.26 48.9015 6.672 47.8815 6.672C46.9815 6.672 46.1535 7.32 46.0575 8.316ZM51.6809 9.984H52.6889C52.7249 10.704 53.3609 11.232 54.3809 11.232C55.2449 11.232 55.8569 10.86 55.8569 10.296C55.8569 9.528 55.1849 9.468 54.2729 9.36C52.9049 9.192 51.8129 8.916 51.8129 7.644C51.8129 6.528 52.8329 5.796 54.2129 5.808C55.6049 5.82 56.6129 6.468 56.7089 7.74H55.7009C55.6289 7.116 55.0529 6.648 54.2129 6.648C53.3609 6.648 52.7849 7.008 52.7849 7.572C52.7849 8.244 53.4329 8.328 54.3209 8.436C55.7129 8.604 56.8289 8.868 56.8289 10.224C56.8289 11.364 55.7369 12.072 54.3809 12.072C52.7969 12.072 51.7049 11.328 51.6809 9.984ZM57.612 9.984H58.62C58.656 10.704 59.292 11.232 60.312 11.232C61.176 11.232 61.788 10.86 61.788 10.296C61.788 9.528 61.116 9.468 60.204 9.36C58.836 9.192 57.744 8.916 57.744 7.644C57.744 6.528 58.764 5.796 60.144 5.808C61.536 5.82 62.544 6.468 62.64 7.74H61.632C61.56 7.116 60.984 6.648 60.144 6.648C59.292 6.648 58.716 7.008 58.716 7.572C58.716 8.244 59.364 8.328 60.252 8.436C61.644 8.604 62.76 8.868 62.76 10.224C62.76 11.364 61.668 12.072 60.312 12.072C58.728 12.072 57.636 11.328 57.612 9.984ZM66.7323 12.072C64.8963 12.072 63.6963 10.812 63.6963 8.94C63.6963 7.08 64.8723 5.808 66.6003 5.808C68.3283 5.808 69.4563 6.9 69.5043 8.712C69.5043 8.844 69.4923 8.988 69.4803 9.132H64.7283V9.216C64.7643 10.38 65.4963 11.196 66.6603 11.196C67.5243 11.196 68.1963 10.74 68.4003 9.948H69.3963C69.1563 11.172 68.1483 12.072 66.7323 12.072ZM64.7883 8.316H68.4483C68.3523 7.26 67.6323 6.672 66.6123 6.672C65.7123 6.672 64.8843 7.32 64.7883 8.316ZM75.5112 6.816V3.6H76.4952V12H75.6432L75.5112 11.016C75.1032 11.58 74.4432 12.072 73.4112 12.072C71.7192 12.072 70.4712 10.932 70.4712 8.94C70.4712 7.068 71.7192 5.808 73.4112 5.808C74.4432 5.808 75.1392 6.228 75.5112 6.816ZM73.5072 11.196C74.7072 11.196 75.5232 10.272 75.5232 8.964C75.5232 7.62 74.7072 6.684 73.5072 6.684C72.2952 6.684 71.4792 7.608 71.4792 8.94C71.4792 10.272 72.2952 11.196 73.5072 11.196ZM84.1802 5.808C85.8722 5.808 87.1202 6.948 87.1202 8.94C87.1202 10.812 85.8722 12.072 84.1802 12.072C83.1482 12.072 82.4522 11.652 82.0802 11.064L81.9482 12H81.0962V3.6H82.0802V6.864C82.4882 6.3 83.1482 5.808 84.1802 5.808ZM84.0842 11.196C85.2962 11.196 86.1122 10.272 86.1122 8.94C86.1122 7.608 85.2962 6.684 84.0842 6.684C82.8842 6.684 82.0682 7.608 82.0682 8.916C82.0682 10.26 82.8842 11.196 84.0842 11.196ZM89.8111 12.036L87.4231 5.88H88.4671L90.3511 10.764L92.1751 5.88H93.2191L90.3991 13.032C90.0151 14.016 89.7871 14.4 88.9231 14.4H87.7471V13.5H88.6231C89.1871 13.5 89.2831 13.356 89.5111 12.78L89.8111 12.036Z"
          fill="#717184"/>
    <path d="M100.958 12.072C99.7337 12.072 98.7737 11.688 98.0537 10.908C97.3337 10.14 96.9857 9.096 96.9857 7.8C96.9857 6.516 97.3457 5.484 98.0897 4.704C98.8217 3.924 99.8057 3.528 101.042 3.528C102.002 3.528 102.794 3.804 103.442 4.332C104.09 4.86 104.474 5.568 104.618 6.456H103.19C103.046 5.928 102.782 5.508 102.398 5.196C102.014 4.896 101.534 4.74 100.982 4.74C100.19 4.74 99.5537 5.028 99.0977 5.592C98.6297 6.156 98.4017 6.888 98.4017 7.8C98.4017 8.712 98.6297 9.456 99.0857 10.02C99.5417 10.584 100.154 10.86 100.946 10.86C101.522 10.86 102.002 10.716 102.386 10.404C102.77 10.104 103.034 9.684 103.178 9.144H104.606C104.462 10.032 104.066 10.752 103.406 11.28C102.746 11.808 101.93 12.072 100.958 12.072ZM108.579 12.072C107.643 12.072 106.887 11.784 106.311 11.208C105.735 10.632 105.447 9.876 105.447 8.928C105.447 7.992 105.735 7.236 106.311 6.66C106.887 6.084 107.643 5.784 108.579 5.784C109.515 5.784 110.271 6.084 110.847 6.66C111.423 7.236 111.711 7.992 111.711 8.928C111.711 9.876 111.423 10.632 110.847 11.208C110.271 11.784 109.515 12.072 108.579 12.072ZM108.579 10.968C109.119 10.968 109.551 10.788 109.887 10.404C110.223 10.02 110.391 9.528 110.391 8.928C110.391 8.328 110.223 7.848 109.887 7.464C109.551 7.08 109.119 6.888 108.579 6.888C108.027 6.888 107.595 7.08 107.271 7.464C106.935 7.848 106.779 8.328 106.779 8.928C106.779 9.528 106.935 10.02 107.271 10.404C107.595 10.788 108.027 10.968 108.579 10.968ZM113.473 4.992C113.245 4.992 113.053 4.92 112.909 4.776C112.753 4.632 112.681 4.44 112.681 4.212C112.681 3.996 112.753 3.804 112.909 3.66C113.053 3.516 113.245 3.432 113.473 3.432C113.689 3.432 113.881 3.516 114.037 3.66C114.181 3.804 114.265 3.996 114.265 4.212C114.265 4.44 114.181 4.632 114.037 4.776C113.881 4.92 113.689 4.992 113.473 4.992ZM112.813 12V5.856H114.109V12H112.813ZM118.68 5.784C119.412 5.784 120.012 6.012 120.468 6.456C120.924 6.912 121.152 7.62 121.152 8.58V12H119.844V8.688C119.844 7.5 119.352 6.9 118.38 6.9C117.864 6.9 117.456 7.08 117.168 7.44C116.88 7.8 116.736 8.28 116.736 8.904V12H115.44V5.856H116.568L116.712 6.66C117.168 6.084 117.828 5.784 118.68 5.784ZM121.526 4.824V3.6H128.09V4.824H125.498V12H124.118V4.824H121.526ZM131.558 5.856H131.846V7.068H131.27C130.73 7.068 130.346 7.248 130.106 7.596C129.866 7.944 129.746 8.388 129.746 8.916V12H128.45V5.856H129.602L129.746 6.78C130.118 6.168 130.718 5.856 131.558 5.856ZM138.134 10.872H138.398V12H137.714C136.958 12 136.586 11.676 136.586 11.016C136.118 11.724 135.446 12.072 134.558 12.072C133.862 12.072 133.31 11.916 132.902 11.592C132.482 11.28 132.278 10.836 132.278 10.272C132.278 9.648 132.494 9.156 132.95 8.82C133.394 8.484 134.042 8.304 134.906 8.304H136.454V7.932C136.454 7.596 136.334 7.32 136.094 7.128C135.854 6.936 135.53 6.828 135.11 6.828C134.726 6.828 134.414 6.912 134.174 7.08C133.922 7.248 133.778 7.464 133.73 7.728H132.458C132.518 7.128 132.794 6.66 133.274 6.312C133.754 5.964 134.39 5.784 135.17 5.784C135.986 5.784 136.622 5.976 137.066 6.36C137.51 6.744 137.738 7.296 137.738 8.016V10.476C137.738 10.632 137.762 10.74 137.834 10.788C137.894 10.848 137.99 10.872 138.134 10.872ZM136.454 9.48V9.264H134.846C134.006 9.264 133.598 9.576 133.598 10.188C133.598 10.452 133.694 10.668 133.898 10.824C134.102 10.992 134.378 11.064 134.738 11.064C135.266 11.064 135.686 10.92 135.986 10.632C136.286 10.344 136.442 9.96 136.454 9.48ZM141.937 12.072C141.001 12.072 140.269 11.796 139.717 11.232C139.165 10.668 138.889 9.9 138.889 8.94C138.889 7.992 139.165 7.224 139.729 6.648C140.293 6.072 141.037 5.784 141.973 5.784C142.741 5.784 143.377 5.988 143.869 6.384C144.349 6.792 144.661 7.344 144.793 8.052H143.437C143.341 7.692 143.173 7.404 142.921 7.2C142.657 6.996 142.333 6.888 141.949 6.888C141.421 6.888 141.001 7.08 140.689 7.464C140.377 7.848 140.221 8.34 140.221 8.94C140.221 9.54 140.377 10.032 140.689 10.404C141.001 10.788 141.421 10.968 141.949 10.968C142.333 10.968 142.657 10.872 142.921 10.656C143.173 10.452 143.341 10.164 143.425 9.804H144.793C144.673 10.512 144.361 11.064 143.857 11.472C143.353 11.88 142.705 12.072 141.937 12.072ZM145.845 12V3.6H147.141V8.832L149.925 5.856H151.449L149.133 8.34L151.593 12H150.057L148.245 9.288L147.141 10.44V12H145.845ZM151.8 12L154.584 7.704L151.956 3.6H153.588L155.472 6.588L157.392 3.6H158.952L156.324 7.644L159.12 12H157.476L155.424 8.772L153.36 12H151.8Z"
          fill="#131316"/>
</svg>
