<svg viewBox="0 0 490 490" fill="none" xmlns="http://www.w3.org/2000/svg">
    <g clip-path="url(#clip0_698_3859)">
        <path d="M468.999 228.076C457.599 228.076 448.199 236.376 448.199 247.876C447.199 322.776 403.999 390.476 337.899 426.776C238.299 481.476 121.899 432.376 77.2987 365.776L140.199 378.876C150.599 380.976 161.999 374.676 164.099 363.276C166.199 352.876 159.899 341.476 148.499 339.376L24.7987 313.376C17.5987 311.676 -1.30133 316.876 0.898673 336.276L16.4987 461.076C17.4987 471.476 25.8987 478.776 36.2987 478.776C51.7987 478.776 58.0987 467.376 57.0987 455.876L49.7987 394.976C150.899 516.276 279.199 499.376 356.599 464.276C436.699 421.576 487.699 339.476 488.699 248.876C488.799 237.476 480.399 228.076 468.999 228.076Z"
              fill="#C2C2C2"/>
        <path d="M20.5988 262.176C31.9988 262.176 41.3988 253.876 41.3988 242.376C42.3988 167.476 85.5988 99.776 151.699 63.476C251.299 8.77599 367.699 57.876 412.299 124.476L349.399 111.376C338.999 109.276 327.599 115.576 325.499 126.976C323.399 137.376 329.699 148.776 341.099 150.876L464.899 176.876C472.099 178.576 490.999 173.376 488.799 153.976L473.199 29.176C472.199 18.776 463.799 11.476 453.399 11.476C437.899 11.476 431.599 22.876 432.599 34.376L439.799 95.276C338.699 -25.924 210.399 -9.12401 132.999 26.076C52.8988 68.676 1.89883 150.876 0.798828 241.376C0.798828 252.876 9.19883 262.176 20.5988 262.176Z"
              fill="#C2C2C2"/>
    </g>
    <defs>
        <clipPath id="clip0_698_3859">
            <rect width="489.698" height="489.698" fill="white" transform="translate(0 0.302002)"/>
        </clipPath>
    </defs>
</svg>
