<svg width="32" height="32" viewBox="0 0 32 32" fill="none" xmlns="http://www.w3.org/2000/svg">
    <path d="M13.2143 24.0531C13.1534 24.2953 11.6299 30 3.25023 30C2.91871 30 2.60076 29.8683 2.36634 29.6339C2.13192 29.3995 2.00023 29.0815 2.00023 28.75C2.00023 20.3703 7.70491 18.8469 7.9471 18.7859C8.26888 18.7055 8.60942 18.7563 8.8938 18.927C9.17819 19.0977 9.38311 19.3743 9.46351 19.6961C9.5439 20.0179 9.49318 20.3584 9.32249 20.6428C9.1518 20.9272 8.87513 21.1321 8.55335 21.2125C8.41273 21.2516 5.05023 22.2344 4.5596 27.4406C9.76585 26.95 10.7502 23.5938 10.7909 23.4375C10.8737 23.1161 11.0809 22.8409 11.3667 22.6722C11.6526 22.5036 11.9937 22.4554 12.3151 22.5383C12.6364 22.6212 12.9117 22.8283 13.0804 23.1142C13.249 23.4 13.2972 23.7411 13.2143 24.0625V24.0531ZM27.7455 13.5219L27.0002 14.2672V23.3813C27.0021 23.7108 26.9384 24.0375 26.8129 24.3422C26.6873 24.6469 26.5024 24.9236 26.269 25.1563L20.9065 30.5156C20.6752 30.7485 20.4001 30.9333 20.0971 31.0594C19.7941 31.1854 19.4691 31.2502 19.1409 31.25C18.87 31.2499 18.6009 31.2061 18.344 31.1203C17.9029 30.9744 17.5114 30.708 17.2137 30.3513C16.9161 29.9946 16.7241 29.5617 16.6596 29.1016L15.8205 23.0875L8.91273 16.1797L2.90179 15.3406C2.44108 15.276 2.00753 15.0841 1.64992 14.7866C1.29232 14.489 1.02484 14.0975 0.877577 13.6562C0.730315 13.2149 0.70911 12.7413 0.81635 12.2886C0.92359 11.8359 1.15502 11.4221 1.4846 11.0938L6.84398 5.73126C7.0766 5.4978 7.35332 5.31292 7.65804 5.18738C7.96277 5.06184 8.28941 4.99815 8.61898 5.00001H17.733L18.4784 4.25469C22.6471 0.0875064 27.6705 -0.0921809 29.6362 0.0250066C30.2457 0.0620456 30.8205 0.320867 31.2523 0.752636C31.6841 1.18441 31.9429 1.75927 31.9799 2.36876C32.094 4.32969 31.9143 9.35313 27.7471 13.5219H27.7455ZM3.25023 12.8656L9.05491 13.675L15.233 7.50001H8.61898L3.25023 12.8656ZM11.269 15L17.0002 20.7313L25.9768 11.7547C27.1865 10.5531 28.125 9.10654 28.7293 7.51214C29.3335 5.91774 29.5894 4.21247 29.4799 2.51094C27.7793 2.40548 26.0757 2.66412 24.483 3.26957C22.8903 3.87502 21.4451 4.81335 20.244 6.02188L11.269 15ZM24.5002 16.7672L18.3237 22.9438L19.1362 28.75L24.5002 23.3813V16.7672Z" fill="#292929"/>
</svg>
