<svg viewBox="0 0 18 18" fill="none" xmlns="http://www.w3.org/2000/svg">
    <path d="M9.43436 1.0958L9.43444 1.09604L10.7298 5.25713L10.73 5.25778C10.8545 5.65633 11.0982 6.00932 11.4323 6.26267L11.8854 5.66508L11.4323 6.26267C11.7669 6.51643 12.174 6.65604 12.5954 6.65637H12.596H16.7872C16.9912 6.65637 17.1529 6.77961 17.2223 7.00276C17.2923 7.22811 17.2327 7.45457 17.0452 7.59707C17.0452 7.59709 17.0452 7.5971 17.0452 7.59711L13.6564 10.1673C13.6563 10.1674 13.6562 10.1675 13.656 10.1676C13.3215 10.4212 13.0775 10.7746 12.953 11.1737C12.8286 11.5727 12.8284 12.0017 12.9524 12.4009L12.9525 12.4013L14.2479 16.5624L14.248 16.5628C14.328 16.8193 14.2327 17.0327 14.0712 17.1552C13.9146 17.274 13.7294 17.2888 13.5528 17.155C13.5528 17.155 13.5528 17.155 13.5527 17.1549L10.1631 14.5841L10.1629 14.5839C9.82798 14.33 9.42044 14.1905 8.99864 14.1905C8.57683 14.1905 8.1693 14.33 7.83433 14.5839L7.83417 14.5841L4.44442 17.155L4.44418 17.1552C4.26841 17.2886 4.08421 17.274 3.92785 17.1554C3.76646 17.0329 3.67081 16.819 3.75068 16.5621L5.04598 12.4013L5.0461 12.4009C5.17011 12.0017 5.16989 11.5727 5.04546 11.1737C4.92101 10.7746 4.67699 10.4212 4.34239 10.1676C4.34228 10.1675 4.34216 10.1674 4.34204 10.1673L0.954513 7.59838C0.954462 7.59834 0.954411 7.5983 0.954359 7.59826C0.767256 7.45595 0.707618 7.22974 0.777798 7.00423C0.847382 6.78063 1.00935 6.65763 1.21252 6.65763H5.40228C5.40235 6.65763 5.40241 6.65763 5.40248 6.65763C5.82419 6.6577 6.23167 6.51829 6.56663 6.26454L6.11375 5.66671L6.56663 6.26454C6.90112 6.01115 7.14512 5.65791 7.26969 5.25904L7.26989 5.2584L8.56525 1.0973L8.57819 1.05574C8.74325 0.633909 9.29569 0.649814 9.43436 1.0958Z"
          fill="#5235E8" stroke="#5235E8" stroke-width="1.5"/>
</svg>
