<svg viewBox="0 0 37 12" fill="none" xmlns="http://www.w3.org/2000/svg">
    <path d="M26.6585 0.647845C25.8062 0.337297 24.9054 0.181462 23.9983 0.187679C21.065 0.187679 18.9933 1.66534 18.9787 3.78651C18.9603 5.34484 20.4508 6.22301 21.5783 6.74368C22.7352 7.27901 23.122 7.61634 23.1183 8.09484C23.111 8.82268 22.1943 9.15268 21.3418 9.15268C20.1703 9.15268 19.5305 8.98951 18.546 8.58068L18.1812 8.41018L17.765 10.8522C18.4782 11.1492 19.7633 11.404 21.0907 11.426C24.2092 11.426 26.2478 9.95751 26.2717 7.70068C26.2973 6.45584 25.4907 5.51534 23.793 4.73801C22.7608 4.23384 22.121 3.89651 22.121 3.38501C22.121 2.93218 22.6692 2.44818 23.815 2.44818C24.5776 2.42973 25.3355 2.5728 26.0388 2.86801L26.3138 2.99084L26.73 0.631345L26.6585 0.647845ZM34.2705 0.385679H31.9788C31.2657 0.385679 30.7285 0.581845 30.4168 1.28951L26.0095 11.2738H29.128L29.7513 9.63668L33.5573 9.64034C33.6472 10.0235 33.9222 11.2738 33.9222 11.2738H36.6722L34.2705 0.385679ZM14.7602 0.294012H17.732L15.873 11.1877H12.9048L14.7602 0.290345V0.294012ZM7.216 6.29818L7.524 7.81068L10.428 0.385679H13.5758L8.899 11.2592H5.7585L3.19183 2.05218C3.15026 1.90036 3.05264 1.76998 2.91867 1.68735C1.99357 1.20946 1.01337 0.846812 0 0.607511L0.0403333 0.378344H4.8235C5.4725 0.404011 5.995 0.607511 6.16917 1.30051L7.21417 6.30368V6.29818H7.216ZM30.6038 7.40918L31.7882 4.36218C31.7735 4.39518 32.032 3.73334 32.1823 3.32451L32.3858 4.26501L33.0733 7.40734H30.602V7.40918H30.6038Z" fill="#9C9CAB"/>
</svg>
