<svg viewBox="0 0 20 14" fill="none" xmlns="http://www.w3.org/2000/svg">
    <path d="M10.0003 9C11.1048 9 12.0003 8.10457 12.0003 7C12.0003 5.89543 11.1048 5 10.0003 5C8.89568 5 8.00025 5.89543 8.00025 7C8.00025 8.10457 8.89568 9 10.0003 9Z" fill="#B0B7C3"/>
    <path fill-rule="evenodd" clip-rule="evenodd" d="M0.458008 7.00004C1.73226 2.94291 5.52256 0 10.0002 0C14.4778 0 18.2681 2.94288 19.5424 6.99996C18.2682 11.0571 14.4778 14 10.0002 14C5.52257 14 1.73228 11.0571 0.458008 7.00004ZM14.0003 7C14.0003 9.20914 12.2094 11 10.0003 11C7.79111 11 6.00025 9.20914 6.00025 7C6.00025 4.79086 7.79111 3 10.0003 3C12.2094 3 14.0003 4.79086 14.0003 7Z" fill="#B0B7C3"/>
</svg>
