<svg viewBox="0 0 22 22" fill="none" xmlns="http://www.w3.org/2000/svg">
    <path d="M11.6647 1.47034L11.6647 1.47058L13.2192 6.46389L13.2194 6.46454C13.3597 6.91377 13.6342 7.31093 14.0096 7.59561C14.3855 7.88069 14.8423 8.0372 15.3148 8.03756H15.3154H20.3448C20.6661 8.03756 20.9108 8.23917 21.0102 8.5587C21.1102 8.88045 21.0275 9.22132 20.7452 9.43587L16.6785 12.5203C16.3023 12.8052 16.0273 13.203 15.887 13.6531C15.7468 14.1028 15.7465 14.5865 15.8863 15.0365L15.8864 15.0369L17.4409 20.0302L17.441 20.0306C17.5573 20.4035 17.4163 20.7236 17.1762 20.9057C16.9411 21.084 16.6446 21.1113 16.373 20.9055C16.3729 20.9054 16.3729 20.9054 16.3728 20.9054L12.3053 17.8203L12.3051 17.8202C11.9288 17.5349 11.4715 17.3785 10.9986 17.3785C10.5256 17.3785 10.0683 17.5349 9.69201 17.8202L9.69184 17.8203L5.62415 20.9055L5.62391 20.9057C5.35322 21.1111 5.05776 21.0841 4.82293 20.9058C4.58306 20.7238 4.44171 20.4032 4.55778 20.0299L6.11214 15.0369L6.11227 15.0365C6.25206 14.5865 6.25181 14.1028 6.11155 13.6531C5.97127 13.2032 5.69642 12.8055 5.32043 12.5206C5.32034 12.5205 5.32025 12.5204 5.32016 12.5204C5.32013 12.5203 5.32011 12.5203 5.32008 12.5203L1.25484 9.43739C1.25478 9.43734 1.25471 9.43729 1.25464 9.43724C0.972787 9.22288 0.89016 8.8823 0.990328 8.56042C1.0899 8.24044 1.33486 8.03908 1.65522 8.03908H6.68297C6.68304 8.03908 6.68311 8.03908 6.68317 8.03908C7.15599 8.03916 7.61325 7.88289 7.98958 7.5978C8.36542 7.31308 8.64023 6.91565 8.78064 6.46606L8.78084 6.46541L10.3353 1.47209L10.3525 1.41687C10.5982 0.775677 11.455 0.796079 11.6647 1.47034Z" fill="white" stroke="#5235E8" stroke-width="1.5"/>
</svg>
