<svg viewBox="0 0 100 100" fill="none" xmlns="http://www.w3.org/2000/svg">
    <g clip-path="url(#clip0_758_3870)">
        <rect width="100" height="100" fill="white"/>
        <circle cx="50" cy="50" r="50" fill="#0B86C0"/>
        <path d="M52.0002 52.8425C51.9882 51.3777 52.5344 49.9621 53.5296 48.8788C54.5249 47.7958 55.8957 47.1248 57.3686 47H82L74.0001 52.2818H60.5923C59.7278 52.2853 58.8998 52.627 58.2886 53.233C57.6774 53.8387 57.3324 54.6593 57.3291 55.516V68.7271L52.066 75L52.0002 52.8425Z"
              fill="#E4F2FF"/>
        <path d="M50.3107 44.9986C48.9489 45.03 47.6282 44.5467 46.6306 43.6518L29 27L38.5918 28.8124L48.1966 37.8998C48.8115 38.4817 49.6385 38.8077 50.5001 38.8077C51.3615 38.8077 52.1885 38.4817 52.8034 37.8998L62.4343 28.825L72 27L54.7608 43.3623C53.5442 44.429 51.9548 45.0134 50.3107 44.9986Z"
              fill="#E4F2FF"/>
        <path d="M43.6688 68.717V55.5251C43.6688 54.6666 43.3252 53.8429 42.7134 53.2345C42.1015 52.6263 41.2711 52.2828 40.4042 52.2793H26.9772L19 47H43.1027C44.6255 47.0222 46.087 47.5973 47.2097 48.6164C47.7551 49.0761 48.1965 49.6448 48.5049 50.2849C48.8135 50.9251 48.9821 51.6224 49 52.3315V75L43.6688 68.717Z"
              fill="#E4F2FF"/>
    </g>
    <defs>
        <clipPath id="clip0_758_3870">
            <rect width="100" height="100" fill="white"/>
        </clipPath>
    </defs>
</svg>
