<svg viewBox="0 0 20 19" fill="none" xmlns="http://www.w3.org/2000/svg">
    <path d="M2.31136 15.7795C2.42971 15.9245 2.55518 16.0653 2.68066 16.2048C2.68636 16.2118 2.6992 16.2132 2.7049 16.2201C2.71631 16.2341 2.73484 16.2424 2.74625 16.2564L2.75766 16.2703C2.84463 16.3498 2.93874 16.4349 3.04568 16.5102C3.42496 16.7918 3.8185 17.0066 4.23486 17.1474C5.56662 17.6048 7.04954 17.3231 8.21303 16.2494C9.83708 14.7602 9.69166 12.3632 8.39554 10.7693C6.7572 8.39328 3.94255 5.07878 7.83943 2.10869C8.54097 1.57462 9.06 1.13399 11.2672 0.510679C9.8228 0.249932 8.48537 0.330796 6.99531 0.703084C5.9416 1.28454 4.28476 2.52977 3.72012 4.21283C2.86745 6.76459 5.22013 10.5783 6.35657 12.0466C7.91788 14.0797 5.39123 16.2801 3.5319 13.8231C2.55946 12.543 0.859827 8.91896 1.45014 6.23197C1.7952 4.70784 2.25575 3.5965 4.08228 2.07103C3.74436 2.26622 3.41498 2.48797 3.09559 2.73614C-1.14636 6.60147 -0.653013 12.5765 2.31136 15.7795Z" fill="url(#paint0_linear_0_1)"/>
    <path d="M16.7524 3.57898C16.6341 3.43397 16.5086 3.29315 16.3832 3.15372C16.3775 3.14674 16.3646 3.14534 16.3589 3.13835C16.3475 3.12444 16.3289 3.11606 16.3176 3.10209L16.3061 3.08817C16.2192 3.00865 16.1251 2.9236 16.0181 2.84832C15.6388 2.56662 15.2439 2.35192 14.8289 2.2111C13.4972 1.7537 12.0143 2.0354 10.8508 3.10907C9.22671 4.59834 9.37214 6.9953 10.6683 8.58912C12.3066 10.9652 15.1213 14.2797 11.2229 17.2498C10.5228 17.7839 10.0024 18.2245 7.79517 18.8478C9.23957 19.1086 10.577 19.0277 12.0671 18.6554C13.1208 18.0739 14.7776 16.8273 15.3423 15.1456C16.1949 12.5939 13.8423 8.78018 12.7059 7.31181C11.1445 5.27876 13.6712 3.07839 15.5305 5.53537C16.5029 6.81541 18.2025 10.4395 17.6123 13.1265C17.2672 14.6506 16.8067 15.762 14.9801 17.2875C15.318 17.0922 15.6474 16.8705 15.9668 16.6223C20.2088 12.7584 19.7168 6.78194 16.7524 3.57898Z" fill="url(#paint1_linear_0_1)"/>
    <defs>
        <linearGradient id="paint0_linear_0_1" x1="3.24478e-05" y1="8.8576" x2="19.0639" y2="8.8576" gradientUnits="userSpaceOnUse">
            <stop stop-color="#0082FA"/>
            <stop offset="1" stop-color="#00F2FE"/>
        </linearGradient>
        <linearGradient id="paint1_linear_0_1" x1="-5.58892e-05" y1="10.4995" x2="19.0638" y2="10.4995" gradientUnits="userSpaceOnUse">
            <stop stop-color="#0082FA"/>
            <stop offset="1" stop-color="#00F2FE"/>
        </linearGradient>
    </defs>
</svg>
