<svg viewBox="0 0 100 100" fill="none" xmlns="http://www.w3.org/2000/svg">
    <circle cx="50" cy="50" r="50" fill="#FF5656"/>
    <g clip-path="url(#clip0_0_1)">
        <mask id="mask0_0_1" style="mask-type:luminance" maskUnits="userSpaceOnUse" x="10" y="39" width="81"
              height="23">
            <path d="M10 39H90.831V62H10V39Z" fill="white"/>
        </mask>
        <g mask="url(#mask0_0_1)">
            <path d="M22.5656 61.9525C22.1429 61.9649 21.7315 61.8146 21.4157 61.5325C21.0999 61.2505 20.9036 60.8581 20.867 60.4356L20.6759 58.9333C18.8554 58.4131 17.7903 57.0623 17.5136 54.9175L15.8751 42.2602C15.5236 42.2035 15.1679 42.1778 14.8119 42.1835C14.2851 42.1792 13.7601 42.2474 13.2517 42.3861V61.582H10.0366V46.1519C10.0366 44.0582 10.9742 42.5796 12.6819 41.9645V40.9696C12.6819 39.8196 13.3791 39.0475 14.415 39.0475C15.4509 39.0475 16.1009 39.6937 16.2684 40.8729L16.3958 41.7947C18.2655 42.3186 19.3578 43.8245 19.6819 46.2687L21.1966 58.4697C22.1016 58.645 23.0316 58.645 23.9365 58.4697L25.4512 46.2706C25.768 43.8245 26.873 42.3186 28.7373 41.7892L28.8647 40.8674C29.0322 39.6937 29.6913 39.042 30.718 39.042C31.7448 39.042 32.4512 39.8141 32.4512 40.9641V41.959C34.1589 42.5741 35.0964 44.0527 35.0964 46.1464V61.5765H31.8777V42.3843C31.3694 42.2455 30.8444 42.1773 30.3175 42.1817C29.9616 42.176 29.6058 42.2016 29.2543 42.2583L27.6158 54.9175C27.3446 57.024 26.254 58.4076 24.4536 58.9333L24.2733 60.4375C24.2452 60.8646 24.05 61.2634 23.7302 61.5472C23.4105 61.8309 22.992 61.9766 22.5656 61.9525ZM21.2712 59.0794L21.4369 60.3736C21.4543 60.6574 21.5825 60.9228 21.7938 61.1125C22.0051 61.3022 22.2824 61.4007 22.5656 61.3867C22.7066 61.3968 22.848 61.3785 22.9818 61.3328C23.1155 61.2871 23.2387 61.215 23.3442 61.1207C23.4496 61.0264 23.5351 60.9119 23.5955 60.7838C23.656 60.6558 23.6902 60.517 23.6962 60.3754L23.8619 59.0794C23.004 59.2205 22.129 59.2205 21.2712 59.0794ZM32.4512 61.0161H34.523V46.1519C34.523 44.3776 33.8093 43.1528 32.4512 42.5814V61.0161ZM10.6046 61.0161H12.6819V42.5814C11.3256 43.1528 10.6192 44.3776 10.6192 46.1519L10.6046 61.0161ZM16.4777 42.4171L18.0834 54.8426C18.3129 56.6406 19.1594 57.8034 20.5976 58.3109L19.1139 46.34C18.8408 44.2298 17.976 42.941 16.4777 42.4171ZM28.6553 42.4171C27.157 42.941 26.2887 44.2298 26.0192 46.3417L24.5354 58.3036C25.9755 57.7961 26.8203 56.6333 27.0496 54.8353L28.6553 42.4171ZM13.2553 41.7819C13.766 41.6574 14.29 41.5961 14.8156 41.5994C15.1442 41.5959 15.4727 41.6154 15.7987 41.6578L15.7003 40.9404C15.5747 40.0606 15.1414 39.6152 14.415 39.6152C13.6886 39.6152 13.2553 40.1318 13.2553 40.9623V41.7819ZM30.3175 41.5994C30.8431 41.5961 31.3671 41.6574 31.8777 41.7819V40.9696C31.8777 40.1391 31.4335 39.6225 30.718 39.6225C30.0026 39.6225 29.5583 40.0679 29.4328 40.9477L29.3344 41.6651C29.6604 41.6227 29.9889 41.6032 30.3175 41.6067V41.5994Z"
                  fill="white"/>
            <path d="M43.9717 61.5819H40.813V39.418H43.9717V61.5819ZM41.3865 61.0069H43.3982V39.993H41.3865V61.0069Z"
                  fill="white"/>
            <path d="M64.4636 61.9526C63.0927 61.9526 62.7796 60.6985 62.6777 60.286L62.441 59.2345C60.3892 58.8695 59.1367 57.5424 58.6178 55.1895L55.6449 42.2438C55.3049 42.2011 54.9626 42.1803 54.6199 42.1817C54.0509 42.1724 53.4838 42.2494 52.9377 42.4099V61.5765H49.719V46.0606C49.719 44.0527 50.6293 42.6563 52.3642 42.0028V40.9696C52.3642 39.8196 53.0597 39.0475 54.0956 39.0475C54.9895 39.0475 55.6467 39.617 55.8543 40.5699L56.1183 41.7381C58.1208 42.1032 59.3224 43.3919 59.8813 45.7814L62.9125 58.7289C63.2537 58.7715 63.5973 58.7923 63.9411 58.791C64.5078 58.7954 65.0726 58.726 65.6215 58.5847V39.418H68.8402V55.4286C68.8402 57.0714 67.8808 58.3602 66.195 58.9936V59.9921C66.195 61.2042 65.5323 61.9526 64.4636 61.9526ZM63.0509 59.3258L63.2329 60.1527C63.4496 61.0216 63.8064 61.3776 64.4618 61.3776C65.19 61.3776 65.6197 60.8756 65.6197 59.9994V59.1743C65.0686 59.3007 64.5046 59.362 63.9393 59.3569C63.6426 59.3575 63.3461 59.343 63.0509 59.3131V59.3222V59.3258ZM50.2924 61.007H52.3642V42.6198C50.9879 43.2167 50.2924 44.3722 50.2924 46.0589V61.007ZM56.2584 42.3515L59.1712 55.0617C59.6227 57.097 60.6277 58.2379 62.2954 58.6194L59.3242 45.9092C58.8399 43.8446 57.8878 42.7293 56.2584 42.3515ZM66.195 39.993V58.3821C67.5349 57.8126 68.2667 56.7776 68.2667 55.4359V39.993H66.195ZM52.9377 41.8038C53.487 41.6618 54.0526 41.5931 54.6199 41.5994C54.9166 41.5987 55.2132 41.6133 55.5083 41.6432V41.6341L55.2935 40.6867C55.2061 40.2851 54.9294 39.6152 54.0956 39.6152C53.2618 39.6152 52.9377 40.3107 52.9377 40.9623V41.8038Z"
                  fill="white"/>
            <path d="M90.9419 61.582H87.5738L85.9136 54.9814H76.5775L74.948 61.582H71.5801L75.9238 45.5514C76.4264 43.7205 77.575 42.4683 79.2537 41.9207L79.5541 40.6612C79.7359 39.9675 80.1001 39.053 81.2487 39.053C82.398 39.053 82.7635 39.9657 82.9421 40.6557L83.2387 41.9207C84.9135 42.4683 86.0628 43.726 86.5667 45.555L90.9419 61.582ZM88.0196 61.007H90.19L86.0137 45.7029C85.6004 44.2006 84.7043 43.1346 83.4083 42.5997L85.9895 52.8237H76.5412L79.0898 42.5906C77.7919 43.1382 76.8958 44.1988 76.4831 45.6937L72.3356 61.007H74.506L76.1349 54.4064H86.3536L88.0196 61.007ZM77.2785 52.2451H85.249L82.7654 42.3697C81.7705 42.116 80.7277 42.116 79.7327 42.3697L77.2785 52.2451ZM79.8909 41.7235V41.7454C80.7876 41.5611 81.7124 41.5611 82.6092 41.7454V41.7217L82.3866 40.7853C82.1704 39.9474 81.8515 39.6189 81.2506 39.6189C80.6498 39.6189 80.3316 39.9474 80.1128 40.7908L79.8909 41.7217V41.7235Z"
                  fill="white"/>
        </g>
    </g>
    <defs>
        <clipPath id="clip0_0_1">
            <rect width="81" height="23" fill="white" transform="translate(10 39)"/>
        </clipPath>
    </defs>
</svg>
