<svg viewBox="0 0 80 68" fill="none" xmlns="http://www.w3.org/2000/svg">
    <path d="M0 11.1812V55.0363C0.0007918 55.2997 0.0721004 55.5583 0.206954 55.7869C0.341808 56.0155 0.535592 56.2065 0.769362 56.3407L20.0034 67.0871V22.3313L0 11.1812Z"
          fill="#60BEFF"/>
    <path d="M59.9453 0L79.1795 10.7464C79.4131 10.8807 79.6069 11.0716 79.7419 11.3002C79.8767 11.5289 79.9479 11.7875 79.9487 12.0509V55.9059L59.9453 44.7247V0Z"
          fill="#1A4199"/>
    <path d="M19.9707 67.0874L39.9741 55.9062L19.9707 44.725V67.0874Z" fill="#3CA9E5"/>
    <path d="M20.7406 0.435858L59.946 22.3634V44.7258L0 11.1822L19.234 0.435858C19.462 0.304618 19.7222 0.235352 19.9874 0.235352C20.2524 0.235352 20.5128 0.304618 20.7406 0.435858Z"
          fill="#3CA9E5"/>
    <path d="M59.9458 0L39.9746 11.1812L59.9458 22.3623V0Z" fill="#2853C3"/>
    <path d="M79.9489 55.9059L60.7149 66.6523C60.4781 66.7747 60.2137 66.8387 59.9455 66.8387C59.6771 66.8387 59.4129 66.7747 59.1761 66.6523L19.9707 44.7247V22.3313L79.9489 55.9059Z"
          fill="#2853C3"/>
</svg>
