<svg viewBox="0 0 603 604" fill="none" xmlns="http://www.w3.org/2000/svg">
    <path d="M301.5 603.112C467.886 603.112 602.768 468.3 602.768 302C602.768 135.7 467.886 0.887787 301.5 0.887787C135.115 0.887787 0.232422 135.7 0.232422 302C0.232422 468.3 135.115 603.112 301.5 603.112Z"
          fill="white"/>
    <path d="M301.5 598.205C465.174 598.205 597.858 465.59 597.858 302C597.858 138.41 465.174 5.7948 301.5 5.7948C137.826 5.7948 5.1416 138.41 5.1416 302C5.1416 465.59 137.826 598.205 301.5 598.205Z"
          stroke="#EB1A6B" stroke-width="6.6804"/>
    <path d="M375.59 357.464C383.475 363.115 387.492 366.535 391.955 369.36C419.032 387.352 448.489 389.137 467.681 370.996C488.063 351.219 489.7 326.386 480.178 300.959C470.061 272.112 446.257 254.714 417.544 259.175C404.601 261.406 389.277 271.071 381.987 281.777C363.985 307.799 357.737 341.107 327.833 358.505C323.816 360.735 325.006 373.672 325.006 381.702C325.602 438.207 284.391 481.626 225.03 487.277C178.166 491.738 108.094 453.969 108.689 401.479C133.534 412.78 157.189 428.541 183.82 434.192C205.838 439.248 232.32 437.017 254.488 429.731C283.35 420.066 296.888 392.408 293.466 367.576C290.045 346.163 281.564 340.513 238.122 333.078C235.296 320.587 232.469 307.056 229.642 291.889C234.106 291.294 237.527 290.253 240.949 290.253C260.736 288.617 282.16 288.022 283.796 260.365C285.433 238.358 264.604 212.335 240.354 214.715C216.699 216.945 194.68 229.436 167.455 238.952C162.396 231.071 153.916 218.135 146.031 205.049C180.547 164.455 236.932 156.574 278.143 186.462C315.931 213.525 319.353 256.945 286.028 307.799C295.698 316.87 305.22 325.792 318.758 338.877C323.221 325.345 325.602 315.68 328.875 306.758C333.338 293.822 336.76 279.695 344.05 267.8C362.051 236.722 387.045 215.309 425.875 219.77C463.664 224.231 483.005 246.685 497.436 281.777C513.206 322.818 506.809 353.747 497.436 377.241C488.063 400.735 453.547 424.675 428.702 420.66C395.972 415.605 377.375 394.787 375.59 357.464Z"
          fill="black"/>
    <path d="M266.687 141.258C318.609 177.392 364.432 172.336 410.7 140.663C419.181 154.195 426.47 165.496 433.909 176.797C379.012 219.77 289.747 197.763 266.687 141.258Z"
          fill="black"/>
    <path d="M307.897 120.44C318.014 107.95 325.899 99.0281 335.569 87.7271C346.876 99.6228 354.166 107.504 363.241 117.615C354.761 127.281 346.876 135.608 336.76 146.463C327.089 137.987 318.609 129.957 307.897 120.44Z"
          fill="#F01871"/>
</svg>
