<svg viewBox="0 0 29 27" fill="none" xmlns="http://www.w3.org/2000/svg">
    <mask id="mask0_758_3901" style="mask-type:luminance" maskUnits="userSpaceOnUse" x="0" y="0" width="29" height="27">
        <path d="M28.0484 0H0.758057V27H28.0484V0Z" fill="white"/>
    </mask>
    <g mask="url(#mask0_758_3901)">
        <path d="M14.4032 0C6.86836 0 0.758057 6.0453 0.758057 13.5C0.758057 14.3073 0.83447 15.0957 0.970921 15.8625H4.00015C4.38767 15.8625 4.61964 15.7383 4.76973 15.498L5.83406 13.7538L7.19584 17.9361C7.32957 18.3573 7.64613 18.576 8.07186 18.5787C8.50851 18.5814 8.86874 18.3168 8.95334 17.8848L9.94125 13.2786L11.0165 20.6226C11.082 21.1059 11.3194 21.3489 11.8106 21.3489H11.8161C12.3046 21.3489 12.5393 21.087 12.6075 20.6064L14.7989 6.3126C14.8617 5.8698 14.5479 5.4594 14.1003 5.3973C13.6555 5.3379 13.2379 5.6457 13.1752 6.0885L11.8243 15.2523L10.9155 9.1368C10.8555 8.667 10.4952 8.3754 10.1023 8.3673C9.65743 8.3565 9.32722 8.6319 9.23443 9.099L7.92995 15.0822L6.88746 11.8719C6.80559 11.5236 6.49175 11.2644 6.1479 11.2239C5.67304 11.1672 5.40287 11.4102 5.20365 11.7315L3.59079 14.2425H2.62744C2.61107 13.9968 2.60015 13.7484 2.60015 13.5C2.60015 7.0497 7.88356 1.8225 14.4032 1.8225C19.6593 1.8225 24.1131 5.2245 25.6386 9.9225H27.5599C25.9743 4.2039 20.6882 0 14.4032 0Z"
              fill="url(#paint0_linear_758_3901)"/>
        <path d="M27.8355 11.1375H24.8009C24.4133 11.1375 24.1814 11.2617 24.0313 11.502L22.967 13.2462L21.6052 9.06392C21.4714 8.64272 21.1549 8.42402 20.7291 8.42132C20.2925 8.41862 19.9323 8.68322 19.8477 9.11522L18.8598 13.7214L17.7845 6.37742C17.719 5.89412 17.4816 5.65112 16.9904 5.65112H16.9849C16.4964 5.65112 16.2617 5.91302 16.1935 6.39362L14.0021 20.6874C13.9393 21.1302 14.2532 21.5406 14.7007 21.6027C15.1455 21.6621 15.5631 21.3543 15.6259 20.9115L16.9767 11.7477L17.8855 17.8632C17.9455 18.333 18.3058 18.6246 18.6987 18.6327C19.1436 18.6435 19.4738 18.3681 19.5666 17.901L20.8711 11.9178L21.9135 15.1281C21.9954 15.4764 22.3093 15.7356 22.6531 15.7761C23.128 15.8328 23.3981 15.5898 23.5974 15.2685L25.2102 12.7575H26.179C26.1954 13.0032 26.2063 13.2516 26.2063 13.5C26.2063 19.9503 20.9229 25.1775 14.4032 25.1775C9.14713 25.1775 4.69335 21.7755 3.16782 17.0775H1.24658C2.83215 22.7961 8.12101 27 14.4032 27C21.9381 27 28.0484 20.9547 28.0484 13.5C28.0484 12.6927 27.972 11.9043 27.8355 11.1375Z"
              fill="url(#paint1_linear_758_3901)"/>
    </g>
    <defs>
        <linearGradient id="paint0_linear_758_3901" x1="0.758057" y1="0" x2="27.7565" y2="27.2888"
                        gradientUnits="userSpaceOnUse">
            <stop stop-color="#FC829F"/>
            <stop offset="0.336804" stop-color="#FF1C53"/>
            <stop offset="0.435763" stop-color="#EA49F8"/>
            <stop offset="0.529514" stop-color="#B250FF"/>
            <stop offset="0.633681" stop-color="#5E5FF5"/>
            <stop offset="1" stop-color="#323CFF"/>
        </linearGradient>
        <linearGradient id="paint1_linear_758_3901" x1="0.758086" y1="2.25104e-05" x2="27.7565" y2="27.2888"
                        gradientUnits="userSpaceOnUse">
            <stop stop-color="#FC829F"/>
            <stop offset="0.336804" stop-color="#FF1C53"/>
            <stop offset="0.435763" stop-color="#EA49F8"/>
            <stop offset="0.529514" stop-color="#B250FF"/>
            <stop offset="0.633681" stop-color="#5E5FF5"/>
            <stop offset="1" stop-color="#323CFF"/>
        </linearGradient>
    </defs>
</svg>
