<svg xmlns="http://www.w3.org/2000/svg" viewBox="0 0 95 34" focusable="false" aria-label="XDC" fill="none">
    <path fill="currentColor" fill-rule="evenodd" clip-rule="evenodd"
          d="M35.907.074 22.895 16.54l13.7 17.386-7.623.012c-1.57 0-2.936-.737-4.108-2.21l-7.213-9.17-7.188 9.193c-1.16 1.486-2.537 2.223-4.108 2.223H1.329c-.785 0-1.232-.35-1.329-1.063 0-.35.17-.737.495-1.16l11.877-15.199L1.148 2.357c-.326-.41-.496-.797-.496-1.16C.652.473 1.075.11 1.945.11H7.02c1.571 0 2.948.737 4.133 2.235l6.463 8.216 6.464-8.228C25.24.86 26.616.11 28.211.086h1.68l6.016-.012ZM94.19 31.452a2.416 2.416 0 0 1-2.414 2.417l-10.72.01c-6.825 0-11.791-1.353-14.908-4.072-1.426-1.244-2.501-2.827-3.274-4.712.845-2.307 1.28-5.014 1.268-8.119-.012-3.105-.435-5.811-1.293-8.119.774-1.896 1.849-3.48 3.263-4.724 3.105-2.73 8.07-4.095 14.896-4.107l11.416-.01a2.416 2.416 0 0 1 2.418 2.416v4.263l-13.556.012c-4.228 0-7.104.773-8.638 2.332-1.535 1.558-2.296 4.204-2.284 7.937 0 3.734.774 6.367 2.296 7.914 1.522 1.546 4.41 2.308 8.639 2.308l12.89-.013v4.268ZM61.303 8.858c.314.774.58 1.559.773 2.356.435 1.897.653 3.83.64 5.775a25.08 25.08 0 0 1-.628 5.764c-.193.809-.447 1.594-.76 2.355-.774 1.885-1.85 3.468-3.263 4.712-3.117 2.719-8.083 4.084-14.909 4.096h-4.76l-5.255-6.67 9.75-.011c4.228 0 7.091-.774 8.626-2.32 1.534-1.546 2.283-4.192 2.283-7.926 0-3.733-.76-6.379-2.295-7.925-1.523-1.559-4.41-2.32-8.639-2.32l-10.426.012L37.72.074l5.4-.012C49.946.05 54.924 1.415 58.029 4.145c1.425 1.233 2.5 2.828 3.274 4.712Zm-29.77 16.287-6.765-8.578 6.741-8.579.024 17.157Z"
          data-darkreader-inline-fill="" style="--darkreader-inline-fill: currentColor;"></path>
</svg>