<svg width="551" height="551" viewBox="0 0 551 551" fill="none" xmlns="http://www.w3.org/2000/svg">
<path fill-rule="evenodd" clip-rule="evenodd" d="M201.907 377.062C257.988 410.37 305.039 352.824 355.672 371.728C383.389 382.077 436.389 411.086 463.229 310.409C480.322 245.349 424.793 213.031 354.107 229.805C334.029 232.043 320.272 225.996 306.586 214.76C292.9 203.525 281.312 166.632 245.29 150.029C136.888 100.065 -8.11776 252.325 201.907 377.062Z" fill="#2BD9F5"/>
<path fill-rule="evenodd" clip-rule="evenodd" d="M389.839 252.215C391.125 251.967 392.879 253.587 391.232 254.996C387.585 258.117 395.681 268.473 394.229 260.87C394.073 260.057 393.621 254.602 395.459 257.848C397.297 261.094 397.776 273.391 394.45 276.693C391.531 279.59 385.804 279.806 378.532 278.064L378.204 277.984L378.048 277.952C373.739 277.01 371.217 273.51 370.508 267.822L370.475 267.545C369.805 261.609 371.536 257.459 375.725 255.471C375.801 255.435 375.88 255.405 375.961 255.382L376.084 255.353L389.839 252.215Z" fill="white"/>
<path fill-rule="evenodd" clip-rule="evenodd" d="M186.803 90.0948C186.495 89.2572 185.799 88.6358 184.912 88.5108C184.003 88.3818 183.104 88.7965 182.61 89.569L182.478 89.7756C182.379 89.9277 182.263 90.1013 182.13 90.2957C181.75 90.8506 181.306 91.4606 180.801 92.1092C179.365 93.9532 177.726 95.7388 175.918 97.3236C172.015 100.743 167.88 102.743 163.644 102.806C162.982 102.815 162.454 103.36 162.463 104.022C162.468 104.358 167.447 108.771 173.509 109.619C179.39 110.442 186.358 107.71 186.483 107.43L186.717 106.841L186.792 106.643C188.385 102.331 188.949 97.1292 187.268 91.4934C187.129 91.0253 186.974 90.559 186.803 90.0948Z" fill="#E7EAEE"/>
<path fill-rule="evenodd" clip-rule="evenodd" d="M198.304 94.555L198.211 94.7807C196.997 97.6634 194.724 101.522 191.792 104.107C188.182 107.288 183.758 109.276 179.598 110.206C173.597 111.548 167.732 110.516 163.048 105.429L162.843 105.203C160.397 102.469 158.398 100.933 155.105 100.876C151.811 100.819 149.71 102.666 147.818 104.395L147.734 104.467C147.444 104.695 147.078 104.809 146.707 104.784L140.606 104.143L142.028 107.361C142.455 108.336 142.756 109.037 142.931 109.464L144.447 113.178C148.975 124.205 154.146 134.961 169.609 135.861L170.134 135.887C174.247 136.064 176.88 139.254 180.048 143.764L180.723 144.732C181.559 145.935 184.053 149.689 185.018 151.433L185.332 152.008L185.618 152.549C185.678 152.663 185.734 152.773 185.788 152.877L186.078 153.459L186.415 153.225C190.071 150.638 193.159 146.035 195.176 142.094C195.937 140.605 196.537 139.145 196.992 137.771L197.05 137.592C197.181 137.19 197.286 136.836 197.367 136.539L197.426 136.319L196.976 136.329C191.776 136.405 186.302 135.084 181.161 133.05C179.919 132.559 197.029 124.94 198.094 109.42C198.337 105.883 199.124 101.278 198.793 97.9199C198.688 96.8609 198.548 95.8806 198.387 94.9943L198.304 94.555Z" fill="white"/>
<path fill-rule="evenodd" clip-rule="evenodd" d="M389.963 254.201L376.368 256.825C372.827 258.506 371.36 262.023 371.964 267.377C372.176 269.255 372.761 273.751 373.188 272.161C373.321 271.664 386.437 267.359 388.387 268.647C390.19 269.837 388.228 262.935 387.963 259.932L390.003 254.051L390.493 253.542" fill="#E7EAEE"/>
<path fill-rule="evenodd" clip-rule="evenodd" d="M372.739 254.289C373.539 254.503 368.438 255.42 367.619 259.411C366.799 263.403 367.929 271.466 367.106 271.552C366.283 271.637 365.433 269.147 365.348 268.323C364.817 263.201 364.989 261.215 365.779 258.522C366.812 254.997 369.252 253.354 372.739 254.289Z" fill="#E7EAEE"/>
<ellipse cx="391.853" cy="263.581" rx="3.23692" ry="7.31239" transform="rotate(15 391.853 263.581)" fill="#E7EAEE"/>
<path fill-rule="evenodd" clip-rule="evenodd" d="M153.506 279.536C156.79 267.28 159.58 262.316 175.994 259.546C209.208 255.463 209.334 254.996 272.694 248.182C289.442 246.411 317.703 268.977 333.194 266.844C343.521 265.422 352.976 264.845 361.681 263.023C361.125 268.07 363.724 277.563 365.037 279.427C355.554 278.906 346.089 279.492 336.642 281.187C316.218 284.851 327.59 285.408 291.598 304.804C288.548 306.448 278.198 309.286 263.799 311.272C263.799 311.272 238.682 300.792 229.397 293.646C219.948 286.373 207.596 268.013 207.596 268.013C207.596 268.013 185.516 275.239 173.235 277.855C167.486 279.079 153.506 279.536 153.506 279.536Z" fill="white"/>
<path fill-rule="evenodd" clip-rule="evenodd" d="M155.213 273.167C155.983 270.29 156.218 268.2 157.116 266.061C160.047 259.087 164.922 256.424 177.484 254.303C210.698 250.22 211.04 248.627 274.4 241.813C291.148 240.042 319.409 262.608 334.9 260.475C345.227 259.053 354.682 258.476 363.387 256.654C363.372 256.798 360.799 263.21 360.799 263.21C360.799 263.21 339.195 268.133 326.107 266.897C312.202 265.585 296.729 250.247 277.109 250.494C247.231 250.871 176.622 258.298 167.397 262.429C160.149 265.674 155.213 273.167 155.213 273.167Z" fill="#E7EAEE"/>
<path fill-rule="evenodd" clip-rule="evenodd" d="M186.803 90.0948C186.495 89.2572 185.799 88.6358 184.912 88.5108C184.003 88.3818 183.104 88.7965 182.61 89.569L182.478 89.7756C182.379 89.9277 182.263 90.1013 182.13 90.2957C181.75 90.8506 181.306 91.4606 180.801 92.1092C179.365 93.9532 177.726 95.7388 175.918 97.3236C172.015 100.743 167.88 102.743 163.644 102.806C162.982 102.815 162.454 103.36 162.463 104.022C162.473 104.684 173.204 102.888 177.497 99.1271C179.43 97.4339 181.169 95.5388 182.693 93.5826C183.152 92.9924 183.565 92.431 183.93 91.9086L184.108 91.6507C184.253 91.4396 184.379 91.2496 184.489 91.0811C184.539 90.9535 184.565 90.9133 184.566 90.9603C189.984 97.2762 184.358 107.841 184.981 108.066C185.575 108.281 186.229 107.998 186.483 107.43L186.717 106.841L186.792 106.643C188.385 102.331 188.949 97.1292 187.268 91.4934C187.129 91.0253 186.974 90.559 186.803 90.0948Z" fill="#E7EAEE"/>
<path fill-rule="evenodd" clip-rule="evenodd" d="M200.625 93.762L200.702 94.0621L200.79 94.4448C200.842 94.6797 200.899 94.9512 200.958 95.2565C201.162 96.3146 201.338 97.4972 201.465 98.7835C201.822 102.404 201.737 106.186 201.042 109.963C200.099 115.088 198.105 119.63 195.116 123.447L194.862 123.766C192.47 126.733 189.472 129.234 185.913 131.246L185.561 131.441L185.795 131.517C189.808 132.775 193.92 133.487 197.75 133.307C198.571 133.269 199.363 133.614 199.893 134.242C200.423 134.869 200.632 135.706 200.461 136.508L200.404 136.757L200.323 137.083L200.289 137.208C200.168 137.661 200.018 138.165 199.837 138.713C199.336 140.226 198.679 141.828 197.844 143.459C195.485 148.069 192.161 152.088 187.701 155.03C187.109 155.42 186.388 155.556 185.698 155.41L185.54 155.371C184.817 155.163 184.234 154.685 183.901 154.046L183.663 153.553L183.545 153.315L183.293 152.82L183.013 152.289C182.915 152.106 182.812 151.919 182.706 151.726C181.797 150.085 180.756 148.42 179.6 146.835C176.397 142.442 172.954 139.524 169.533 138.823C163.937 137.679 159.445 136.199 155.532 133.878C150.473 130.878 146.985 126.716 145.427 121.161L145.341 120.845C144.557 117.884 143.176 114.345 141.437 110.581C140.899 109.418 140.36 108.305 139.839 107.269L139.617 106.83C139.261 106.129 138.966 105.568 138.841 105.338C138.379 104.488 138.416 103.455 138.935 102.641L139.009 102.532C139.54 101.783 140.424 101.36 141.345 101.421L146.287 101.751L146.363 101.687C148.682 99.7499 151.622 98.3705 155.025 98.4095C158.575 98.4502 161.873 100.126 164.795 103.303L164.999 103.527C168.92 107.911 173.68 109.003 178.789 107.86C182.438 107.044 186.25 105.02 189.494 102.161C192.51 99.5028 194.714 96.3879 195.536 93.6837C195.88 92.5535 196.929 91.7852 198.11 91.8024C199.292 91.8192 200.318 92.6197 200.625 93.762ZM198.304 94.555L198.211 94.7807C196.997 97.6634 194.724 101.522 191.792 104.107C188.182 107.288 183.758 109.276 179.598 110.206C173.597 111.548 167.732 110.516 163.049 105.429L162.843 105.203C160.398 102.469 158.398 100.933 155.105 100.876C151.811 100.819 149.71 102.666 147.818 104.395L147.734 104.467C147.444 104.695 147.078 104.809 146.707 104.784L140.606 104.143L142.028 107.361C142.455 108.336 142.756 109.037 142.931 109.464L144.447 113.178C148.975 124.205 154.146 134.961 169.609 135.861L170.134 135.887C174.247 136.064 176.88 139.254 180.048 143.764L180.724 144.732C181.559 145.935 184.053 149.689 185.018 151.433L185.332 152.008L185.619 152.549C185.678 152.663 185.734 152.773 185.788 152.877L186.078 153.459L186.415 153.225C190.071 150.638 193.159 146.035 195.176 142.094C195.938 140.605 196.537 139.145 196.992 137.771L197.05 137.592C197.181 137.19 197.286 136.836 197.367 136.539L197.426 136.319L196.976 136.329C191.776 136.405 186.302 135.084 181.161 133.05C179.919 132.559 197.029 124.94 198.094 109.42C198.337 105.883 199.124 101.278 198.793 97.9199C198.688 96.8609 198.548 95.8806 198.387 94.9943L198.304 94.555Z" fill="#E7EAEE"/>
<path fill-rule="evenodd" clip-rule="evenodd" d="M154.622 110.784C155.739 111.084 156.892 110.418 157.191 109.301C157.491 108.183 156.825 107.031 155.708 106.731C154.59 106.432 153.438 107.097 153.138 108.215C152.839 109.332 153.504 110.485 154.622 110.784Z" fill="#00160A"/>
<ellipse cx="154.885" cy="116.75" rx="3.29678" ry="2.69736" transform="rotate(15 154.885 116.75)" fill="#FFB61D"/>
<ellipse cx="154.885" cy="116.75" rx="3.29678" ry="2.69736" transform="rotate(15 154.885 116.75)" fill="#FFB61D"/>
<path fill-rule="evenodd" clip-rule="evenodd" d="M200.625 93.7621L200.702 94.0621L200.79 94.4448C200.842 94.6797 200.899 94.9512 200.958 95.2565C201.162 96.3146 201.338 97.4972 201.465 98.7835C201.822 102.404 201.737 106.186 201.042 109.963C200.099 115.088 198.105 119.63 195.116 123.447L194.862 123.766C192.47 126.733 189.472 129.234 185.913 131.246L185.561 131.441L185.795 131.517C189.808 132.775 193.92 133.487 197.75 133.307C198.571 133.269 199.363 133.614 199.893 134.243C200.423 134.869 200.632 135.706 200.461 136.508L200.404 136.757L200.323 137.083L200.289 137.208C200.168 137.661 200.018 138.165 199.837 138.713C199.336 140.227 198.679 141.828 197.844 143.459C195.485 148.069 192.161 152.088 187.701 155.03C187.109 155.42 186.388 155.556 185.698 155.41L185.54 155.371C184.817 155.163 184.235 154.685 183.901 154.046L183.663 153.553L183.545 153.315L183.293 152.82L183.013 152.289C182.915 152.106 182.812 151.919 182.706 151.726C181.797 150.085 180.756 148.42 179.6 146.835C176.397 142.442 172.954 139.524 169.533 138.823C163.937 137.679 159.445 136.199 155.532 133.878C150.473 130.878 146.985 126.716 145.427 121.161L145.341 120.845C144.557 117.884 143.176 114.345 141.437 110.581C140.899 109.418 140.36 108.305 139.839 107.269L139.617 106.83C139.261 106.129 138.966 105.568 138.841 105.338C138.379 104.488 138.416 103.455 138.935 102.641L139.009 102.532C139.54 101.783 140.424 101.36 141.345 101.422L146.287 101.752L146.363 101.687C148.682 99.7499 151.622 98.3705 155.025 98.4096C158.375 98.4479 161.501 99.9421 164.298 102.781C168.305 102.533 172.216 100.567 175.918 97.3236C177.727 95.7388 179.365 93.9532 180.801 92.1092C181.306 91.4606 181.75 90.8506 182.13 90.2957C182.263 90.1013 182.379 89.9277 182.478 89.7756L182.61 89.569C183.104 88.7965 184.004 88.3818 184.912 88.5108C185.8 88.6358 186.495 89.2572 186.803 90.0948C186.974 90.559 187.129 91.0253 187.268 91.4934C188.573 95.8682 188.525 99.9814 187.693 103.62C188.309 103.162 188.911 102.675 189.494 102.161C192.51 99.5028 194.714 96.3879 195.536 93.6837C195.88 92.5536 196.929 91.7852 198.11 91.8024C199.292 91.8192 200.318 92.6197 200.625 93.7621ZM178.789 107.86C173.826 108.97 169.193 107.972 165.338 103.896C168.831 103.291 174.615 101.652 177.498 99.1271C179.43 97.4339 181.169 95.5388 182.693 93.5826C183.152 92.9924 183.565 92.431 183.93 91.9086L184.108 91.6507C184.253 91.4396 184.38 91.2496 184.489 91.0811C184.539 90.9535 184.565 90.9133 184.567 90.9603C188.168 95.1586 186.89 101.234 185.81 104.903C183.531 106.319 181.126 107.338 178.789 107.86ZM179.598 110.206C181.612 109.756 183.688 109.058 185.703 108.096C185.849 108.056 185.986 107.99 186.107 107.9C188.111 106.904 190.047 105.645 191.792 104.107C194.724 101.522 196.997 97.6634 198.211 94.7807L198.304 94.555L198.387 94.9943C198.548 95.8806 198.688 96.8609 198.793 97.9199C199.023 100.257 198.712 103.198 198.42 105.962C198.292 107.17 198.168 108.345 198.094 109.42C197.278 121.315 187.036 128.569 182.856 131.53C181.582 132.432 180.871 132.936 181.161 133.05C186.302 135.084 191.776 136.405 196.976 136.329L197.426 136.319L197.367 136.539C197.286 136.836 197.181 137.19 197.05 137.592L196.992 137.771C196.537 139.145 195.938 140.605 195.176 142.094C193.159 146.035 190.071 150.638 186.415 153.225L186.078 153.459L185.788 152.877C185.734 152.773 185.678 152.663 185.619 152.549L185.332 152.008L185.018 151.433C184.053 149.689 181.559 145.935 180.724 144.732L180.048 143.764C176.88 139.254 174.247 136.064 170.134 135.887L169.609 135.861C154.146 134.961 148.975 124.205 144.447 113.178L142.931 109.464C142.756 109.037 142.455 108.336 142.028 107.361L140.606 104.143L146.707 104.784C147.078 104.809 147.444 104.695 147.734 104.467L147.818 104.395C149.71 102.666 151.811 100.819 155.105 100.876C158.398 100.933 160.398 102.469 162.843 105.203L163.049 105.429C167.732 110.517 173.597 111.548 179.598 110.206ZM389.839 252.215C391.125 251.967 392.879 253.587 391.232 254.996C388.739 257.13 389.104 263.734 389.327 267.756C389.43 269.617 389.502 270.925 389.247 270.983C388.439 271.163 387.638 270.654 387.458 269.847C386.48 265.473 386.145 262.118 386.479 259.725C386.645 258.534 386.912 257.411 387.281 256.357L387.324 256.236L376.848 258.258L376.701 258.334C374.083 259.737 372.552 261.769 373.001 266.216L373.029 266.474C373.557 271.152 375.558 274.942 378.52 275.6L378.751 275.65C385.292 277.263 389.705 276.347 391.732 274.335C394.281 271.805 395.681 268.473 394.229 260.87C394.074 260.057 393.621 254.602 395.459 257.848C397.297 261.094 397.776 273.391 394.45 276.693C391.674 279.449 386.356 279.778 379.584 278.305C379.577 278.485 379.537 278.668 379.461 278.844C377.676 282.972 374.99 285.151 371.499 285.054C368.83 284.98 366.346 283.465 364.388 280.894C355.211 280.432 346.051 281.021 336.906 282.662L335.55 282.909C330.875 283.779 328.143 284.469 326.062 285.294C324.842 285.778 323.793 286.327 322.622 287.082L322.432 287.209C321.857 287.6 320.587 288.512 319.143 289.55C317.221 290.931 314.99 292.534 313.675 293.426L313.041 293.854C307.713 297.433 301.155 301.356 292.309 306.123L292.062 306.252C288.781 307.908 280.673 310.023 270.818 311.706C295.263 317.334 315.199 312.77 330.799 298.044C331.486 297.396 332.593 297.536 333.096 298.335C347.154 320.662 366.671 334.48 391.721 339.851C416.837 345.236 436.748 343.668 451.491 335.225C452.209 334.814 453.125 335.063 453.536 335.781C453.947 336.499 453.699 337.415 452.981 337.826C437.514 346.683 409.139 348.836 383.36 343.309C358.289 337.933 346.261 323.787 331.879 301.979L331.528 301.443L331.295 301.653C314.49 316.563 284.984 322.816 259.021 316.06L258.208 315.845C231.704 308.743 219.856 291.813 206.675 269.481L206.573 269.306L206.494 269.344C205.851 269.644 205.213 269.943 204.58 270.239C184.046 279.85 168.725 287.021 149.198 284.67L148.576 284.593C126.222 283.201 97.1243 263.156 93.6833 256.231C90.5303 249.885 94.9572 254.491 96.1725 255.755C96.2835 255.87 96.3677 255.958 96.4169 256.007C108.299 267.803 123.66 275.199 143.784 277.752C146.561 278.105 149.353 278.335 152.16 278.441L152.206 278.148C153.516 269.869 154.454 266.349 156.757 262.638C159.891 257.589 165.043 254.495 173.188 253.121L175.423 252.773C185.444 251.224 193.357 250.166 201.512 249.263L202.109 249.197C203.023 249.097 203.949 248.998 204.893 248.898L205.818 248.803C206.15 248.777 210.526 248.269 217.178 247.496C232.52 245.714 259.968 242.526 277.832 240.605C281.695 240.197 286.055 240.885 291.183 242.547L291.624 242.692C295.459 243.965 299.149 245.521 305.14 248.291L310.4 250.736C316.277 253.454 319.151 254.675 322.571 255.858C323.646 256.23 324.662 256.605 325.626 256.963L325.627 256.963L325.627 256.963C329.202 258.286 332.079 259.351 334.695 258.99C337.022 258.67 339.3 258.369 341.532 258.074L341.532 258.074L341.532 258.074C348.832 257.109 355.641 256.209 362.086 254.906C363.154 252.482 364.65 250.881 366.541 250.07C369.458 248.819 372.877 249.7 375.526 251.643C376.193 252.132 376.337 253.07 375.848 253.737C375.69 253.953 375.117 253.681 374.307 253.295C372.613 252.489 369.881 251.189 367.723 252.824C365.323 254.644 363.787 258.005 363.51 265.359C363.31 270.688 368.446 281.218 371.582 282.058C375.078 282.995 376.806 279.82 377.786 278.019L377.847 277.906C373.66 276.899 371.205 273.421 370.508 267.822L370.475 267.545C369.805 261.609 371.537 257.459 375.725 255.471C375.801 255.435 375.88 255.405 375.961 255.383L376.084 255.353L389.839 252.215ZM362.418 277.561C362.319 277.344 362.223 277.123 362.129 276.899C362.09 276.826 362.054 276.755 362.024 276.688C361.935 276.493 361.844 276.294 361.75 276.091C360.989 274.443 360.108 272.534 359.693 270.01L359.634 269.642C358.981 265.547 359.887 261.386 360.895 258.025L361.016 257.636L360.918 257.657C353.277 259.188 345.041 260.571 336.211 261.806L335.104 261.959C331.325 262.48 326.814 262.354 321.534 260.567L321.126 260.427C317.525 259.182 314.554 257.916 308.381 255.057L303.774 252.914C290.779 246.903 284.058 244.708 277.876 245.303C277.876 245.303 185.63 254.372 173.67 256.079C166.342 257.316 163.375 259.532 159.456 263.361C157.429 265.341 155.829 271.874 154.719 276.412L154.718 276.414L154.716 276.422C154.531 277.18 154.359 277.882 154.201 278.497C171.108 278.78 188.546 274.622 206.531 266.011C207.24 265.671 208.091 265.937 208.48 266.62C209.343 268.133 210.236 269.612 211.16 271.055L278.26 262.013C278.444 261.988 278.625 261.997 278.796 262.037C279.308 261.944 279.845 261.898 280.409 261.899C286.046 261.91 289.638 265.312 291.04 271.692L297.328 269.265C298.256 268.907 299.268 269.534 299.36 270.524C300.684 284.783 296.904 293.297 287.851 295.468C278.721 297.657 272.745 292.233 270.237 279.975C270.11 279.353 270.388 278.748 270.881 278.423C270.995 272.844 271.874 268.61 273.559 265.825L214.27 275.618C220.456 284.155 227.839 291.322 236.427 297.122C236.699 296.973 236.981 296.858 237.245 296.793C246.386 294.563 267.389 294.725 272.578 294.765C273.026 294.768 273.357 294.771 273.551 294.771C275.99 294.771 273.089 296.273 272.317 296.406L272.219 296.419L240.6 299.777C248.476 304.49 257.28 308.15 267.018 310.759C267.572 310.907 268.123 311.05 268.672 311.189L269.425 310.944C276.622 308.602 288.658 304.686 290.887 303.485L291.928 302.922C299.363 298.777 305.227 294.461 310.345 290.693C315.961 286.559 320.679 283.086 325.592 281.224C329.412 279.776 330.714 279.56 333.772 279.053L333.773 279.053C334.591 278.917 335.535 278.761 336.687 278.554C344.831 277.093 353.573 277.326 361.779 277.544L361.78 277.544L361.78 277.544L362.418 277.561ZM280.403 264.896C284.87 264.905 287.468 267.7 288.383 273.806L288.358 274.198C288.022 278.974 286.962 281.414 285.576 281.767C284.265 282.1 283.309 281.175 282.558 278.165C282.382 277.442 281.691 276.946 280.932 277.032L280.92 277.034L273.893 277.838L273.921 277.098C274.294 268.744 276.543 264.889 280.403 264.896ZM192.73 311.876C193.518 311.623 198.765 310.603 193.492 313.751C188.22 316.899 151.2 326.328 133.56 322.673C116.558 319.151 103.565 308.174 93.0834 295.557L92.7367 295.136L92.6217 295.223C91.8546 295.796 91.0897 296.297 90.3267 296.726L89.9998 296.906C88.6286 297.641 86.4206 298.297 83.3185 298.916C82.5068 299.078 79.887 298.725 81.5556 297.74C83.2242 296.754 86.6081 295.599 88.5742 294.943C89.8591 294.515 90.4298 293.764 90.996 293.019C91.2962 292.624 91.5952 292.231 91.9986 291.888C92.6465 291.337 93.6221 291.436 94.1472 292.104C104.337 305.077 117.868 314.163 134.895 317.691C151.993 321.234 171.299 318.739 192.73 311.876ZM289.292 347.641C290.025 347.256 291.061 343.389 290.328 343.774C282.217 348.032 267.186 349.662 250.125 346.127C233.043 342.587 220.525 336.398 212.533 327.602C211.977 326.99 208.955 324.954 210.416 327.501C211.878 330.047 231.552 346.561 249.207 350.22L249.736 350.328C267.148 353.873 280.531 352.24 289.292 347.641ZM296.545 273.069L296.528 272.785L291.318 274.797L291.278 275.269C290.781 280.629 289.285 283.819 286.462 284.631L286.315 284.671C283.401 285.413 281.285 283.77 280.074 280.317L280.021 280.163L273.527 280.96L273.596 281.243C275.909 290.526 280.272 294.104 286.936 292.603L287.152 292.553C293.873 290.941 297.059 284.831 296.579 273.753L296.545 273.069ZM157.191 109.301C156.892 110.418 155.739 111.084 154.622 110.784C153.504 110.485 152.839 109.332 153.138 108.215C153.438 107.097 154.59 106.432 155.708 106.731C156.825 107.031 157.491 108.183 157.191 109.301Z" fill="#00160A"/>
</svg>
